<?xml version="1.0" encoding="UTF-8" standalone="no"?><svg xmlns="http://www.w3.org/2000/svg" xmlns:xlink="http://www.w3.org/1999/xlink" contentScriptType="application/ecmascript" contentStyleType="text/css" height="784px" preserveAspectRatio="none" style="width:1255px;height:784px;" version="1.1" viewBox="0 0 1255 784" width="1255px" zoomAndPan="magnify"><defs><filter height="300%" id="f2zk9htzp5d3b" width="300%" x="-1" y="-1"><feGaussianBlur result="blurOut" stdDeviation="2.0"/><feColorMatrix in="blurOut" result="blurOut2" type="matrix" values="0 0 0 0 0 0 0 0 0 0 0 0 0 0 0 0 0 0 .4 0"/><feOffset dx="4.0" dy="4.0" in="blurOut2" result="blurOut3"/><feBlend in="SourceGraphic" in2="blurOut3" mode="normal"/></filter></defs><g><text fill="#000000" font-family="sans-serif" font-size="18" lengthAdjust="spacingAndGlyphs" textLength="384" x="439" y="19.2419">DiagramaDeClasse_ComportamentoInimigos</text><!--MD5=[957e023eeee3c075832de99356568495]
class EnemyType--><rect fill="#FEFECE" filter="url(#f2zk9htzp5d3b)" height="92.9457" id="EnemyType" style="stroke: #A80036; stroke-width: 1.5;" width="97" x="380.5" y="332.0158"/><ellipse cx="395.5" cy="348.0158" fill="#EB937F" rx="11" ry="11" style="stroke: #A80036; stroke-width: 1.0;"/><path d="M399.6094,354.0158 L391.8906,354.0158 L391.8906,341.6252 L399.6094,341.6252 L399.6094,343.7815 L394.3438,343.7815 L394.3438,346.4533 L399.1094,346.4533 L399.1094,348.6096 L394.3438,348.6096 L394.3438,351.8596 L399.6094,351.8596 L399.6094,354.0158 Z "/><text fill="#000000" font-family="sans-serif" font-size="12" lengthAdjust="spacingAndGlyphs" textLength="65" x="409.5" y="352.6719">EnemyType</text><line style="stroke: #A80036; stroke-width: 1.5;" x1="381.5" x2="476.5" y1="364.0158" y2="364.0158"/><text fill="#000000" font-family="sans-serif" font-size="11" lengthAdjust="spacingAndGlyphs" textLength="34" x="386.5" y="379.7748">MELEE</text><text fill="#000000" font-family="sans-serif" font-size="11" lengthAdjust="spacingAndGlyphs" textLength="44" x="386.5" y="394.7566">RANGED</text><text fill="#000000" font-family="sans-serif" font-size="11" lengthAdjust="spacingAndGlyphs" textLength="28" x="386.5" y="409.7385">BOSS</text><line style="stroke: #A80036; stroke-width: 1.5;" x1="381.5" x2="476.5" y1="416.9615" y2="416.9615"/><!--MD5=[80c532e980642ebbe770e7ed91e479d0]
class Enemy--><rect fill="#FEFECE" filter="url(#f2zk9htzp5d3b)" height="197.8189" id="Enemy" style="stroke: #A80036; stroke-width: 1.5;" width="282" x="367" y="32.5158"/><ellipse cx="484.75" cy="48.5158" fill="#ADD1B2" rx="11" ry="11" style="stroke: #A80036; stroke-width: 1.0;"/><path d="M487.7188,54.1565 Q487.1406,54.4533 486.5,54.594 Q485.8594,54.7502 485.1563,54.7502 Q482.6563,54.7502 481.3281,53.1096 Q480.0156,51.4533 480.0156,48.3283 Q480.0156,45.2033 481.3281,43.5471 Q482.6563,41.8908 485.1563,41.8908 Q485.8594,41.8908 486.5,42.0471 Q487.1563,42.2033 487.7188,42.5002 L487.7188,45.219 Q487.0938,44.6408 486.5,44.3752 Q485.9063,44.094 485.2813,44.094 Q483.9375,44.094 483.25,45.1721 Q482.5625,46.2346 482.5625,48.3283 Q482.5625,50.4221 483.25,51.5002 Q483.9375,52.5627 485.2813,52.5627 Q485.9063,52.5627 486.5,52.2971 Q487.0938,52.0158 487.7188,51.4377 L487.7188,54.1565 Z "/><text fill="#000000" font-family="sans-serif" font-size="12" lengthAdjust="spacingAndGlyphs" textLength="38" x="505.25" y="53.1719">Enemy</text><line style="stroke: #A80036; stroke-width: 1.5;" x1="368" x2="648" y1="64.5158" y2="64.5158"/><text fill="#000000" font-family="sans-serif" font-size="11" lengthAdjust="spacingAndGlyphs" textLength="96" x="373" y="80.2748">-type : EnemyType</text><text fill="#000000" font-family="sans-serif" font-size="11" lengthAdjust="spacingAndGlyphs" textLength="66" x="373" y="95.2566">-hp : Integer</text><text fill="#000000" font-family="sans-serif" font-size="11" lengthAdjust="spacingAndGlyphs" textLength="68" x="373" y="110.2385">-atk : Integer</text><text fill="#000000" font-family="sans-serif" font-size="11" lengthAdjust="spacingAndGlyphs" textLength="66" x="373" y="125.2204">-speed : Real</text><text fill="#000000" font-family="sans-serif" font-size="11" lengthAdjust="spacingAndGlyphs" textLength="85" x="373" y="140.2023">-armor : Integer</text><text fill="#000000" font-family="sans-serif" font-size="11" lengthAdjust="spacingAndGlyphs" textLength="96" x="373" y="155.1842">-position : Vector2</text><line style="stroke: #A80036; stroke-width: 1.5;" x1="368" x2="648" y1="162.4072" y2="162.4072"/><text fill="#000000" font-family="sans-serif" font-size="11" lengthAdjust="spacingAndGlyphs" textLength="188" x="373" y="178.1661">+takeDamage(rawDamage : Integer)</text><text fill="#000000" font-family="sans-serif" font-size="11" lengthAdjust="spacingAndGlyphs" textLength="270" x="373" y="193.148">+calculateResistance(rawDamage : Integer) : Integer</text><text fill="#000000" font-family="sans-serif" font-size="11" lengthAdjust="spacingAndGlyphs" textLength="78" x="373" y="208.1299">+dropReward()</text><text fill="#000000" font-family="sans-serif" font-size="11" lengthAdjust="spacingAndGlyphs" textLength="28" x="373" y="223.1117">+die()</text><!--MD5=[01c1895ce8a39f9e5e5dcf634ed354e8]
class AIController--><rect fill="#FEFECE" filter="url(#f2zk9htzp5d3b)" height="137.8913" id="AIController" style="stroke: #A80036; stroke-width: 1.5;" width="215" x="517.5" y="309.5158"/><ellipse cx="586.75" cy="325.5158" fill="#ADD1B2" rx="11" ry="11" style="stroke: #A80036; stroke-width: 1.0;"/><path d="M589.7188,331.1565 Q589.1406,331.4533 588.5,331.594 Q587.8594,331.7502 587.1563,331.7502 Q584.6563,331.7502 583.3281,330.1096 Q582.0156,328.4533 582.0156,325.3283 Q582.0156,322.2033 583.3281,320.5471 Q584.6563,318.8908 587.1563,318.8908 Q587.8594,318.8908 588.5,319.0471 Q589.1563,319.2033 589.7188,319.5002 L589.7188,322.219 Q589.0938,321.6408 588.5,321.3752 Q587.9063,321.094 587.2813,321.094 Q585.9375,321.094 585.25,322.1721 Q584.5625,323.2346 584.5625,325.3283 Q584.5625,327.4221 585.25,328.5002 Q585.9375,329.5627 587.2813,329.5627 Q587.9063,329.5627 588.5,329.2971 Q589.0938,329.0158 589.7188,328.4377 L589.7188,331.1565 Z "/><text fill="#000000" font-family="sans-serif" font-size="12" lengthAdjust="spacingAndGlyphs" textLength="68" x="607.25" y="330.1719">AIController</text><line style="stroke: #A80036; stroke-width: 1.5;" x1="518.5" x2="731.5" y1="341.5158" y2="341.5158"/><text fill="#000000" font-family="sans-serif" font-size="11" lengthAdjust="spacingAndGlyphs" textLength="117" x="523.5" y="357.2748">-detectionRange : Real</text><text fill="#000000" font-family="sans-serif" font-size="11" lengthAdjust="spacingAndGlyphs" textLength="99" x="523.5" y="372.2566">-attackRange : Real</text><text fill="#000000" font-family="sans-serif" font-size="11" lengthAdjust="spacingAndGlyphs" textLength="119" x="523.5" y="387.2385">-currentTarget : Player</text><line style="stroke: #A80036; stroke-width: 1.5;" x1="518.5" x2="731.5" y1="394.4615" y2="394.4615"/><text fill="#000000" font-family="sans-serif" font-size="11" lengthAdjust="spacingAndGlyphs" textLength="131" x="523.5" y="410.2204">+update(deltaTime : Real)</text><text fill="#000000" font-family="sans-serif" font-size="11" lengthAdjust="spacingAndGlyphs" textLength="203" x="523.5" y="425.2023">+detectPlayer(target : Player) : Boolean</text><text fill="#000000" font-family="sans-serif" font-size="11" lengthAdjust="spacingAndGlyphs" textLength="198" x="523.5" y="440.1842">+changePattern(newPattern : Pattern)</text><!--MD5=[e57988045781fc9269750b4152037d27]
class Pattern--><rect fill="#FEFECE" filter="url(#f2zk9htzp5d3b)" height="77.9638" id="Pattern" style="stroke: #A80036; stroke-width: 1.5;" width="386" x="432" y="526.5158"/><ellipse cx="600.75" cy="542.5158" fill="#A9DCDF" rx="11" ry="11" style="stroke: #A80036; stroke-width: 1.0;"/><path d="M600.8594,537.8596 L599.7031,542.9377 L602.0313,542.9377 L600.8594,537.8596 Z M599.375,535.6252 L602.3594,535.6252 L605.7188,548.0158 L603.2656,548.0158 L602.5,544.9533 L599.2188,544.9533 L598.4688,548.0158 L596.0313,548.0158 L599.375,535.6252 Z "/><text fill="#000000" font-family="sans-serif" font-size="12" font-style="italic" lengthAdjust="spacingAndGlyphs" textLength="40" x="621.25" y="547.1719">Pattern</text><line style="stroke: #A80036; stroke-width: 1.5;" x1="433" x2="817" y1="558.5158" y2="558.5158"/><line style="stroke: #A80036; stroke-width: 1.5;" x1="433" x2="817" y1="566.5158" y2="566.5158"/><text fill="#000000" font-family="sans-serif" font-size="11" lengthAdjust="spacingAndGlyphs" textLength="374" x="438" y="582.2748">+chasePlayer(context : Enemy, target : Player, deltaTime : Real) : Vector2</text><text fill="#000000" font-family="sans-serif" font-size="11" lengthAdjust="spacingAndGlyphs" textLength="291" x="438" y="597.2566">+attackPlayer(context : Enemy, target : Player) : Boolean</text><!--MD5=[6dcca2c7606300ccb351b95e883039ec]
class MeleePattern--><rect fill="#FEFECE" filter="url(#f2zk9htzp5d3b)" height="77.9638" id="MeleePattern" style="stroke: #A80036; stroke-width: 1.5;" width="386" x="6" y="680.5158"/><ellipse cx="156.75" cy="696.5158" fill="#ADD1B2" rx="11" ry="11" style="stroke: #A80036; stroke-width: 1.0;"/><path d="M159.7188,702.1565 Q159.1406,702.4533 158.5,702.594 Q157.8594,702.7502 157.1563,702.7502 Q154.6563,702.7502 153.3281,701.1096 Q152.0156,699.4533 152.0156,696.3283 Q152.0156,693.2033 153.3281,691.5471 Q154.6563,689.8908 157.1563,689.8908 Q157.8594,689.8908 158.5,690.0471 Q159.1563,690.2033 159.7188,690.5002 L159.7188,693.219 Q159.0938,692.6408 158.5,692.3752 Q157.9063,692.094 157.2813,692.094 Q155.9375,692.094 155.25,693.1721 Q154.5625,694.2346 154.5625,696.3283 Q154.5625,698.4221 155.25,699.5002 Q155.9375,700.5627 157.2813,700.5627 Q157.9063,700.5627 158.5,700.2971 Q159.0938,700.0158 159.7188,699.4377 L159.7188,702.1565 Z "/><text fill="#000000" font-family="sans-serif" font-size="12" lengthAdjust="spacingAndGlyphs" textLength="76" x="177.25" y="701.1719">MeleePattern</text><line style="stroke: #A80036; stroke-width: 1.5;" x1="7" x2="391" y1="712.5158" y2="712.5158"/><line style="stroke: #A80036; stroke-width: 1.5;" x1="7" x2="391" y1="720.5158" y2="720.5158"/><text fill="#000000" font-family="sans-serif" font-size="11" lengthAdjust="spacingAndGlyphs" textLength="374" x="12" y="736.2748">+chasePlayer(context : Enemy, target : Player, deltaTime : Real) : Vector2</text><text fill="#000000" font-family="sans-serif" font-size="11" lengthAdjust="spacingAndGlyphs" textLength="291" x="12" y="751.2566">+attackPlayer(context : Enemy, target : Player) : Boolean</text><!--MD5=[787984d0e218a4e2e4af140d2ec04601]
class RangedPattern--><rect fill="#FEFECE" filter="url(#f2zk9htzp5d3b)" height="92.9457" id="RangedPattern" style="stroke: #A80036; stroke-width: 1.5;" width="386" x="432" y="673.0158"/><ellipse cx="579.25" cy="689.0158" fill="#ADD1B2" rx="11" ry="11" style="stroke: #A80036; stroke-width: 1.0;"/><path d="M582.2188,694.6565 Q581.6406,694.9533 581,695.094 Q580.3594,695.2502 579.6563,695.2502 Q577.1563,695.2502 575.8281,693.6096 Q574.5156,691.9533 574.5156,688.8283 Q574.5156,685.7033 575.8281,684.0471 Q577.1563,682.3908 579.6563,682.3908 Q580.3594,682.3908 581,682.5471 Q581.6563,682.7033 582.2188,683.0002 L582.2188,685.719 Q581.5938,685.1408 581,684.8752 Q580.4063,684.594 579.7813,684.594 Q578.4375,684.594 577.75,685.6721 Q577.0625,686.7346 577.0625,688.8283 Q577.0625,690.9221 577.75,692.0002 Q578.4375,693.0627 579.7813,693.0627 Q580.4063,693.0627 581,692.7971 Q581.5938,692.5158 582.2188,691.9377 L582.2188,694.6565 Z "/><text fill="#000000" font-family="sans-serif" font-size="12" lengthAdjust="spacingAndGlyphs" textLength="83" x="599.75" y="693.6719">RangedPattern</text><line style="stroke: #A80036; stroke-width: 1.5;" x1="433" x2="817" y1="705.0158" y2="705.0158"/><text fill="#000000" font-family="sans-serif" font-size="11" lengthAdjust="spacingAndGlyphs" textLength="116" x="438" y="720.7748">-projectileSpeed : Real</text><line style="stroke: #A80036; stroke-width: 1.5;" x1="433" x2="817" y1="727.9977" y2="727.9977"/><text fill="#000000" font-family="sans-serif" font-size="11" lengthAdjust="spacingAndGlyphs" textLength="374" x="438" y="743.7566">+chasePlayer(context : Enemy, target : Player, deltaTime : Real) : Vector2</text><text fill="#000000" font-family="sans-serif" font-size="11" lengthAdjust="spacingAndGlyphs" textLength="291" x="438" y="758.7385">+attackPlayer(context : Enemy, target : Player) : Boolean</text><!--MD5=[1f2742bffafff20eb878f68ca25b6a69]
class BossPattern--><rect fill="#FEFECE" filter="url(#f2zk9htzp5d3b)" height="107.9276" id="BossPattern" style="stroke: #A80036; stroke-width: 1.5;" width="386" x="858" y="665.5158"/><ellipse cx="1012.75" cy="681.5158" fill="#ADD1B2" rx="11" ry="11" style="stroke: #A80036; stroke-width: 1.0;"/><path d="M1015.7188,687.1565 Q1015.1406,687.4533 1014.5,687.594 Q1013.8594,687.7502 1013.1563,687.7502 Q1010.6563,687.7502 1009.3281,686.1096 Q1008.0156,684.4533 1008.0156,681.3283 Q1008.0156,678.2033 1009.3281,676.5471 Q1010.6563,674.8908 1013.1563,674.8908 Q1013.8594,674.8908 1014.5,675.0471 Q1015.1563,675.2033 1015.7188,675.5002 L1015.7188,678.219 Q1015.0938,677.6408 1014.5,677.3752 Q1013.9063,677.094 1013.2813,677.094 Q1011.9375,677.094 1011.25,678.1721 Q1010.5625,679.2346 1010.5625,681.3283 Q1010.5625,683.4221 1011.25,684.5002 Q1011.9375,685.5627 1013.2813,685.5627 Q1013.9063,685.5627 1014.5,685.2971 Q1015.0938,685.0158 1015.7188,684.4377 L1015.7188,687.1565 Z "/><text fill="#000000" font-family="sans-serif" font-size="12" lengthAdjust="spacingAndGlyphs" textLength="68" x="1033.25" y="686.1719">BossPattern</text><line style="stroke: #A80036; stroke-width: 1.5;" x1="859" x2="1243" y1="697.5158" y2="697.5158"/><text fill="#000000" font-family="sans-serif" font-size="11" lengthAdjust="spacingAndGlyphs" textLength="137" x="864" y="713.2748">-phaseTriggerHp : Integer</text><line style="stroke: #A80036; stroke-width: 1.5;" x1="859" x2="1243" y1="720.4977" y2="720.4977"/><text fill="#000000" font-family="sans-serif" font-size="11" lengthAdjust="spacingAndGlyphs" textLength="374" x="864" y="736.2566">+chasePlayer(context : Enemy, target : Player, deltaTime : Real) : Vector2</text><text fill="#000000" font-family="sans-serif" font-size="11" lengthAdjust="spacingAndGlyphs" textLength="291" x="864" y="751.2385">+attackPlayer(context : Enemy, target : Player) : Boolean</text><text fill="#000000" font-family="sans-serif" font-size="11" lengthAdjust="spacingAndGlyphs" textLength="81" x="864" y="766.2204">+changePhase()</text><!--MD5=[3190966d5165735c18c250e7cb73c817]
link Enemy to EnemyType--><path d="M470.05,230.7058 C466.52,240.7258 463.1,250.7958 460,260.5158 C453.11,282.1058 446.52,306.2758 441.21,327.0058 " fill="none" id="Enemy-&gt;EnemyType" style="stroke: #A80036; stroke-width: 1.0;"/><polygon fill="#A80036" points="439.95,331.9258,446.0403,324.1858,441.1795,327.0794,438.2859,322.2186,439.95,331.9258" style="stroke: #A80036; stroke-width: 1.0;"/><text fill="#000000" font-family="sans-serif" font-size="13" lengthAdjust="spacingAndGlyphs" textLength="63" x="461" y="275.4129">defined by</text><polygon fill="#000000" points="488,285.2219,491,291.2219,494,285.2219,488,285.2219" style="stroke: #000000; stroke-width: 1.0;"/><text fill="#000000" font-family="sans-serif" font-size="13" lengthAdjust="spacingAndGlyphs" textLength="7" x="460.1355" y="252.206">1</text><text fill="#000000" font-family="sans-serif" font-size="13" lengthAdjust="spacingAndGlyphs" textLength="7" x="434.1373" y="320.1035">1</text><!--MD5=[f4471d4b8f16519cf16d612cd40249e9]
link Enemy to AIController--><path d="M560.0805,241.5848 C560.0805,241.5848 578.39,279.9158 586.77,297.4558 " fill="none" id="Enemy-AIController" style="stroke: #A80036; stroke-width: 1.0;"/><polygon fill="#A80036" points="592.46,309.3658,592.1918,299.5206,590.3056,304.8538,584.9725,302.9676,592.46,309.3658" style="stroke: #A80036; stroke-width: 1.0;"/><line style="stroke: #A80036; stroke-width: 1.0;" x1="590.3056" x2="586.855" y1="304.8538" y2="297.6358"/><polygon fill="#A80036" points="554.91,230.7558,553.8856,237.8938,560.0805,241.5848,561.1049,234.4468,554.91,230.7558" style="stroke: #A80036; stroke-width: 1.0;"/><text fill="#000000" font-family="sans-serif" font-size="13" lengthAdjust="spacingAndGlyphs" textLength="51" x="578" y="275.4129">contains</text><polygon fill="#000000" points="599,285.2219,602,291.2219,605,285.2219,599,285.2219" style="stroke: #000000; stroke-width: 1.0;"/><text fill="#000000" font-family="sans-serif" font-size="13" lengthAdjust="spacingAndGlyphs" textLength="7" x="550.9623" y="252.2595">1</text><text fill="#000000" font-family="sans-serif" font-size="13" lengthAdjust="spacingAndGlyphs" textLength="7" x="581.5181" y="297.8144">1</text><!--MD5=[e5a1d06c2802b8a270d465a53a32ab79]
link AIController to Pattern--><path d="M625,459.6158 C625,459.6158 625,497.0658 625,513.2958 " fill="none" id="AIController-Pattern" style="stroke: #A80036; stroke-width: 1.0;"/><polygon fill="#A80036" points="625,526.3758,629,517.3758,625,521.3758,621,517.3758,625,526.3758" style="stroke: #A80036; stroke-width: 1.0;"/><line style="stroke: #A80036; stroke-width: 1.0;" x1="625" x2="625" y1="521.3758" y2="513.3758"/><polygon fill="#FFFFFF" points="625,447.6158,621,453.6158,625,459.6158,629,453.6158,625,447.6158" style="stroke: #A80036; stroke-width: 1.0;"/><text fill="#000000" font-family="sans-serif" font-size="13" lengthAdjust="spacingAndGlyphs" textLength="27" x="626" y="492.4129">uses</text><polygon fill="#000000" points="635,502.2219,638,508.2219,641,502.2219,635,502.2219" style="stroke: #000000; stroke-width: 1.0;"/><text fill="#000000" font-family="sans-serif" font-size="13" lengthAdjust="spacingAndGlyphs" textLength="7" x="617.6555" y="469.1917">1</text><text fill="#000000" font-family="sans-serif" font-size="13" lengthAdjust="spacingAndGlyphs" textLength="7" x="617.3766" y="514.8531">1</text><!--MD5=[030016f07ef3553851336d52fb5507c4]
reverse link Pattern to MeleePattern--><path d="M499.23,611.3958 C437.72,633.3358 364.49,659.4658 305.76,680.4258 " fill="none" id="Pattern&lt;-MeleePattern" style="stroke: #A80036; stroke-width: 1.0;"/><polygon fill="none" points="497.14,604.7058,518.33,604.5758,501.84,617.8958,497.14,604.7058" style="stroke: #A80036; stroke-width: 1.0;"/><!--MD5=[f3750d98365deee4c6d4d9fa3f5d32cc]
reverse link Pattern to RangedPattern--><path d="M625,624.8958 C625,640.7958 625,657.7858 625,672.8658 " fill="none" id="Pattern&lt;-RangedPattern" style="stroke: #A80036; stroke-width: 1.0;"/><polygon fill="none" points="618,624.8758,625,604.8758,632,624.8758,618,624.8758" style="stroke: #A80036; stroke-width: 1.0;"/><!--MD5=[1c2e57c763d75037b4daf57925fb9b67]
reverse link Pattern to BossPattern--><path d="M750.57,611.3258 C798.19,628.3058 852.85,647.8158 902.38,665.4858 " fill="none" id="Pattern&lt;-BossPattern" style="stroke: #A80036; stroke-width: 1.0;"/><polygon fill="none" points="748.16,617.8958,731.67,604.5758,752.86,604.7058,748.16,617.8958" style="stroke: #A80036; stroke-width: 1.0;"/><!--MD5=[d1c7ef7c401ed5c3a54be52e0c8dd6a5]
@startuml
title DiagramaDeClasse_ComportamentoInimigos

skinparam classAttributeIconSize 0
skinparam nodesep 40
skinparam ranksep 60

enum EnemyType {
    MELEE
    RANGED
    BOSS
}

class Enemy {
    - type : EnemyType
    - hp : Integer
    - atk : Integer
    - speed : Real
    - armor : Integer
    - position : Vector2
    + takeDamage(rawDamage : Integer)
    + calculateResistance(rawDamage : Integer) : Integer
    + dropReward()
    + die()
}

class AIController {
    - detectionRange : Real
    - attackRange : Real
    - currentTarget : Player
    + update(deltaTime : Real)
    + detectPlayer(target : Player) : Boolean
    + changePattern(newPattern : Pattern)
}

abstract class Pattern {
    + chasePlayer(context : Enemy, target : Player, deltaTime : Real) : Vector2
    + attackPlayer(context : Enemy, target : Player) : Boolean
}


class MeleePattern {
    + chasePlayer(context : Enemy, target : Player, deltaTime : Real) : Vector2
    + attackPlayer(context : Enemy, target : Player) : Boolean
}

class RangedPattern {
    - projectileSpeed : Real
    + chasePlayer(context : Enemy, target : Player, deltaTime : Real) : Vector2
    + attackPlayer(context : Enemy, target : Player) : Boolean
}

class BossPattern {
    - phaseTriggerHp : Integer
    + chasePlayer(context : Enemy, target : Player, deltaTime : Real) : Vector2
    + attackPlayer(context : Enemy, target : Player) : Boolean
    + changePhase()
}


Enemy "1" - -> "1" EnemyType : defined by >
Enemy "1" *- -> "1" AIController : contains >

AIController "1" o- -> "1" Pattern : uses >

Pattern <|- - MeleePattern
Pattern <|- - RangedPattern
Pattern <|- - BossPattern

@enduml

PlantUML version 1.2020.02(Sun Mar 01 07:22:07 BRT 2020)
(GPL source distribution)
Java Runtime: OpenJDK Runtime Environment
JVM: OpenJDK 64-Bit Server VM
Java Version: 21.0.10+7-Ubuntu-124.04
Operating System: Linux
Default Encoding: UTF-8
Language: en
Country: US
--></g></svg>