<?xml version="1.0" encoding="UTF-8" standalone="no"?><svg xmlns="http://www.w3.org/2000/svg" xmlns:xlink="http://www.w3.org/1999/xlink" contentScriptType="application/ecmascript" contentStyleType="text/css" height="1295px" preserveAspectRatio="none" style="width:1008px;height:1295px;" version="1.1" viewBox="0 0 1008 1295" width="1008px" zoomAndPan="magnify"><defs><filter height="300%" id="fb41g4axurkdt" width="300%" x="-1" y="-1"><feGaussianBlur result="blurOut" stdDeviation="2.0"/><feColorMatrix in="blurOut" result="blurOut2" type="matrix" values="0 0 0 0 0 0 0 0 0 0 0 0 0 0 0 0 0 0 .4 0"/><feOffset dx="4.0" dy="4.0" in="blurOut2" result="blurOut3"/><feBlend in="SourceGraphic" in2="blurOut3" mode="normal"/></filter></defs><g><text fill="#000000" font-family="sans-serif" font-size="18" lengthAdjust="spacingAndGlyphs" textLength="429" x="285.25" y="29.2419">Diagrama de Sequência - Comportamento Inimigo</text><rect fill="#FFFFFF" filter="url(#fb41g4axurkdt)" height="592.2782" style="stroke: #A80036; stroke-width: 1.0;" width="10" x="175.5" y="206.9958"/><rect fill="#FFFFFF" filter="url(#fb41g4axurkdt)" height="311.9421" style="stroke: #A80036; stroke-width: 1.0;" width="10" x="175.5" y="868.686"/><rect fill="#FFFFFF" filter="url(#fb41g4axurkdt)" height="42.706" style="stroke: #A80036; stroke-width: 1.0;" width="10" x="180.5" y="908.392"/><rect fill="#FFFFFF" filter="url(#fb41g4axurkdt)" height="560.5721" style="stroke: #A80036; stroke-width: 1.0;" width="10" x="431.5" y="238.7018"/><rect fill="#FFFFFF" filter="url(#fb41g4axurkdt)" height="42.706" style="stroke: #A80036; stroke-width: 1.0;" width="10" x="436.5" y="278.4078"/><rect fill="#FFFFFF" filter="url(#fb41g4axurkdt)" height="42.706" style="stroke: #A80036; stroke-width: 1.0;" width="10" x="436.5" y="394.5259"/><rect fill="#FFFFFF" filter="url(#fb41g4axurkdt)" height="31.706" style="stroke: #A80036; stroke-width: 1.0;" width="10" x="688.5" y="502.6439"/><rect fill="#FFFFFF" filter="url(#fb41g4axurkdt)" height="31.706" style="stroke: #A80036; stroke-width: 1.0;" width="10" x="688.5" y="614.7439"/><rect fill="#FFFFFF" filter="url(#fb41g4axurkdt)" height="31.706" style="stroke: #A80036; stroke-width: 1.0;" width="10" x="688.5" y="704.8619"/><rect fill="#FFFFFF" filter="url(#fb41g4axurkdt)" height="30" style="stroke: #A80036; stroke-width: 1.0;" width="10" x="913" y="1150.6281"/><rect fill="#FFFFFF" filter="url(#fb41g4axurkdt)" height="449.1601" style="stroke: #000000; stroke-width: 2.0;" width="681.5" x="129" y="343.1138"/><rect fill="#FFFFFF" filter="url(#fb41g4axurkdt)" height="292.336" style="stroke: #000000; stroke-width: 2.0;" width="661.5" x="139" y="459.2319"/><rect fill="#FFFFFF" height="177.512" style="stroke: none; stroke-width: 1.0;" width="661.5" x="139" y="574.056"/><rect fill="#FFFFFF" filter="url(#fb41g4axurkdt)" height="83.118" style="stroke: #000000; stroke-width: 2.0;" width="413.5" x="377" y="661.4499"/><rect fill="#FFFFFF" height="33.706" style="stroke: none; stroke-width: 1.0;" width="681.5" x="129" y="758.5679"/><rect fill="#FFFFFF" filter="url(#fb41g4axurkdt)" height="170.8241" style="stroke: #000000; stroke-width: 2.0;" width="847.5" x="139" y="1017.804"/><line style="stroke: #A80036; stroke-width: 1.0; stroke-dasharray: 5.0,5.0;" x1="46" x2="46" y1="127.5838" y2="1205.6281"/><line style="stroke: #A80036; stroke-width: 1.0; stroke-dasharray: 5.0,5.0;" x1="180" x2="180" y1="127.5838" y2="1205.6281"/><line style="stroke: #A80036; stroke-width: 1.0; stroke-dasharray: 5.0,5.0;" x1="436" x2="436" y1="127.5838" y2="1205.6281"/><line style="stroke: #A80036; stroke-width: 1.0; stroke-dasharray: 5.0,5.0;" x1="693.5" x2="693.5" y1="127.5838" y2="1205.6281"/><line style="stroke: #A80036; stroke-width: 1.0; stroke-dasharray: 5.0,5.0;" x1="819.5" x2="819.5" y1="127.5838" y2="1205.6281"/><line style="stroke: #A80036; stroke-width: 1.0; stroke-dasharray: 5.0,5.0;" x1="917.5" x2="917.5" y1="127.5838" y2="1205.6281"/><text fill="#000000" font-family="sans-serif" font-size="14" lengthAdjust="spacingAndGlyphs" textLength="71" x="8" y="123.4818">GameLoop</text><ellipse cx="46.5" cy="51.5158" fill="#FEFECE" filter="url(#fb41g4axurkdt)" rx="8" ry="8" style="stroke: #A80036; stroke-width: 2.0;"/><path d="M46.5,59.5158 L46.5,86.5158 M33.5,67.5158 L59.5,67.5158 M46.5,86.5158 L33.5,101.5158 M46.5,86.5158 L59.5,101.5158 " fill="none" filter="url(#fb41g4axurkdt)" style="stroke: #A80036; stroke-width: 2.0;"/><text fill="#000000" font-family="sans-serif" font-size="14" lengthAdjust="spacingAndGlyphs" textLength="71" x="8" y="1219.594">GameLoop</text><ellipse cx="46.5" cy="1233.696" fill="#FEFECE" filter="url(#fb41g4axurkdt)" rx="8" ry="8" style="stroke: #A80036; stroke-width: 2.0;"/><path d="M46.5,1241.696 L46.5,1268.696 M33.5,1249.696 L59.5,1249.696 M46.5,1268.696 L33.5,1283.696 M46.5,1268.696 L59.5,1283.696 " fill="none" filter="url(#fb41g4axurkdt)" style="stroke: #A80036; stroke-width: 2.0;"/><rect fill="#FEFECE" filter="url(#fb41g4axurkdt)" height="33.0679" style="stroke: #A80036; stroke-width: 1.5;" width="59" x="149" y="89.5158"/><text fill="#000000" font-family="sans-serif" font-size="14" lengthAdjust="spacingAndGlyphs" textLength="45" x="156" y="111.4818">Enemy</text><rect fill="#FEFECE" filter="url(#fb41g4axurkdt)" height="33.0679" style="stroke: #A80036; stroke-width: 1.5;" width="59" x="149" y="1204.6281"/><text fill="#000000" font-family="sans-serif" font-size="14" lengthAdjust="spacingAndGlyphs" textLength="45" x="156" y="1226.594">Enemy</text><rect fill="#FEFECE" filter="url(#fb41g4axurkdt)" height="33.0679" style="stroke: #A80036; stroke-width: 1.5;" width="95" x="387" y="89.5158"/><text fill="#000000" font-family="sans-serif" font-size="14" lengthAdjust="spacingAndGlyphs" textLength="81" x="394" y="111.4818">AIController</text><rect fill="#FEFECE" filter="url(#fb41g4axurkdt)" height="33.0679" style="stroke: #A80036; stroke-width: 1.5;" width="95" x="387" y="1204.6281"/><text fill="#000000" font-family="sans-serif" font-size="14" lengthAdjust="spacingAndGlyphs" textLength="81" x="394" y="1226.594">AIController</text><rect fill="#FEFECE" filter="url(#fb41g4axurkdt)" height="33.0679" style="stroke: #A80036; stroke-width: 1.5;" width="170" x="606.5" y="89.5158"/><text fill="#000000" font-family="sans-serif" font-size="14" lengthAdjust="spacingAndGlyphs" textLength="156" x="613.5" y="111.4818">currentPattern: Pattern</text><rect fill="#FEFECE" filter="url(#fb41g4axurkdt)" height="33.0679" style="stroke: #A80036; stroke-width: 1.5;" width="170" x="606.5" y="1204.6281"/><text fill="#000000" font-family="sans-serif" font-size="14" lengthAdjust="spacingAndGlyphs" textLength="156" x="613.5" y="1226.594">currentPattern: Pattern</text><rect fill="#FEFECE" filter="url(#fb41g4axurkdt)" height="33.0679" style="stroke: #A80036; stroke-width: 1.5;" width="55" x="790.5" y="89.5158"/><text fill="#000000" font-family="sans-serif" font-size="14" lengthAdjust="spacingAndGlyphs" textLength="41" x="797.5" y="111.4818">Player</text><rect fill="#FEFECE" filter="url(#fb41g4axurkdt)" height="33.0679" style="stroke: #A80036; stroke-width: 1.5;" width="55" x="790.5" y="1204.6281"/><text fill="#000000" font-family="sans-serif" font-size="14" lengthAdjust="spacingAndGlyphs" textLength="41" x="797.5" y="1226.594">Player</text><rect fill="#FEFECE" filter="url(#fb41g4axurkdt)" height="33.0679" style="stroke: #A80036; stroke-width: 1.5;" width="113" x="859.5" y="89.5158"/><text fill="#000000" font-family="sans-serif" font-size="14" lengthAdjust="spacingAndGlyphs" textLength="99" x="866.5" y="111.4818">RewardSystem</text><rect fill="#FEFECE" filter="url(#fb41g4axurkdt)" height="33.0679" style="stroke: #A80036; stroke-width: 1.5;" width="113" x="859.5" y="1204.6281"/><text fill="#000000" font-family="sans-serif" font-size="14" lengthAdjust="spacingAndGlyphs" textLength="99" x="866.5" y="1226.594">RewardSystem</text><rect fill="#FFFFFF" filter="url(#fb41g4axurkdt)" height="592.2782" style="stroke: #A80036; stroke-width: 1.0;" width="10" x="175.5" y="206.9958"/><rect fill="#FFFFFF" filter="url(#fb41g4axurkdt)" height="311.9421" style="stroke: #A80036; stroke-width: 1.0;" width="10" x="175.5" y="868.686"/><rect fill="#FFFFFF" filter="url(#fb41g4axurkdt)" height="42.706" style="stroke: #A80036; stroke-width: 1.0;" width="10" x="180.5" y="908.392"/><rect fill="#FFFFFF" filter="url(#fb41g4axurkdt)" height="560.5721" style="stroke: #A80036; stroke-width: 1.0;" width="10" x="431.5" y="238.7018"/><rect fill="#FFFFFF" filter="url(#fb41g4axurkdt)" height="42.706" style="stroke: #A80036; stroke-width: 1.0;" width="10" x="436.5" y="278.4078"/><rect fill="#FFFFFF" filter="url(#fb41g4axurkdt)" height="42.706" style="stroke: #A80036; stroke-width: 1.0;" width="10" x="436.5" y="394.5259"/><rect fill="#FFFFFF" filter="url(#fb41g4axurkdt)" height="31.706" style="stroke: #A80036; stroke-width: 1.0;" width="10" x="688.5" y="502.6439"/><rect fill="#FFFFFF" filter="url(#fb41g4axurkdt)" height="31.706" style="stroke: #A80036; stroke-width: 1.0;" width="10" x="688.5" y="614.7439"/><rect fill="#FFFFFF" filter="url(#fb41g4axurkdt)" height="31.706" style="stroke: #A80036; stroke-width: 1.0;" width="10" x="688.5" y="704.8619"/><rect fill="#FFFFFF" filter="url(#fb41g4axurkdt)" height="30" style="stroke: #A80036; stroke-width: 1.0;" width="10" x="913" y="1150.6281"/><rect fill="#EEEEEE" filter="url(#fb41g4axurkdt)" height="3" style="stroke: #EEEEEE; stroke-width: 1.0;" width="993.5" x="3" y="159.4368"/><line style="stroke: #000000; stroke-width: 1.0;" x1="3" x2="996.5" y1="159.4368" y2="159.4368"/><line style="stroke: #000000; stroke-width: 1.0;" x1="3" x2="996.5" y1="162.4368" y2="162.4368"/><rect fill="#EEEEEE" filter="url(#fb41g4axurkdt)" height="25.706" style="stroke: #000000; stroke-width: 2.0;" width="147" x="426.25" y="147.5838"/><text fill="#000000" font-family="sans-serif" font-size="13" font-weight="bold" lengthAdjust="spacingAndGlyphs" textLength="130" x="432.25" y="165.4808">Loop de Atualização</text><polygon fill="#A80036" points="163.5,202.9958,173.5,206.9958,163.5,210.9958,167.5,206.9958" style="stroke: #A80036; stroke-width: 1.0;"/><line style="stroke: #A80036; stroke-width: 1.0;" x1="46.5" x2="169.5" y1="206.9958" y2="206.9958"/><text fill="#000000" font-family="sans-serif" font-size="13" lengthAdjust="spacingAndGlyphs" textLength="110" x="56" y="201.1868">update(deltaTime)</text><polygon fill="#A80036" points="419.5,234.7018,429.5,238.7018,419.5,242.7018,423.5,238.7018" style="stroke: #A80036; stroke-width: 1.0;"/><line style="stroke: #A80036; stroke-width: 1.0;" x1="185.5" x2="425.5" y1="238.7018" y2="238.7018"/><text fill="#000000" font-family="sans-serif" font-size="13" lengthAdjust="spacingAndGlyphs" textLength="110" x="253.5" y="232.8928">update(deltaTime)</text><line style="stroke: #A80036; stroke-width: 1.0;" x1="441.5" x2="488.5" y1="265.4078" y2="265.4078"/><line style="stroke: #A80036; stroke-width: 1.0;" x1="488.5" x2="488.5" y1="265.4078" y2="278.4078"/><line style="stroke: #A80036; stroke-width: 1.0;" x1="447.5" x2="488.5" y1="278.4078" y2="278.4078"/><polygon fill="#A80036" points="457.5,274.4078,447.5,278.4078,457.5,282.4078,453.5,278.4078" style="stroke: #A80036; stroke-width: 1.0;"/><text fill="#000000" font-family="sans-serif" font-size="13" lengthAdjust="spacingAndGlyphs" textLength="120" x="453.5" y="259.5988">detectPlayer(Player)</text><line style="stroke: #A80036; stroke-width: 1.0; stroke-dasharray: 2.0,2.0;" x1="446.5" x2="488.5" y1="320.1138" y2="320.1138"/><line style="stroke: #A80036; stroke-width: 1.0; stroke-dasharray: 2.0,2.0;" x1="488.5" x2="488.5" y1="320.1138" y2="333.1138"/><line style="stroke: #A80036; stroke-width: 1.0; stroke-dasharray: 2.0,2.0;" x1="441.5" x2="488.5" y1="333.1138" y2="333.1138"/><polygon fill="#A80036" points="451.5,329.1138,441.5,333.1138,451.5,337.1138,447.5,333.1138" style="stroke: #A80036; stroke-width: 1.0;"/><text fill="#000000" font-family="sans-serif" font-size="13" lengthAdjust="spacingAndGlyphs" textLength="63" x="453.5" y="314.3048">isDetected</text><path d="M129,343.1138 L192,343.1138 L192,352.1138 L182,362.1138 L129,362.1138 L129,343.1138 " fill="#EEEEEE" style="stroke: #000000; stroke-width: 1.0;"/><rect fill="none" height="449.1601" style="stroke: #000000; stroke-width: 2.0;" width="681.5" x="129" y="343.1138"/><text fill="#000000" font-family="sans-serif" font-size="13" font-weight="bold" lengthAdjust="spacingAndGlyphs" textLength="18" x="144" y="358.0109">alt</text><text fill="#000000" font-family="sans-serif" font-size="11" font-weight="bold" lengthAdjust="spacingAndGlyphs" textLength="110" x="207" y="356.8728">[isDetected == true]</text><line style="stroke: #A80036; stroke-width: 1.0;" x1="441.5" x2="488.5" y1="381.5259" y2="381.5259"/><line style="stroke: #A80036; stroke-width: 1.0;" x1="488.5" x2="488.5" y1="381.5259" y2="394.5259"/><line style="stroke: #A80036; stroke-width: 1.0;" x1="447.5" x2="488.5" y1="394.5259" y2="394.5259"/><polygon fill="#A80036" points="457.5,390.5259,447.5,394.5259,457.5,398.5259,453.5,394.5259" style="stroke: #A80036; stroke-width: 1.0;"/><text fill="#000000" font-family="sans-serif" font-size="13" lengthAdjust="spacingAndGlyphs" textLength="164" x="453.5" y="375.7169">calcularDistanciaAte(Player)</text><line style="stroke: #A80036; stroke-width: 1.0; stroke-dasharray: 2.0,2.0;" x1="446.5" x2="488.5" y1="436.2319" y2="436.2319"/><line style="stroke: #A80036; stroke-width: 1.0; stroke-dasharray: 2.0,2.0;" x1="488.5" x2="488.5" y1="436.2319" y2="449.2319"/><line style="stroke: #A80036; stroke-width: 1.0; stroke-dasharray: 2.0,2.0;" x1="441.5" x2="488.5" y1="449.2319" y2="449.2319"/><polygon fill="#A80036" points="451.5,445.2319,441.5,449.2319,451.5,453.2319,447.5,449.2319" style="stroke: #A80036; stroke-width: 1.0;"/><text fill="#000000" font-family="sans-serif" font-size="13" lengthAdjust="spacingAndGlyphs" textLength="53" x="453.5" y="430.4229">distancia</text><path d="M139,459.2319 L202,459.2319 L202,468.2319 L192,478.2319 L139,478.2319 L139,459.2319 " fill="#EEEEEE" style="stroke: #000000; stroke-width: 1.0;"/><rect fill="none" height="292.336" style="stroke: #000000; stroke-width: 2.0;" width="661.5" x="139" y="459.2319"/><text fill="#000000" font-family="sans-serif" font-size="13" font-weight="bold" lengthAdjust="spacingAndGlyphs" textLength="18" x="154" y="474.1289">alt</text><text fill="#000000" font-family="sans-serif" font-size="11" font-weight="bold" lengthAdjust="spacingAndGlyphs" textLength="142" x="217" y="472.9908">[distancia &gt; attackRange]</text><polygon fill="#A80036" points="676.5,498.6439,686.5,502.6439,676.5,506.6439,680.5,502.6439" style="stroke: #A80036; stroke-width: 1.0;"/><line style="stroke: #A80036; stroke-width: 1.0;" x1="441.5" x2="682.5" y1="502.6439" y2="502.6439"/><text fill="#000000" font-family="sans-serif" font-size="13" lengthAdjust="spacingAndGlyphs" textLength="228" x="451" y="496.8349">chasePlayer(Enemy, Player, deltaTime)</text><polygon fill="#A80036" points="452.5,530.3499,442.5,534.3499,452.5,538.3499,448.5,534.3499" style="stroke: #A80036; stroke-width: 1.0;"/><line style="stroke: #A80036; stroke-width: 1.0; stroke-dasharray: 2.0,2.0;" x1="446.5" x2="692.5" y1="534.3499" y2="534.3499"/><text fill="#000000" font-family="sans-serif" font-size="13" lengthAdjust="spacingAndGlyphs" textLength="105" x="515" y="528.5409">movementVector</text><polygon fill="#A80036" points="196.5,562.056,186.5,566.056,196.5,570.056,192.5,566.056" style="stroke: #A80036; stroke-width: 1.0;"/><line style="stroke: #A80036; stroke-width: 1.0;" x1="190.5" x2="430.5" y1="566.056" y2="566.056"/><text fill="#000000" font-family="sans-serif" font-size="13" lengthAdjust="spacingAndGlyphs" textLength="222" x="197.5" y="560.247">aplicarMovimento(movementVector)</text><line style="stroke: #000000; stroke-width: 1.0; stroke-dasharray: 2.0,2.0;" x1="139" x2="800.5" y1="575.056" y2="575.056"/><text fill="#000000" font-family="sans-serif" font-size="11" font-weight="bold" lengthAdjust="spacingAndGlyphs" textLength="148" x="144" y="586.8149">[distancia &lt;= attackRange]</text><polygon fill="#A80036" points="676.5,610.7439,686.5,614.7439,676.5,618.7439,680.5,614.7439" style="stroke: #A80036; stroke-width: 1.0;"/><line style="stroke: #A80036; stroke-width: 1.0;" x1="441.5" x2="682.5" y1="614.7439" y2="614.7439"/><text fill="#000000" font-family="sans-serif" font-size="13" lengthAdjust="spacingAndGlyphs" textLength="166" x="482" y="608.9349">attackPlayer(Enemy, Player)</text><polygon fill="#A80036" points="452.5,642.4499,442.5,646.4499,452.5,650.4499,448.5,646.4499" style="stroke: #A80036; stroke-width: 1.0;"/><line style="stroke: #A80036; stroke-width: 1.0; stroke-dasharray: 2.0,2.0;" x1="446.5" x2="692.5" y1="646.4499" y2="646.4499"/><text fill="#000000" font-family="sans-serif" font-size="13" lengthAdjust="spacingAndGlyphs" textLength="74" x="530.5" y="640.6409">attackResult</text><path d="M377,661.4499 L444,661.4499 L444,670.4499 L434,680.4499 L377,680.4499 L377,661.4499 " fill="#EEEEEE" style="stroke: #000000; stroke-width: 1.0;"/><rect fill="none" height="83.118" style="stroke: #000000; stroke-width: 2.0;" width="413.5" x="377" y="661.4499"/><text fill="#000000" font-family="sans-serif" font-size="13" font-weight="bold" lengthAdjust="spacingAndGlyphs" textLength="22" x="392" y="676.3469">opt</text><text fill="#000000" font-family="sans-serif" font-size="11" font-weight="bold" lengthAdjust="spacingAndGlyphs" textLength="128" x="459" y="675.2088">[hp &lt;= phaseTriggerHp]</text><polygon fill="#A80036" points="676.5,700.8619,686.5,704.8619,676.5,708.8619,680.5,704.8619" style="stroke: #A80036; stroke-width: 1.0;"/><line style="stroke: #A80036; stroke-width: 1.0;" x1="441.5" x2="682.5" y1="704.8619" y2="704.8619"/><text fill="#000000" font-family="sans-serif" font-size="13" lengthAdjust="spacingAndGlyphs" textLength="88" x="521" y="699.0529">changePhase()</text><polygon fill="#A80036" points="452.5,732.5679,442.5,736.5679,452.5,740.5679,448.5,736.5679" style="stroke: #A80036; stroke-width: 1.0;"/><line style="stroke: #A80036; stroke-width: 1.0; stroke-dasharray: 2.0,2.0;" x1="446.5" x2="692.5" y1="736.5679" y2="736.5679"/><text fill="#000000" font-family="sans-serif" font-size="13" lengthAdjust="spacingAndGlyphs" textLength="86" x="524.5" y="730.7589">faseAtualizada</text><line style="stroke: #000000; stroke-width: 1.0; stroke-dasharray: 2.0,2.0;" x1="129" x2="810.5" y1="759.5679" y2="759.5679"/><polygon fill="#A80036" points="196.5,780.2739,186.5,784.2739,196.5,788.2739,192.5,784.2739" style="stroke: #A80036; stroke-width: 1.0;"/><line style="stroke: #A80036; stroke-width: 1.0;" x1="190.5" x2="430.5" y1="784.2739" y2="784.2739"/><text fill="#000000" font-family="sans-serif" font-size="13" lengthAdjust="spacingAndGlyphs" textLength="138" x="239.5" y="778.4649">manterEstadoPassivo()</text><rect fill="#EEEEEE" filter="url(#fb41g4axurkdt)" height="3" style="stroke: #EEEEEE; stroke-width: 1.0;" width="993.5" x="3" y="821.127"/><line style="stroke: #000000; stroke-width: 1.0;" x1="3" x2="996.5" y1="821.127" y2="821.127"/><line style="stroke: #000000; stroke-width: 1.0;" x1="3" x2="996.5" y1="824.127" y2="824.127"/><rect fill="#EEEEEE" filter="url(#fb41g4axurkdt)" height="25.706" style="stroke: #000000; stroke-width: 2.0;" width="76" x="461.75" y="809.2739"/><text fill="#000000" font-family="sans-serif" font-size="13" font-weight="bold" lengthAdjust="spacingAndGlyphs" textLength="59" x="467.75" y="827.171">Combate</text><polygon fill="#A80036" points="196.5,864.686,186.5,868.686,196.5,872.686,192.5,868.686" style="stroke: #A80036; stroke-width: 1.0;"/><line style="stroke: #A80036; stroke-width: 1.0;" x1="190.5" x2="819" y1="868.686" y2="868.686"/><text fill="#000000" font-family="sans-serif" font-size="13" lengthAdjust="spacingAndGlyphs" textLength="156" x="424.75" y="862.877">takeDamage(rawDamage)</text><line style="stroke: #A80036; stroke-width: 1.0;" x1="185.5" x2="232.5" y1="895.392" y2="895.392"/><line style="stroke: #A80036; stroke-width: 1.0;" x1="232.5" x2="232.5" y1="895.392" y2="908.392"/><line style="stroke: #A80036; stroke-width: 1.0;" x1="191.5" x2="232.5" y1="908.392" y2="908.392"/><polygon fill="#A80036" points="201.5,904.392,191.5,908.392,201.5,912.392,197.5,908.392" style="stroke: #A80036; stroke-width: 1.0;"/><text fill="#000000" font-family="sans-serif" font-size="13" lengthAdjust="spacingAndGlyphs" textLength="195" x="197.5" y="889.583">calculateResistance(rawDamage)</text><line style="stroke: #A80036; stroke-width: 1.0; stroke-dasharray: 2.0,2.0;" x1="190.5" x2="232.5" y1="950.098" y2="950.098"/><line style="stroke: #A80036; stroke-width: 1.0; stroke-dasharray: 2.0,2.0;" x1="232.5" x2="232.5" y1="950.098" y2="963.098"/><line style="stroke: #A80036; stroke-width: 1.0; stroke-dasharray: 2.0,2.0;" x1="185.5" x2="232.5" y1="963.098" y2="963.098"/><polygon fill="#A80036" points="195.5,959.098,185.5,963.098,195.5,967.098,191.5,963.098" style="stroke: #A80036; stroke-width: 1.0;"/><text fill="#000000" font-family="sans-serif" font-size="13" lengthAdjust="spacingAndGlyphs" textLength="72" x="197.5" y="944.289">danoEfetivo</text><line style="stroke: #A80036; stroke-width: 1.0;" x1="185.5" x2="227.5" y1="989.804" y2="989.804"/><line style="stroke: #A80036; stroke-width: 1.0;" x1="227.5" x2="227.5" y1="989.804" y2="1002.804"/><line style="stroke: #A80036; stroke-width: 1.0;" x1="186.5" x2="227.5" y1="1002.804" y2="1002.804"/><polygon fill="#A80036" points="196.5,998.804,186.5,1002.804,196.5,1006.804,192.5,1002.804" style="stroke: #A80036; stroke-width: 1.0;"/><text fill="#000000" font-family="sans-serif" font-size="13" lengthAdjust="spacingAndGlyphs" textLength="105" x="192.5" y="983.995">hp -= danoEfetivo</text><path d="M139,1017.804 L202,1017.804 L202,1026.804 L192,1036.804 L139,1036.804 L139,1017.804 " fill="#EEEEEE" style="stroke: #000000; stroke-width: 1.0;"/><rect fill="none" height="170.8241" style="stroke: #000000; stroke-width: 2.0;" width="847.5" x="139" y="1017.804"/><text fill="#000000" font-family="sans-serif" font-size="13" font-weight="bold" lengthAdjust="spacingAndGlyphs" textLength="18" x="154" y="1032.701">alt</text><text fill="#000000" font-family="sans-serif" font-size="11" font-weight="bold" lengthAdjust="spacingAndGlyphs" textLength="46" x="217" y="1031.5629">[hp &lt;= 0]</text><line style="stroke: #A80036; stroke-width: 1.0;" x1="185.5" x2="227.5" y1="1061.2161" y2="1061.2161"/><line style="stroke: #A80036; stroke-width: 1.0;" x1="227.5" x2="227.5" y1="1061.2161" y2="1074.2161"/><line style="stroke: #A80036; stroke-width: 1.0;" x1="186.5" x2="227.5" y1="1074.2161" y2="1074.2161"/><polygon fill="#A80036" points="196.5,1070.2161,186.5,1074.2161,196.5,1078.2161,192.5,1074.2161" style="stroke: #A80036; stroke-width: 1.0;"/><text fill="#000000" font-family="sans-serif" font-size="13" lengthAdjust="spacingAndGlyphs" textLength="26" x="192.5" y="1055.4071">die()</text><line style="stroke: #A80036; stroke-width: 1.0;" x1="185.5" x2="227.5" y1="1105.9221" y2="1105.9221"/><line style="stroke: #A80036; stroke-width: 1.0;" x1="227.5" x2="227.5" y1="1105.9221" y2="1118.9221"/><line style="stroke: #A80036; stroke-width: 1.0;" x1="186.5" x2="227.5" y1="1118.9221" y2="1118.9221"/><polygon fill="#A80036" points="196.5,1114.9221,186.5,1118.9221,196.5,1122.9221,192.5,1118.9221" style="stroke: #A80036; stroke-width: 1.0;"/><text fill="#000000" font-family="sans-serif" font-size="13" lengthAdjust="spacingAndGlyphs" textLength="82" x="192.5" y="1100.1131">dropReward()</text><polygon fill="#A80036" points="901,1146.6281,911,1150.6281,901,1154.6281,905,1150.6281" style="stroke: #A80036; stroke-width: 1.0;"/><line style="stroke: #A80036; stroke-width: 1.0;" x1="185.5" x2="907" y1="1150.6281" y2="1150.6281"/><text fill="#000000" font-family="sans-serif" font-size="13" lengthAdjust="spacingAndGlyphs" textLength="92" x="503.25" y="1144.8191">spawnReward()</text><line style="stroke: #A80036; stroke-width: 2.0;" x1="171.5" x2="189.5" y1="1171.6281" y2="1189.6281"/><line style="stroke: #A80036; stroke-width: 2.0;" x1="171.5" x2="189.5" y1="1189.6281" y2="1171.6281"/><!--MD5=[34363bd08c6a19cf7e37280dd96349ad]
@startuml
title Diagrama de Sequência - Comportamento Inimigo

skinparam sequenceMessageAlign center

actor GameLoop
participant Enemy
participant "AIController" as AI
participant "currentPattern: Pattern" as Pattern
participant Player
participant RewardSystem

== Loop de Atualização ==

GameLoop -> Enemy : update(deltaTime)
activate Enemy

Enemy -> AI : update(deltaTime)
activate AI

AI -> AI : detectPlayer(Player)
activate AI
return isDetected

alt isDetected == true
    AI -> AI : calcularDistanciaAte(Player)
    activate AI
    return distancia
    
    alt distancia > attackRange
        AI -> Pattern : chasePlayer(Enemy, Player, deltaTime)
        activate Pattern
        Pattern - -> AI : movementVector
        deactivate Pattern
        
        AI -> Enemy : aplicarMovimento(movementVector)
        
    else distancia <= attackRange
        AI -> Pattern : attackPlayer(Enemy, Player)
        activate Pattern
        Pattern - -> AI : attackResult
        deactivate Pattern
        
        opt hp <= phaseTriggerHp
            AI -> Pattern : changePhase()
            activate Pattern
            Pattern - -> AI : faseAtualizada
            deactivate Pattern
        end
    end
else
    AI -> Enemy : manterEstadoPassivo()
end

deactivate AI
deactivate Enemy

== Combate ==

Player -> Enemy : takeDamage(rawDamage)
activate Enemy

Enemy -> Enemy : calculateResistance(rawDamage)
activate Enemy
return danoEfetivo

Enemy -> Enemy : hp -= danoEfetivo

alt hp <= 0
    Enemy -> Enemy : die()
    Enemy -> Enemy : dropReward()
    
    Enemy -> RewardSystem : spawnReward()
    activate RewardSystem
    deactivate RewardSystem
    
    destroy Enemy
end

deactivate Enemy

@enduml

PlantUML version 1.2020.02(Sun Mar 01 07:22:07 BRT 2020)
(GPL source distribution)
Java Runtime: OpenJDK Runtime Environment
JVM: OpenJDK 64-Bit Server VM
Java Version: 21.0.10+7-Ubuntu-124.04
Operating System: Linux
Default Encoding: UTF-8
Language: en
Country: US
--></g></svg>