<svg xmlns="http://www.w3.org/2000/svg" xmlns:xlink="http://www.w3.org/1999/xlink" contentStyleType="text/css" data-diagram-type="CLASS" height="640px" preserveAspectRatio="none" style="width:1176px;height:640px;background:#FFFFFF;" version="1.1" viewBox="0 0 1176 640" width="1176px" zoomAndPan="magnify"><?plantuml 1.2026.3beta6?><defs/><g><g class="title" data-source-line="1"><text fill="#000000" font-family="sans-serif" font-size="14" font-weight="700" lengthAdjust="spacing" textLength="383.6465" x="392.8181" y="22.9951">Diagrama de Pacotes - Items / Equipment / Stats</text><text fill="#000000" font-family="sans-serif" font-size="14" font-weight="700" lengthAdjust="spacing" textLength="195.043" x="487.1199" y="39.292">US-37, US-38, US-39 - v1</text></g><!--cluster Items--><g class="cluster" data-qualified-name="Items" data-source-line="3" id="ent0002"><path d="M489.5,221.5938 L534.8174,221.5938 A3.75,3.75 0 0 1 537.3174,224.0938 L544.3174,243.8906 L889.5,243.8906 A2.5,2.5 0 0 1 892,246.3906 L892,623.0938 A2.5,2.5 0 0 1 889.5,625.5938 L489.5,625.5938 A2.5,2.5 0 0 1 487,623.0938 L487,224.0938 A2.5,2.5 0 0 1 489.5,221.5938" fill="none" style="stroke:#000000;stroke-width:1.5;"/><line style="stroke:#000000;stroke-width:1.5;" x1="487" x2="544.3174" y1="243.8906" y2="243.8906"/><text fill="#000000" font-family="sans-serif" font-size="14" font-weight="700" lengthAdjust="spacing" textLength="44.3174" x="491" y="236.5889">Items</text></g><!--cluster Equipment--><g class="cluster" data-qualified-name="Equipment" data-source-line="11" id="ent0008"><path d="M8.5,59.5938 L94.6143,59.5938 A3.75,3.75 0 0 1 97.1143,62.0938 L104.1143,81.8906 L317.5,81.8906 A2.5,2.5 0 0 1 320,84.3906 L320,334.0938 A2.5,2.5 0 0 1 317.5,336.5938 L8.5,336.5938 A2.5,2.5 0 0 1 6,334.0938 L6,62.0938 A2.5,2.5 0 0 1 8.5,59.5938" fill="none" style="stroke:#000000;stroke-width:1.5;"/><line style="stroke:#000000;stroke-width:1.5;" x1="6" x2="104.1143" y1="81.8906" y2="81.8906"/><text fill="#000000" font-family="sans-serif" font-size="14" font-weight="700" lengthAdjust="spacing" textLength="85.1143" x="10" y="74.5889">Equipment</text></g><!--cluster Stats--><g class="cluster" data-qualified-name="Stats" data-source-line="17" id="ent0012"><path d="M934.5,385.5938 L976.748,385.5938 A3.75,3.75 0 0 1 979.248,388.0938 L986.248,407.8906 L1108.5,407.8906 A2.5,2.5 0 0 1 1111,410.3906 L1111,623.0938 A2.5,2.5 0 0 1 1108.5,625.5938 L934.5,625.5938 A2.5,2.5 0 0 1 932,623.0938 L932,388.0938 A2.5,2.5 0 0 1 934.5,385.5938" fill="none" style="stroke:#000000;stroke-width:1.5;"/><line style="stroke:#000000;stroke-width:1.5;" x1="932" x2="986.248" y1="407.8906" y2="407.8906"/><text fill="#000000" font-family="sans-serif" font-size="14" font-weight="700" lengthAdjust="spacing" textLength="41.248" x="936" y="400.5889">Stats</text></g><!--class Item--><g class="entity" data-qualified-name="Items.Item" data-source-line="4" id="ent0003"><rect fill="#F1F1F1" height="48" rx="2.5" ry="2.5" style="stroke:#181818;stroke-width:0.5;" width="63.8691" x="641.07" y="428.5938"/><ellipse cx="656.07" cy="444.5938" fill="#A9DCDF" rx="11" ry="11" style="stroke:#181818;stroke-width:1;"/><path d="M656.1794,439.9375 L655.0231,445.0156 L657.3513,445.0156 L656.1794,439.9375 Z M654.695,437.7031 L657.6794,437.7031 L661.0388,450.0938 L658.5856,450.0938 L657.82,447.0313 L654.5388,447.0313 L653.7888,450.0938 L651.3513,450.0938 L654.695,437.7031 Z " fill="#000000"/><text fill="#000000" font-family="sans-serif" font-size="14" font-style="italic" lengthAdjust="spacing" textLength="31.8691" x="670.07" y="449.4404">Item</text><line style="stroke:#181818;stroke-width:0.5;" x1="642.07" x2="703.9391" y1="460.5938" y2="460.5938"/><line style="stroke:#181818;stroke-width:0.5;" x1="642.07" x2="703.9391" y1="468.5938" y2="468.5938"/></g><!--class Weapon--><g class="entity" data-qualified-name="Items.Weapon" data-source-line="5" id="ent0004"><rect fill="#F1F1F1" height="48" rx="2.5" ry="2.5" style="stroke:#181818;stroke-width:0.5;" width="89.3604" x="511.32" y="264.5938"/><ellipse cx="526.32" cy="280.5938" fill="#ADD1B2" rx="11" ry="11" style="stroke:#181818;stroke-width:1;"/><path d="M529.2888,286.2344 Q528.7106,286.5313 528.07,286.6719 Q527.4294,286.8281 526.7263,286.8281 Q524.2263,286.8281 522.8981,285.1875 Q521.5856,283.5313 521.5856,280.4063 Q521.5856,277.2813 522.8981,275.625 Q524.2263,273.9688 526.7263,273.9688 Q527.4294,273.9688 528.07,274.125 Q528.7263,274.2813 529.2888,274.5781 L529.2888,277.2969 Q528.6638,276.7188 528.07,276.4531 Q527.4763,276.1719 526.8513,276.1719 Q525.5075,276.1719 524.82,277.25 Q524.1325,278.3125 524.1325,280.4063 Q524.1325,282.5 524.82,283.5781 Q525.5075,284.6406 526.8513,284.6406 Q527.4763,284.6406 528.07,284.375 Q528.6638,284.0938 529.2888,283.5156 L529.2888,286.2344 Z " fill="#000000"/><text fill="#000000" font-family="sans-serif" font-size="14" lengthAdjust="spacing" textLength="57.3604" x="540.32" y="285.4404">Weapon</text><line style="stroke:#181818;stroke-width:0.5;" x1="512.32" x2="599.6804" y1="296.5938" y2="296.5938"/><line style="stroke:#181818;stroke-width:0.5;" x1="512.32" x2="599.6804" y1="304.5938" y2="304.5938"/></g><!--class Armor--><g class="entity" data-qualified-name="Items.Armor" data-source-line="6" id="ent0005"><rect fill="#F1F1F1" height="48" rx="2.5" ry="2.5" style="stroke:#181818;stroke-width:0.5;" width="75.292" x="635.35" y="264.5938"/><ellipse cx="650.35" cy="280.5938" fill="#ADD1B2" rx="11" ry="11" style="stroke:#181818;stroke-width:1;"/><path d="M653.3188,286.2344 Q652.7406,286.5313 652.1,286.6719 Q651.4594,286.8281 650.7563,286.8281 Q648.2563,286.8281 646.9281,285.1875 Q645.6156,283.5313 645.6156,280.4063 Q645.6156,277.2813 646.9281,275.625 Q648.2563,273.9688 650.7563,273.9688 Q651.4594,273.9688 652.1,274.125 Q652.7563,274.2813 653.3188,274.5781 L653.3188,277.2969 Q652.6938,276.7188 652.1,276.4531 Q651.5063,276.1719 650.8813,276.1719 Q649.5375,276.1719 648.85,277.25 Q648.1625,278.3125 648.1625,280.4063 Q648.1625,282.5 648.85,283.5781 Q649.5375,284.6406 650.8813,284.6406 Q651.5063,284.6406 652.1,284.375 Q652.6938,284.0938 653.3188,283.5156 L653.3188,286.2344 Z " fill="#000000"/><text fill="#000000" font-family="sans-serif" font-size="14" lengthAdjust="spacing" textLength="43.292" x="664.35" y="285.4404">Armor</text><line style="stroke:#181818;stroke-width:0.5;" x1="636.35" x2="709.642" y1="296.5938" y2="296.5938"/><line style="stroke:#181818;stroke-width:0.5;" x1="636.35" x2="709.642" y1="304.5938" y2="304.5938"/></g><!--class Accessory--><g class="entity" data-qualified-name="Items.Accessory" data-source-line="7" id="ent0006"><rect fill="#F1F1F1" height="48" rx="2.5" ry="2.5" style="stroke:#181818;stroke-width:0.5;" width="102.7793" x="745.61" y="264.5938"/><ellipse cx="760.61" cy="280.5938" fill="#ADD1B2" rx="11" ry="11" style="stroke:#181818;stroke-width:1;"/><path d="M763.5788,286.2344 Q763.0006,286.5313 762.36,286.6719 Q761.7194,286.8281 761.0163,286.8281 Q758.5163,286.8281 757.1881,285.1875 Q755.8756,283.5313 755.8756,280.4063 Q755.8756,277.2813 757.1881,275.625 Q758.5163,273.9688 761.0163,273.9688 Q761.7194,273.9688 762.36,274.125 Q763.0163,274.2813 763.5788,274.5781 L763.5788,277.2969 Q762.9538,276.7188 762.36,276.4531 Q761.7663,276.1719 761.1413,276.1719 Q759.7975,276.1719 759.11,277.25 Q758.4225,278.3125 758.4225,280.4063 Q758.4225,282.5 759.11,283.5781 Q759.7975,284.6406 761.1413,284.6406 Q761.7663,284.6406 762.36,284.375 Q762.9538,284.0938 763.5788,283.5156 L763.5788,286.2344 Z " fill="#000000"/><text fill="#000000" font-family="sans-serif" font-size="14" lengthAdjust="spacing" textLength="70.7793" x="774.61" y="285.4404">Accessory</text><line style="stroke:#181818;stroke-width:0.5;" x1="746.61" x2="847.3893" y1="296.5938" y2="296.5938"/><line style="stroke:#181818;stroke-width:0.5;" x1="746.61" x2="847.3893" y1="304.5938" y2="304.5938"/></g><!--class ItemType--><g class="entity" data-qualified-name="Items.ItemType" data-source-line="8" id="ent0007"><rect fill="#F1F1F1" height="48" rx="2.5" ry="2.5" style="stroke:#181818;stroke-width:0.5;" width="98.2061" x="623.9" y="553.5938"/><ellipse cx="638.9" cy="569.5938" fill="#EB937F" rx="11" ry="11" style="stroke:#181818;stroke-width:1;"/><path d="M643.0094,575.5938 L635.2906,575.5938 L635.2906,563.2031 L643.0094,563.2031 L643.0094,565.3594 L637.7438,565.3594 L637.7438,568.0313 L642.5094,568.0313 L642.5094,570.1875 L637.7438,570.1875 L637.7438,573.4375 L643.0094,573.4375 L643.0094,575.5938 Z " fill="#000000"/><text fill="#000000" font-family="sans-serif" font-size="14" lengthAdjust="spacing" textLength="66.2061" x="652.9" y="574.4404">ItemType</text><line style="stroke:#181818;stroke-width:0.5;" x1="624.9" x2="721.1061" y1="585.5938" y2="585.5938"/><line style="stroke:#181818;stroke-width:0.5;" x1="624.9" x2="721.1061" y1="593.5938" y2="593.5938"/></g><!--class EquipmentManager--><g class="entity" data-qualified-name="Equipment.EquipmentManager" data-source-line="12" id="ent0009"><rect fill="#F1F1F1" height="48" rx="2.5" ry="2.5" style="stroke:#181818;stroke-width:0.5;" width="169.3613" x="107.32" y="102.5938"/><ellipse cx="122.32" cy="118.5938" fill="#ADD1B2" rx="11" ry="11" style="stroke:#181818;stroke-width:1;"/><path d="M125.2888,124.2344 Q124.7106,124.5313 124.07,124.6719 Q123.4294,124.8281 122.7263,124.8281 Q120.2263,124.8281 118.8981,123.1875 Q117.5856,121.5313 117.5856,118.4063 Q117.5856,115.2813 118.8981,113.625 Q120.2263,111.9688 122.7263,111.9688 Q123.4294,111.9688 124.07,112.125 Q124.7263,112.2813 125.2888,112.5781 L125.2888,115.2969 Q124.6638,114.7188 124.07,114.4531 Q123.4763,114.1719 122.8513,114.1719 Q121.5075,114.1719 120.82,115.25 Q120.1325,116.3125 120.1325,118.4063 Q120.1325,120.5 120.82,121.5781 Q121.5075,122.6406 122.8513,122.6406 Q123.4763,122.6406 124.07,122.375 Q124.6638,122.0938 125.2888,121.5156 L125.2888,124.2344 Z " fill="#000000"/><text fill="#000000" font-family="sans-serif" font-size="14" lengthAdjust="spacing" textLength="137.3613" x="136.32" y="123.4404">EquipmentManager</text><line style="stroke:#181818;stroke-width:0.5;" x1="108.32" x2="275.6813" y1="134.5938" y2="134.5938"/><line style="stroke:#181818;stroke-width:0.5;" x1="108.32" x2="275.6813" y1="142.5938" y2="142.5938"/></g><!--class EquipmentSlot--><g class="entity" data-qualified-name="Equipment.EquipmentSlot" data-source-line="13" id="ent0010"><rect fill="#F1F1F1" height="48" rx="2.5" ry="2.5" style="stroke:#181818;stroke-width:0.5;" width="134.8262" x="29.59" y="264.5938"/><ellipse cx="44.59" cy="280.5938" fill="#ADD1B2" rx="11" ry="11" style="stroke:#181818;stroke-width:1;"/><path d="M47.5588,286.2344 Q46.9806,286.5313 46.34,286.6719 Q45.6994,286.8281 44.9963,286.8281 Q42.4963,286.8281 41.1681,285.1875 Q39.8556,283.5313 39.8556,280.4063 Q39.8556,277.2813 41.1681,275.625 Q42.4963,273.9688 44.9963,273.9688 Q45.6994,273.9688 46.34,274.125 Q46.9963,274.2813 47.5588,274.5781 L47.5588,277.2969 Q46.9338,276.7188 46.34,276.4531 Q45.7463,276.1719 45.1213,276.1719 Q43.7775,276.1719 43.09,277.25 Q42.4025,278.3125 42.4025,280.4063 Q42.4025,282.5 43.09,283.5781 Q43.7775,284.6406 45.1213,284.6406 Q45.7463,284.6406 46.34,284.375 Q46.9338,284.0938 47.5588,283.5156 L47.5588,286.2344 Z " fill="#000000"/><text fill="#000000" font-family="sans-serif" font-size="14" lengthAdjust="spacing" textLength="102.8262" x="58.59" y="285.4404">EquipmentSlot</text><line style="stroke:#181818;stroke-width:0.5;" x1="30.59" x2="163.4162" y1="296.5938" y2="296.5938"/><line style="stroke:#181818;stroke-width:0.5;" x1="30.59" x2="163.4162" y1="304.5938" y2="304.5938"/></g><!--class Loadout--><g class="entity" data-qualified-name="Equipment.Loadout" data-source-line="14" id="ent0011"><rect fill="#F1F1F1" height="48" rx="2.5" ry="2.5" style="stroke:#181818;stroke-width:0.5;" width="88.7588" x="199.62" y="264.5938"/><ellipse cx="214.62" cy="280.5938" fill="#ADD1B2" rx="11" ry="11" style="stroke:#181818;stroke-width:1;"/><path d="M217.5888,286.2344 Q217.0106,286.5313 216.37,286.6719 Q215.7294,286.8281 215.0263,286.8281 Q212.5263,286.8281 211.1981,285.1875 Q209.8856,283.5313 209.8856,280.4063 Q209.8856,277.2813 211.1981,275.625 Q212.5263,273.9688 215.0263,273.9688 Q215.7294,273.9688 216.37,274.125 Q217.0263,274.2813 217.5888,274.5781 L217.5888,277.2969 Q216.9638,276.7188 216.37,276.4531 Q215.7763,276.1719 215.1513,276.1719 Q213.8075,276.1719 213.12,277.25 Q212.4325,278.3125 212.4325,280.4063 Q212.4325,282.5 213.12,283.5781 Q213.8075,284.6406 215.1513,284.6406 Q215.7763,284.6406 216.37,284.375 Q216.9638,284.0938 217.5888,283.5156 L217.5888,286.2344 Z " fill="#000000"/><text fill="#000000" font-family="sans-serif" font-size="14" lengthAdjust="spacing" textLength="56.7588" x="228.62" y="285.4404">Loadout</text><line style="stroke:#181818;stroke-width:0.5;" x1="200.62" x2="287.3788" y1="296.5938" y2="296.5938"/><line style="stroke:#181818;stroke-width:0.5;" x1="200.62" x2="287.3788" y1="304.5938" y2="304.5938"/></g><!--class PlayerStats--><g class="entity" data-qualified-name="Stats.PlayerStats" data-source-line="18" id="ent0013"><rect fill="#F1F1F1" height="48" rx="2.5" ry="2.5" style="stroke:#181818;stroke-width:0.5;" width="111.3037" x="975.35" y="428.5938"/><ellipse cx="990.35" cy="444.5938" fill="#ADD1B2" rx="11" ry="11" style="stroke:#181818;stroke-width:1;"/><path d="M993.3188,450.2344 Q992.7406,450.5313 992.1,450.6719 Q991.4594,450.8281 990.7563,450.8281 Q988.2563,450.8281 986.9281,449.1875 Q985.6156,447.5313 985.6156,444.4063 Q985.6156,441.2813 986.9281,439.625 Q988.2563,437.9688 990.7563,437.9688 Q991.4594,437.9688 992.1,438.125 Q992.7563,438.2813 993.3188,438.5781 L993.3188,441.2969 Q992.6938,440.7188 992.1,440.4531 Q991.5063,440.1719 990.8813,440.1719 Q989.5375,440.1719 988.85,441.25 Q988.1625,442.3125 988.1625,444.4063 Q988.1625,446.5 988.85,447.5781 Q989.5375,448.6406 990.8813,448.6406 Q991.5063,448.6406 992.1,448.375 Q992.6938,448.0938 993.3188,447.5156 L993.3188,450.2344 Z " fill="#000000"/><text fill="#000000" font-family="sans-serif" font-size="14" lengthAdjust="spacing" textLength="79.3037" x="1004.35" y="449.4404">PlayerStats</text><line style="stroke:#181818;stroke-width:0.5;" x1="976.35" x2="1085.6537" y1="460.5938" y2="460.5938"/><line style="stroke:#181818;stroke-width:0.5;" x1="976.35" x2="1085.6537" y1="468.5938" y2="468.5938"/></g><!--class StatModifier--><g class="entity" data-qualified-name="Stats.StatModifier" data-source-line="19" id="ent0014"><rect fill="#F1F1F1" height="48" rx="2.5" ry="2.5" style="stroke:#181818;stroke-width:0.5;" width="117.0527" x="969.47" y="553.5938"/><ellipse cx="984.47" cy="569.5938" fill="#ADD1B2" rx="11" ry="11" style="stroke:#181818;stroke-width:1;"/><path d="M987.4388,575.2344 Q986.8606,575.5313 986.22,575.6719 Q985.5794,575.8281 984.8763,575.8281 Q982.3763,575.8281 981.0481,574.1875 Q979.7356,572.5313 979.7356,569.4063 Q979.7356,566.2813 981.0481,564.625 Q982.3763,562.9688 984.8763,562.9688 Q985.5794,562.9688 986.22,563.125 Q986.8763,563.2813 987.4388,563.5781 L987.4388,566.2969 Q986.8138,565.7188 986.22,565.4531 Q985.6263,565.1719 985.0013,565.1719 Q983.6575,565.1719 982.97,566.25 Q982.2825,567.3125 982.2825,569.4063 Q982.2825,571.5 982.97,572.5781 Q983.6575,573.6406 985.0013,573.6406 Q985.6263,573.6406 986.22,573.375 Q986.8138,573.0938 987.4388,572.5156 L987.4388,575.2344 Z " fill="#000000"/><text fill="#000000" font-family="sans-serif" font-size="14" lengthAdjust="spacing" textLength="85.0527" x="998.47" y="574.4404">StatModifier</text><line style="stroke:#181818;stroke-width:0.5;" x1="970.47" x2="1085.5227" y1="585.5938" y2="585.5938"/><line style="stroke:#181818;stroke-width:0.5;" x1="970.47" x2="1085.5227" y1="593.5938" y2="593.5938"/></g><!--link Weapon to Item--><g class="link" data-entity-1="ent0004" data-entity-2="ent0003" data-link-type="extension" data-source-line="22" id="lnk15"><path codeLine="22" d="M572.76,312.8038 C594.94,343.5138 623.2808,382.7518 645.5408,413.5718" fill="none" id="Weapon-to-Item" style="stroke:#181818;stroke-width:1;"/><polygon fill="none" points="656.08,428.1638,650.4048,410.0587,640.6768,417.0848,656.08,428.1638" style="stroke:#181818;stroke-width:1;"/></g><!--link Armor to Item--><g class="link" data-entity-1="ent0005" data-entity-2="ent0003" data-link-type="extension" data-source-line="23" id="lnk16"><path codeLine="23" d="M673,312.8038 C673,343.5138 673,379.3438 673,410.1638" fill="none" id="Armor-to-Item" style="stroke:#181818;stroke-width:1;"/><polygon fill="none" points="673,428.1638,679,410.1638,667,410.1638,673,428.1638" style="stroke:#181818;stroke-width:1;"/></g><!--link Accessory to Item--><g class="link" data-entity-1="ent0006" data-entity-2="ent0003" data-link-type="extension" data-source-line="24" id="lnk17"><path codeLine="24" d="M779.23,312.8038 C755.73,343.5138 725.4605,383.0502 701.8705,413.8702" fill="none" id="Accessory-to-Item" style="stroke:#181818;stroke-width:1;"/><polygon fill="none" points="690.93,428.1638,706.635,417.517,697.1059,410.2234,690.93,428.1638" style="stroke:#181818;stroke-width:1;"/></g><!--link Item to ItemType--><g class="link" data-entity-1="ent0003" data-entity-2="ent0007" data-link-type="dependency" data-source-line="26" id="lnk18"><path codeLine="26" d="M673,477.0137 C673,498.9038 673,525.3938 673,547.2538" fill="none" id="Item-to-ItemType" style="stroke:#181818;stroke-width:1;"/><polygon fill="#181818" points="673,553.2538,677,544.2538,673,548.2538,669,544.2538,673,553.2538" style="stroke:#181818;stroke-width:1;"/></g><!--link EquipmentManager to Item--><g class="link" data-entity-1="ent0009" data-entity-2="ent0003" data-link-type="dependency" data-source-line="28" id="lnk19"><path codeLine="28" d="M238.95,150.9538 C261.79,164.3037 288.09,182.9138 306,205.5938 C350.84,262.3938 321.79,304.6538 376,352.5938 C453.97,421.5438 575.5136,442.1 634.8236,448.4" fill="none" id="EquipmentManager-to-Item" style="stroke:#181818;stroke-width:1;"/><polygon fill="#181818" points="640.79,449.0338,632.2629,444.1055,635.818,448.5056,631.4178,452.0607,640.79,449.0338" style="stroke:#181818;stroke-width:1;"/><text fill="#000000" font-family="sans-serif" font-size="13" lengthAdjust="spacing" textLength="116.0415" x="377" y="293.1606">equipa/desequipa</text></g><!--link EquipmentManager to EquipmentSlot--><g class="link" data-entity-1="ent0009" data-entity-2="ent0010" data-link-type="dependency" data-source-line="29" id="lnk20"><path codeLine="29" d="M168.59,150.8838 C160.48,159.7138 151.74,170.1638 145,180.5938 C127.54,207.6137 115.4377,236.4187 107.1277,258.8087" fill="none" id="EquipmentManager-to-EquipmentSlot" style="stroke:#181818;stroke-width:1;"/><polygon fill="#181818" points="105.04,264.4338,111.9216,257.388,106.7798,259.7462,104.4216,254.6043,105.04,264.4338" style="stroke:#181818;stroke-width:1;"/><text fill="#000000" font-family="sans-serif" font-size="13" lengthAdjust="spacing" textLength="56.5576" x="146" y="193.6606">gerencia</text></g><!--link EquipmentManager to Loadout--><g class="link" data-entity-1="ent0009" data-entity-2="ent0011" data-link-type="dependency" data-source-line="30" id="lnk21"><path codeLine="30" d="M199.56,150.8637 C209.42,181.1938 224.7161,228.2473 234.5761,258.5973" fill="none" id="EquipmentManager-to-Loadout" style="stroke:#181818;stroke-width:1;"/><polygon fill="#181818" points="236.43,264.3038,237.4535,254.5082,234.8851,259.5484,229.8449,256.9801,236.43,264.3038" style="stroke:#181818;stroke-width:1;"/><text fill="#000000" font-family="sans-serif" font-size="13" lengthAdjust="spacing" textLength="51.2827" x="215" y="193.6606">atualiza</text></g><!--link Item to StatModifier--><g class="link" data-entity-1="ent0003" data-entity-2="ent0014" data-link-type="dependency" data-source-line="32" id="lnk22"><path codeLine="32" d="M705.13,464.7238 C764.78,485.3938 887.7705,528.0097 963.4305,554.2197" fill="none" id="Item-to-StatModifier" style="stroke:#181818;stroke-width:1;"/><polygon fill="#181818" points="969.1,556.1838,961.9052,549.4581,964.3755,554.5471,959.2865,557.0174,969.1,556.1838" style="stroke:#181818;stroke-width:1;"/><text fill="#000000" font-family="sans-serif" font-size="13" lengthAdjust="spacing" textLength="92.8472" x="873" y="519.6606">fornece b&#244;nus</text></g><!--link PlayerStats to StatModifier--><g class="link" data-entity-1="ent0013" data-entity-2="ent0014" data-link-type="dependency" data-source-line="33" id="lnk23"><path codeLine="33" d="M1030.43,477.0137 C1029.89,498.9038 1029.2454,525.3955 1028.7154,547.2555" fill="none" id="PlayerStats-to-StatModifier" style="stroke:#181818;stroke-width:1;"/><polygon fill="#181818" points="1028.57,553.2538,1032.787,544.3533,1028.6912,548.2552,1024.7893,544.1594,1028.57,553.2538" style="stroke:#181818;stroke-width:1;"/><text fill="#000000" font-family="sans-serif" font-size="13" lengthAdjust="spacing" textLength="38.5557" x="1030" y="519.6606">aplica</text></g><!--link EquipmentManager to PlayerStats--><g class="link" data-entity-1="ent0009" data-entity-2="ent0013" data-link-type="dependency" data-source-line="34" id="lnk24"><path codeLine="34" d="M276.71,149.9038 C278.15,150.1438 279.58,150.3737 281,150.5938 C347.32,160.7038 825.97,146.9337 884,180.5938 C895.41,187.2138 894.14,193.7738 900,205.5938 C930.94,267.9438 916.52,293.9438 954,352.5938 C959.75,361.5938 964.05,361.4838 971,369.5938 C987.19,388.4838 1000.3316,406.4958 1011.9416,423.3158" fill="none" id="EquipmentManager-to-PlayerStats" style="stroke:#181818;stroke-width:1;"/><polygon fill="#181818" points="1015.35,428.2537,1013.5294,418.5746,1012.5097,424.1388,1006.9455,423.1192,1015.35,428.2537" style="stroke:#181818;stroke-width:1;"/><text fill="#000000" font-family="sans-serif" font-size="13" lengthAdjust="spacing" textLength="113.75" x="955" y="293.1606">atualiza atributos</text></g><!--link Equipment to Items--><g class="link" data-entity-1="ent0008" data-entity-2="ent0002" data-link-type="dependency" data-source-line="36" id="lnk25"><path codeLine="36" d="M320.7086,127.5412 C320.9779,127.5403 321.253,127.5395 321.5341,127.5387 C322.6581,127.5355 323.8757,127.533 325.1839,127.5315 C327.8002,127.5286 330.7786,127.5297 334.0944,127.5377 C347.3575,127.5698 366.0188,127.7122 388.4977,128.1431 C433.4553,129.005 493.6831,131.0212 556.5363,135.6187 C682.2425,144.8138 818.45,164.3338 864,205.5938 C867.3663,208.6438 870.2105,212.1575 872.6097,215.978 C873.2095,216.9331 873.7815,217.9074 874.3269,218.8984 C874.5996,219.3939 874.8657,219.8936 875.1252,220.3971 C875.255,220.6489 875.3832,220.9016 875.5097,221.1553 C875.573,221.2821 872.9925,238.3197 873.055,238.447" fill="none" id="Equipment-to-Items" style="stroke:#181818;stroke-width:1;stroke-dasharray:7,7;"/><polygon fill="#181818" points="875.6983,243.8334,875.3243,233.9916,873.4956,239.3448,868.1424,237.516,875.6983,243.8334" style="stroke:#181818;stroke-width:1;"/><text fill="#000000" font-family="sans-serif" font-size="13" lengthAdjust="spacing" textLength="22.9785" x="853" y="193.6606">usa</text></g><!--link Equipment to Stats--><g class="link" data-entity-1="ent0008" data-entity-2="ent0012" data-link-type="dependency" data-source-line="37" id="lnk26"><path codeLine="37" d="M320.9056,127.7425 C321.2468,127.7486 321.5973,127.755 321.9571,127.7615 C327.7138,127.8665 335.8423,128.0242 346.0152,128.2457 C366.3609,128.6887 394.8844,129.387 428.9663,130.4297 C497.13,132.515 587.5275,135.9775 679.205,141.5288 C862.56,152.6313 1051.035,172.0888 1077,205.5938 C1117.02,257.2338 1119.95,303.3538 1077,352.5938 C1040.43,394.5137 992.74,330.6738 953,369.5938 C949.8075,372.72 947.1975,376.2916 945.0757,380.1547 C944.5453,381.1205 944.0454,382.1046 943.5745,383.1044 C943.3391,383.6043 943.1109,384.1082 942.8898,384.6158 C942.7792,384.8695 944.9883,379.59 944.8813,379.8456" fill="none" id="Equipment-to-Stats" style="stroke:#181818;stroke-width:1;stroke-dasharray:7,7;"/><polygon fill="#181818" points="942.5634,385.3798,949.7297,378.6237,944.495,380.7679,942.3508,375.5332,942.5634,385.3798" style="stroke:#181818;stroke-width:1;"/><text fill="#000000" font-family="sans-serif" font-size="13" lengthAdjust="spacing" textLength="51.2827" x="1109" y="293.1606">atualiza</text></g><?plantuml-src TLBBJiCm4BpxArOzarQ80z139IGu856fKa5Sk6oTRMMHsC5U8vN7N_47_1YRkAJkwn9xPcTsFQkmuOhWrk3AOurG4inGEwO01TmprG56SFSMJLEJPRdF6JcysATvSN5v1krnbOvhCRoVAzMWViKLmQ1p3-1J0U0Yi4VDe2iCeUihR0BFX8spFRpnjVDRf3M5uFnQ6BAnxgoFwuRKTpQfVr-QbgmzEKKhAdzOc5UEU_R1OUaYx_JjikOzPnMkoNTqpxLewagpD393t2aF5CNN90Nj4kNuFrF6gVOhUB8DgFO3z6KO0xKr79KKqksuU2Ufk8Gdgyq9zMO3eaEEM9aFp9wLfnJ5qdbBcc3n-sDZKDbUZgcngOm-CJMtRYVBnPj5P1UoFS1mEDdyasE80VSg-pt-0000?></g></svg>