<svg xmlns="http://www.w3.org/2000/svg" xmlns:xlink="http://www.w3.org/1999/xlink" contentStyleType="text/css" data-diagram-type="CLASS" height="478px" preserveAspectRatio="none" style="width:1252px;height:478px;background:#FFFFFF;" version="1.1" viewBox="0 0 1252 478" width="1252px" zoomAndPan="magnify"><?plantuml 1.2026.3beta6?><defs/><g><g class="title" data-source-line="1"><text fill="#000000" font-family="sans-serif" font-size="14" font-weight="700" lengthAdjust="spacing" textLength="469.4033" x="387.7983" y="22.9951">Diagrama de Pacotes - Sistema de Equipamentos (Est&#225;tica)</text></g><!--cluster Items--><g class="cluster" data-qualified-name="Items" data-source-line="12" id="ent0002"><rect fill="none" height="291.89" rx="2.5" ry="2.5" style="stroke:#000000;stroke-width:1.5;" width="601" x="386" y="172.2969"/><text fill="#000000" font-family="sans-serif" font-size="14" font-weight="700" lengthAdjust="spacing" textLength="44.3174" x="664.3413" y="187.292">Items</text></g><!--cluster Equipment--><g class="cluster" data-qualified-name="Equipment" data-source-line="29" id="ent0012"><rect fill="none" height="243" rx="2.5" ry="2.5" style="stroke:#000000;stroke-width:1.5;" width="339" x="7" y="44.2969"/><text fill="#000000" font-family="sans-serif" font-size="14" font-weight="700" lengthAdjust="spacing" textLength="85.1143" x="133.9429" y="59.292">Equipment</text></g><!--cluster Stats--><g class="cluster" data-qualified-name="Stats" data-source-line="38" id="ent0018"><rect fill="none" height="267.44" rx="2.5" ry="2.5" style="stroke:#000000;stroke-width:1.5;" width="204" x="1027" y="172.2969"/><text fill="#000000" font-family="sans-serif" font-size="14" font-weight="700" lengthAdjust="spacing" textLength="41.248" x="1108.376" y="187.292">Stats</text></g><!--class Item--><g class="entity" data-qualified-name="Items.Item" data-source-line="13" id="ent0003"><rect fill="#F1F1F1" height="48" rx="2.5" ry="2.5" style="stroke:#181818;stroke-width:0.5;" width="63.8691" x="639.07" y="215.2969"/><ellipse cx="654.07" cy="231.2969" fill="#ADD1B2" rx="11" ry="11" style="stroke:#181818;stroke-width:1;"/><path d="M657.0388,236.9375 Q656.4606,237.2344 655.82,237.375 Q655.1794,237.5313 654.4763,237.5313 Q651.9763,237.5313 650.6481,235.8906 Q649.3356,234.2344 649.3356,231.1094 Q649.3356,227.9844 650.6481,226.3281 Q651.9763,224.6719 654.4763,224.6719 Q655.1794,224.6719 655.82,224.8281 Q656.4763,224.9844 657.0388,225.2813 L657.0388,228 Q656.4138,227.4219 655.82,227.1563 Q655.2263,226.875 654.6013,226.875 Q653.2575,226.875 652.57,227.9531 Q651.8825,229.0156 651.8825,231.1094 Q651.8825,233.2031 652.57,234.2813 Q653.2575,235.3438 654.6013,235.3438 Q655.2263,235.3438 655.82,235.0781 Q656.4138,234.7969 657.0388,234.2188 L657.0388,236.9375 Z " fill="#000000"/><text fill="#000000" font-family="sans-serif" font-size="14" lengthAdjust="spacing" textLength="31.8691" x="668.07" y="236.1436">Item</text><line style="stroke:#181818;stroke-width:0.5;" x1="640.07" x2="701.9391" y1="247.2969" y2="247.2969"/><line style="stroke:#181818;stroke-width:0.5;" x1="640.07" x2="701.9391" y1="255.2969" y2="255.2969"/></g><!--class Weapon--><g class="entity" data-qualified-name="Items.Weapon" data-source-line="14" id="ent0004"><rect fill="#F1F1F1" height="48" rx="2.5" ry="2.5" style="stroke:#181818;stroke-width:0.5;" width="89.3604" x="410.32" y="367.7369"/><ellipse cx="425.32" cy="383.7369" fill="#ADD1B2" rx="11" ry="11" style="stroke:#181818;stroke-width:1;"/><path d="M428.2888,389.3775 Q427.7106,389.6744 427.07,389.815 Q426.4294,389.9713 425.7263,389.9713 Q423.2263,389.9713 421.8981,388.3306 Q420.5856,386.6744 420.5856,383.5494 Q420.5856,380.4244 421.8981,378.7681 Q423.2263,377.1119 425.7263,377.1119 Q426.4294,377.1119 427.07,377.2681 Q427.7263,377.4244 428.2888,377.7213 L428.2888,380.44 Q427.6638,379.8619 427.07,379.5963 Q426.4763,379.315 425.8513,379.315 Q424.5075,379.315 423.82,380.3931 Q423.1325,381.4556 423.1325,383.5494 Q423.1325,385.6431 423.82,386.7213 Q424.5075,387.7838 425.8513,387.7838 Q426.4763,387.7838 427.07,387.5181 Q427.6638,387.2369 428.2888,386.6588 L428.2888,389.3775 Z " fill="#000000"/><text fill="#000000" font-family="sans-serif" font-size="14" lengthAdjust="spacing" textLength="57.3604" x="439.32" y="388.5836">Weapon</text><line style="stroke:#181818;stroke-width:0.5;" x1="411.32" x2="498.6804" y1="399.7369" y2="399.7369"/><line style="stroke:#181818;stroke-width:0.5;" x1="411.32" x2="498.6804" y1="407.7369" y2="407.7369"/></g><!--class Armor--><g class="entity" data-qualified-name="Items.Armor" data-source-line="15" id="ent0005"><rect fill="#F1F1F1" height="48" rx="2.5" ry="2.5" style="stroke:#181818;stroke-width:0.5;" width="75.292" x="559.35" y="367.7369"/><ellipse cx="574.35" cy="383.7369" fill="#ADD1B2" rx="11" ry="11" style="stroke:#181818;stroke-width:1;"/><path d="M577.3188,389.3775 Q576.7406,389.6744 576.1,389.815 Q575.4594,389.9713 574.7563,389.9713 Q572.2563,389.9713 570.9281,388.3306 Q569.6156,386.6744 569.6156,383.5494 Q569.6156,380.4244 570.9281,378.7681 Q572.2563,377.1119 574.7563,377.1119 Q575.4594,377.1119 576.1,377.2681 Q576.7563,377.4244 577.3188,377.7213 L577.3188,380.44 Q576.6938,379.8619 576.1,379.5963 Q575.5063,379.315 574.8813,379.315 Q573.5375,379.315 572.85,380.3931 Q572.1625,381.4556 572.1625,383.5494 Q572.1625,385.6431 572.85,386.7213 Q573.5375,387.7838 574.8813,387.7838 Q575.5063,387.7838 576.1,387.5181 Q576.6938,387.2369 577.3188,386.6588 L577.3188,389.3775 Z " fill="#000000"/><text fill="#000000" font-family="sans-serif" font-size="14" lengthAdjust="spacing" textLength="43.292" x="588.35" y="388.5836">Armor</text><line style="stroke:#181818;stroke-width:0.5;" x1="560.35" x2="633.642" y1="399.7369" y2="399.7369"/><line style="stroke:#181818;stroke-width:0.5;" x1="560.35" x2="633.642" y1="407.7369" y2="407.7369"/></g><!--class Accessory--><g class="entity" data-qualified-name="Items.Accessory" data-source-line="16" id="ent0006"><rect fill="#F1F1F1" height="48" rx="2.5" ry="2.5" style="stroke:#181818;stroke-width:0.5;" width="102.7793" x="694.61" y="367.7369"/><ellipse cx="709.61" cy="383.7369" fill="#ADD1B2" rx="11" ry="11" style="stroke:#181818;stroke-width:1;"/><path d="M712.5788,389.3775 Q712.0006,389.6744 711.36,389.815 Q710.7194,389.9713 710.0163,389.9713 Q707.5163,389.9713 706.1881,388.3306 Q704.8756,386.6744 704.8756,383.5494 Q704.8756,380.4244 706.1881,378.7681 Q707.5163,377.1119 710.0163,377.1119 Q710.7194,377.1119 711.36,377.2681 Q712.0163,377.4244 712.5788,377.7213 L712.5788,380.44 Q711.9538,379.8619 711.36,379.5963 Q710.7663,379.315 710.1413,379.315 Q708.7975,379.315 708.11,380.3931 Q707.4225,381.4556 707.4225,383.5494 Q707.4225,385.6431 708.11,386.7213 Q708.7975,387.7838 710.1413,387.7838 Q710.7663,387.7838 711.36,387.5181 Q711.9538,387.2369 712.5788,386.6588 L712.5788,389.3775 Z " fill="#000000"/><text fill="#000000" font-family="sans-serif" font-size="14" lengthAdjust="spacing" textLength="70.7793" x="723.61" y="388.5836">Accessory</text><line style="stroke:#181818;stroke-width:0.5;" x1="695.61" x2="796.3893" y1="399.7369" y2="399.7369"/><line style="stroke:#181818;stroke-width:0.5;" x1="695.61" x2="796.3893" y1="407.7369" y2="407.7369"/></g><!--class ItemType--><g class="entity" data-qualified-name="Items.ItemType" data-source-line="17" id="ent0007"><rect fill="#F1F1F1" height="96.8906" rx="2.5" ry="2.5" style="stroke:#181818;stroke-width:0.5;" width="98.2061" x="856.9" y="343.2969"/><ellipse cx="871.9" cy="359.2969" fill="#EB937F" rx="11" ry="11" style="stroke:#181818;stroke-width:1;"/><path d="M876.0094,365.2969 L868.2906,365.2969 L868.2906,352.9063 L876.0094,352.9063 L876.0094,355.0625 L870.7438,355.0625 L870.7438,357.7344 L875.5094,357.7344 L875.5094,359.8906 L870.7438,359.8906 L870.7438,363.1406 L876.0094,363.1406 L876.0094,365.2969 Z " fill="#000000"/><text fill="#000000" font-family="sans-serif" font-size="14" lengthAdjust="spacing" textLength="66.2061" x="885.9" y="364.1436">ItemType</text><line style="stroke:#181818;stroke-width:0.5;" x1="857.9" x2="954.1061" y1="375.2969" y2="375.2969"/><text fill="#000000" font-family="sans-serif" font-size="14" lengthAdjust="spacing" textLength="62.2002" x="862.9" y="392.292">WEAPON</text><text fill="#000000" font-family="sans-serif" font-size="14" lengthAdjust="spacing" textLength="52.1309" x="862.9" y="408.5889">ARMOR</text><text fill="#000000" font-family="sans-serif" font-size="14" lengthAdjust="spacing" textLength="85.0459" x="862.9" y="424.8857">ACCESSORY</text><line style="stroke:#181818;stroke-width:0.5;" x1="857.9" x2="954.1061" y1="432.1875" y2="432.1875"/></g><!--class EquipmentManager--><g class="entity" data-qualified-name="Equipment.EquipmentManager" data-source-line="30" id="ent0013"><rect fill="#F1F1F1" height="48" rx="2.5" ry="2.5" style="stroke:#181818;stroke-width:0.5;" width="169.3613" x="69.32" y="87.2969"/><ellipse cx="84.32" cy="103.2969" fill="#ADD1B2" rx="11" ry="11" style="stroke:#181818;stroke-width:1;"/><path d="M87.2888,108.9375 Q86.7106,109.2344 86.07,109.375 Q85.4294,109.5313 84.7263,109.5313 Q82.2263,109.5313 80.8981,107.8906 Q79.5856,106.2344 79.5856,103.1094 Q79.5856,99.9844 80.8981,98.3281 Q82.2263,96.6719 84.7263,96.6719 Q85.4294,96.6719 86.07,96.8281 Q86.7263,96.9844 87.2888,97.2813 L87.2888,100 Q86.6638,99.4219 86.07,99.1563 Q85.4763,98.875 84.8513,98.875 Q83.5075,98.875 82.82,99.9531 Q82.1325,101.0156 82.1325,103.1094 Q82.1325,105.2031 82.82,106.2813 Q83.5075,107.3438 84.8513,107.3438 Q85.4763,107.3438 86.07,107.0781 Q86.6638,106.7969 87.2888,106.2188 L87.2888,108.9375 Z " fill="#000000"/><text fill="#000000" font-family="sans-serif" font-size="14" lengthAdjust="spacing" textLength="137.3613" x="98.32" y="108.1436">EquipmentManager</text><line style="stroke:#181818;stroke-width:0.5;" x1="70.32" x2="237.6813" y1="119.2969" y2="119.2969"/><line style="stroke:#181818;stroke-width:0.5;" x1="70.32" x2="237.6813" y1="127.2969" y2="127.2969"/></g><!--class EquipmentSlot--><g class="entity" data-qualified-name="Equipment.EquipmentSlot" data-source-line="31" id="ent0014"><rect fill="#F1F1F1" height="48" rx="2.5" ry="2.5" style="stroke:#181818;stroke-width:0.5;" width="134.8262" x="30.59" y="215.2969"/><ellipse cx="45.59" cy="231.2969" fill="#ADD1B2" rx="11" ry="11" style="stroke:#181818;stroke-width:1;"/><path d="M48.5588,236.9375 Q47.9806,237.2344 47.34,237.375 Q46.6994,237.5313 45.9963,237.5313 Q43.4963,237.5313 42.1681,235.8906 Q40.8556,234.2344 40.8556,231.1094 Q40.8556,227.9844 42.1681,226.3281 Q43.4963,224.6719 45.9963,224.6719 Q46.6994,224.6719 47.34,224.8281 Q47.9963,224.9844 48.5588,225.2813 L48.5588,228 Q47.9338,227.4219 47.34,227.1563 Q46.7463,226.875 46.1213,226.875 Q44.7775,226.875 44.09,227.9531 Q43.4025,229.0156 43.4025,231.1094 Q43.4025,233.2031 44.09,234.2813 Q44.7775,235.3438 46.1213,235.3438 Q46.7463,235.3438 47.34,235.0781 Q47.9338,234.7969 48.5588,234.2188 L48.5588,236.9375 Z " fill="#000000"/><text fill="#000000" font-family="sans-serif" font-size="14" lengthAdjust="spacing" textLength="102.8262" x="59.59" y="236.1436">EquipmentSlot</text><line style="stroke:#181818;stroke-width:0.5;" x1="31.59" x2="164.4162" y1="247.2969" y2="247.2969"/><line style="stroke:#181818;stroke-width:0.5;" x1="31.59" x2="164.4162" y1="255.2969" y2="255.2969"/></g><!--class Loadout--><g class="entity" data-qualified-name="Equipment.Loadout" data-source-line="32" id="ent0015"><rect fill="#F1F1F1" height="48" rx="2.5" ry="2.5" style="stroke:#181818;stroke-width:0.5;" width="88.7588" x="225.62" y="215.2969"/><ellipse cx="240.62" cy="231.2969" fill="#ADD1B2" rx="11" ry="11" style="stroke:#181818;stroke-width:1;"/><path d="M243.5888,236.9375 Q243.0106,237.2344 242.37,237.375 Q241.7294,237.5313 241.0263,237.5313 Q238.5263,237.5313 237.1981,235.8906 Q235.8856,234.2344 235.8856,231.1094 Q235.8856,227.9844 237.1981,226.3281 Q238.5263,224.6719 241.0263,224.6719 Q241.7294,224.6719 242.37,224.8281 Q243.0263,224.9844 243.5888,225.2813 L243.5888,228 Q242.9638,227.4219 242.37,227.1563 Q241.7763,226.875 241.1513,226.875 Q239.8075,226.875 239.12,227.9531 Q238.4325,229.0156 238.4325,231.1094 Q238.4325,233.2031 239.12,234.2813 Q239.8075,235.3438 241.1513,235.3438 Q241.7763,235.3438 242.37,235.0781 Q242.9638,234.7969 243.5888,234.2188 L243.5888,236.9375 Z " fill="#000000"/><text fill="#000000" font-family="sans-serif" font-size="14" lengthAdjust="spacing" textLength="56.7588" x="254.62" y="236.1436">Loadout</text><line style="stroke:#181818;stroke-width:0.5;" x1="226.62" x2="313.3788" y1="247.2969" y2="247.2969"/><line style="stroke:#181818;stroke-width:0.5;" x1="226.62" x2="313.3788" y1="255.2969" y2="255.2969"/></g><!--class PlayerStats--><g class="entity" data-qualified-name="Stats.PlayerStats" data-source-line="39" id="ent0019"><rect fill="#F1F1F1" height="48" rx="2.5" ry="2.5" style="stroke:#181818;stroke-width:0.5;" width="111.3037" x="1051.35" y="215.2969"/><ellipse cx="1066.35" cy="231.2969" fill="#ADD1B2" rx="11" ry="11" style="stroke:#181818;stroke-width:1;"/><path d="M1069.3188,236.9375 Q1068.7406,237.2344 1068.1,237.375 Q1067.4594,237.5313 1066.7563,237.5313 Q1064.2563,237.5313 1062.9281,235.8906 Q1061.6156,234.2344 1061.6156,231.1094 Q1061.6156,227.9844 1062.9281,226.3281 Q1064.2563,224.6719 1066.7563,224.6719 Q1067.4594,224.6719 1068.1,224.8281 Q1068.7563,224.9844 1069.3188,225.2813 L1069.3188,228 Q1068.6938,227.4219 1068.1,227.1563 Q1067.5063,226.875 1066.8813,226.875 Q1065.5375,226.875 1064.85,227.9531 Q1064.1625,229.0156 1064.1625,231.1094 Q1064.1625,233.2031 1064.85,234.2813 Q1065.5375,235.3438 1066.8813,235.3438 Q1067.5063,235.3438 1068.1,235.0781 Q1068.6938,234.7969 1069.3188,234.2188 L1069.3188,236.9375 Z " fill="#000000"/><text fill="#000000" font-family="sans-serif" font-size="14" lengthAdjust="spacing" textLength="79.3037" x="1080.35" y="236.1436">PlayerStats</text><line style="stroke:#181818;stroke-width:0.5;" x1="1052.35" x2="1161.6537" y1="247.2969" y2="247.2969"/><line style="stroke:#181818;stroke-width:0.5;" x1="1052.35" x2="1161.6537" y1="255.2969" y2="255.2969"/></g><!--class StatModifier--><g class="entity" data-qualified-name="Stats.StatModifier" data-source-line="40" id="ent0020"><rect fill="#F1F1F1" height="48" rx="2.5" ry="2.5" style="stroke:#181818;stroke-width:0.5;" width="117.0527" x="1051.47" y="367.7369"/><ellipse cx="1066.47" cy="383.7369" fill="#ADD1B2" rx="11" ry="11" style="stroke:#181818;stroke-width:1;"/><path d="M1069.4388,389.3775 Q1068.8606,389.6744 1068.22,389.815 Q1067.5794,389.9713 1066.8763,389.9713 Q1064.3763,389.9713 1063.0481,388.3306 Q1061.7356,386.6744 1061.7356,383.5494 Q1061.7356,380.4244 1063.0481,378.7681 Q1064.3763,377.1119 1066.8763,377.1119 Q1067.5794,377.1119 1068.22,377.2681 Q1068.8763,377.4244 1069.4388,377.7213 L1069.4388,380.44 Q1068.8138,379.8619 1068.22,379.5963 Q1067.6263,379.315 1067.0013,379.315 Q1065.6575,379.315 1064.97,380.3931 Q1064.2825,381.4556 1064.2825,383.5494 Q1064.2825,385.6431 1064.97,386.7213 Q1065.6575,387.7838 1067.0013,387.7838 Q1067.6263,387.7838 1068.22,387.5181 Q1068.8138,387.2369 1069.4388,386.6588 L1069.4388,389.3775 Z " fill="#000000"/><text fill="#000000" font-family="sans-serif" font-size="14" lengthAdjust="spacing" textLength="85.0527" x="1080.47" y="388.5836">StatModifier</text><line style="stroke:#181818;stroke-width:0.5;" x1="1052.47" x2="1167.5227" y1="399.7369" y2="399.7369"/><line style="stroke:#181818;stroke-width:0.5;" x1="1052.47" x2="1167.5227" y1="407.7369" y2="407.7369"/></g><!--reverse link Item to Weapon--><g class="link" data-entity-1="ent0003" data-entity-2="ent0004" data-link-type="extension" data-source-line="23" id="lnk8"><path codeLine="23" d="M620.66,240.1869 C560.41,240.1869 455,240.1869 455,240.1869 C455,240.1869 455,324.5469 455,367.3869" fill="none" id="Item-backto-Weapon" style="stroke:#181818;stroke-width:1;"/><polygon fill="none" points="638.66,240.1869,620.66,234.1869,620.66,246.1869,638.66,240.1869" style="stroke:#181818;stroke-width:1;"/></g><!--reverse link Item to Armor--><g class="link" data-entity-1="ent0003" data-entity-2="ent0005" data-link-type="extension" data-source-line="24" id="lnk9"><path codeLine="24" d="M666.84,281.5269 C666.84,324.6369 666.84,392.1869 666.84,392.1869 C666.84,392.1869 651.24,392.1869 634.78,392.1869" fill="none" id="Item-backto-Armor" style="stroke:#181818;stroke-width:1;"/><polygon fill="none" points="666.84,263.5269,660.84,281.5269,672.84,281.5269,666.84,263.5269" style="stroke:#181818;stroke-width:1;"/></g><!--reverse link Item to Accessory--><g class="link" data-entity-1="ent0003" data-entity-2="ent0006" data-link-type="extension" data-source-line="25" id="lnk10"><path codeLine="25" d="M697.39,281.7869 C697.39,310.2369 697.39,338.8869 697.39,367.3069" fill="none" id="Item-backto-Accessory" style="stroke:#181818;stroke-width:1;"/><polygon fill="none" points="697.39,263.7869,691.39,281.7869,703.39,281.7869,697.39,263.7869" style="stroke:#181818;stroke-width:1;"/></g><!--link Item to ItemType--><g class="link" data-entity-1="ent0003" data-entity-2="ent0007" data-link-type="dependency" data-source-line="26" id="lnk11"><path codeLine="26" d="M700.16,263.5169 C700.16,297.7569 700.16,356.1869 700.16,356.1869 C700.16,356.1869 789.53,356.1869 850.43,356.1869" fill="none" id="Item-to-ItemType" style="stroke:#181818;stroke-width:1;"/><polygon fill="#181818" points="856.43,356.1869,847.43,352.1869,851.43,356.1869,847.43,360.1869,856.43,356.1869" style="stroke:#181818;stroke-width:1;"/><text fill="#000000" font-family="sans-serif" font-size="13" lengthAdjust="spacing" textLength="8.271" x="698.3247" y="283.3317">1</text><text fill="#000000" font-family="sans-serif" font-size="13" lengthAdjust="spacing" textLength="8.271" x="840.5814" y="346.9398">1</text></g><!--reverse link EquipmentManager to EquipmentSlot--><g class="link" data-entity-1="ent0013" data-entity-2="ent0014" data-link-type="composition" data-source-line="34" id="lnk16"><path codeLine="34" d="M117.37,147.6769 C117.37,170.4469 117.37,192.2669 117.37,215.0069" fill="none" id="EquipmentManager-backto-EquipmentSlot" style="stroke:#181818;stroke-width:1;"/><polygon fill="#181818" points="117.37,135.6769,113.37,141.6769,117.37,147.6769,121.37,141.6769,117.37,135.6769" style="stroke:#181818;stroke-width:1;"/><text fill="#000000" font-family="sans-serif" font-size="13" lengthAdjust="spacing" textLength="8.271" x="99.4993" y="155.5307">1</text><text fill="#000000" font-family="sans-serif" font-size="13" lengthAdjust="spacing" textLength="36.5625" x="81.7717" y="204.3411">many</text></g><!--reverse link EquipmentManager to Loadout--><g class="link" data-entity-1="ent0013" data-entity-2="ent0015" data-link-type="aggregation" data-source-line="35" id="lnk17"><path codeLine="35" d="M232.15,147.6769 C232.15,170.4469 232.15,192.2669 232.15,215.0069" fill="none" id="EquipmentManager-backto-Loadout" style="stroke:#181818;stroke-width:1;"/><polygon fill="none" points="232.15,135.6769,228.15,141.6769,232.15,147.6769,236.15,141.6769,232.15,135.6769" style="stroke:#181818;stroke-width:1;"/><text fill="#000000" font-family="sans-serif" font-size="13" lengthAdjust="spacing" textLength="8.271" x="242.2569" y="155.5307">1</text><text fill="#000000" font-family="sans-serif" font-size="13" lengthAdjust="spacing" textLength="8.271" x="213.9822" y="204.3411">1</text></g><!--reverse link PlayerStats to StatModifier--><g class="link" data-entity-1="ent0019" data-entity-2="ent0020" data-link-type="composition" data-source-line="42" id="lnk21"><path codeLine="42" d="M1107.06,275.7869 C1107.06,304.2369 1107.06,338.8869 1107.06,367.3069" fill="none" id="PlayerStats-backto-StatModifier" style="stroke:#181818;stroke-width:1;"/><polygon fill="#181818" points="1107.06,263.7869,1103.06,269.7869,1107.06,275.7869,1111.06,269.7869,1107.06,263.7869" style="stroke:#181818;stroke-width:1;"/><text fill="#000000" font-family="sans-serif" font-size="13" lengthAdjust="spacing" textLength="8.271" x="1098.1798" y="283.2668">1</text><text fill="#000000" font-family="sans-serif" font-size="13" lengthAdjust="spacing" textLength="36.5625" x="1066.0253" y="356.607">many</text></g><!--link Equipment to Items--><g class="link" data-entity-1="ent0012" data-entity-2="ent0002" data-link-type="dependency" data-source-line="48" id="lnk22"><path codeLine="48" d="M346.9423,112.1869 C352.1056,112.1869 359.3897,112.1869 368.4887,112.1869 C386.6868,112.1869 412.1448,112.1869 442.4172,112.1869 C502.9619,112.1869 582.7638,112.1869 662.2575,112.1869 C821.245,112.1869 979,112.1869 979,112.1869 C979,112.1869 979,141.0544 979,171.2756 C979,171.5117 979,165.7479 979,165.9842" fill="none" id="Equipment-to-Items" style="stroke:#181818;stroke-width:1;stroke-dasharray:7,7;"/><polygon fill="#181818" points="979,171.9842,983,162.9842,979,166.9842,975,162.9842,979,171.9842" style="stroke:#181818;stroke-width:1;"/><text fill="#000000" font-family="sans-serif" font-size="13" lengthAdjust="spacing" textLength="38.9175" x="682.71" y="108.2538">&#171;use&#187;</text></g><!--link Equipment to Stats--><g class="link" data-entity-1="ent0012" data-entity-2="ent0018" data-link-type="dependency" data-source-line="51" id="lnk23"><path codeLine="51" d="M346.7592,124.1869 C347.1405,124.1869 347.5338,124.1869 347.939,124.1869 C354.4209,124.1869 363.9277,124.1869 376.0273,124.1869 C400.2266,124.1869 434.7969,124.1869 476.2813,124.1869 C559.25,124.1869 669.875,124.1869 780.5,124.1869 C1001.75,124.1869 1223,124.1869 1223,124.1869 C1223,124.1869 1223,130.7225 1223,140.6791 C1223,145.6573 1223,151.4909 1223,157.7903 C1223,160.94 1223,164.2062 1223,167.5402 C1223,168.3736 1223,169.2114 1223,170.0526 C1223,170.4732 1223,170.8947 1223,171.3169 C1223,171.5281 1223,165.7394 1223,165.9509" fill="none" id="Equipment-to-Stats" style="stroke:#181818;stroke-width:1;stroke-dasharray:7,7;"/><polygon fill="#181818" points="1223,171.9509,1227,162.9509,1223,166.9509,1219,162.9509,1223,171.9509" style="stroke:#181818;stroke-width:1;"/><text fill="#000000" font-family="sans-serif" font-size="13" lengthAdjust="spacing" textLength="61.7119" x="769.66" y="120.2538">&#171;update&#187;</text></g><?plantuml-src TLDDYzim4BtxLmo-R5l8ihsKKa8WP7DOQ9eG5vOUP-s9LyIMl1gPOjhycD93eUVs5_YFTQHyM0cf3pBpHlFqdaRZbAi8xXMM5ck4Wc25kN74C89CiQCzE7zfLOCrQMSONitPzJ-Sol5rajp0Q3I2cT4RLROM-r_zNods9UnKPNmsuQtI3Se1K2bDhci8Z7NF9afeKn1J0-_k8j2YtdhmVGpoCnRcgz8bRB1YYZ8DvbiiANETMBAKEzHbHKU9zxHHMec-dmOASN7oAGAJGoca3-AOK_YMW7nvXSpWeIXy96oCZe2fhOsDupmdPcExW95kwq3nsTlUy_hlSJvTBJ-TmkbwiLmFqMmspxBb-aj0Tc4DYoU2yNUn4yaOm45AX9t92NZwDXNRa_0_IajsqIs4Tljkdz_42LwWbdtsMYghZ8lmZqQwrRh1mIL74F56TAOrwYwzGdIrmlWA-H_vO_MPGtVHmrM57TcGY50VBqoXDkhW9IpHtajnPmMxuMKrf8l-jyuLiZJSMJf_NJU31vaClvdyX8It1lxj0kEJ63FmqXAGdovWsMM0mjmL9Xa8RcydXyeFC1wtJ9F9Vq_OcmWdO5F9mCeP34_z7zro60BbIFC5-Ruea3S5Ek7_1m00?></g></svg>