<svg xmlns="http://www.w3.org/2000/svg" xmlns:xlink="http://www.w3.org/1999/xlink" contentStyleType="text/css" data-diagram-type="STATE" height="458px" preserveAspectRatio="none" style="width:563px;height:458px;background:#FFFFFF;" version="1.1" viewBox="0 0 563 458" width="563px" zoomAndPan="magnify"><?plantuml 1.2026.3beta6?><defs/><g><g class="title" data-source-line="1"><text fill="#000000" font-family="sans-serif" font-size="14" font-weight="700" lengthAdjust="spacing" textLength="359.6523" x="98.2867" y="22.9951">Diagrama de Estados - Fluxo do Equipamento</text><text fill="#000000" font-family="sans-serif" font-size="14" font-weight="700" lengthAdjust="spacing" textLength="195.043" x="180.5914" y="39.292">US-37, US-38, US-39 - v1</text></g><g class="entity" data-qualified-name="Desequipado" id="ent0002"><rect fill="#F1F1F1" height="50" rx="12.5" ry="12.5" style="stroke:#181818;stroke-width:0.5;" width="111.8682" x="225.51" y="140.5938"/><line style="stroke:#181818;stroke-width:0.5;" x1="225.51" x2="337.3782" y1="166.8906" y2="166.8906"/><text fill="#000000" font-family="sans-serif" font-size="14" lengthAdjust="spacing" textLength="91.8682" x="235.51" y="158.5889">Desequipado</text></g><g class="entity" data-qualified-name="Equipado" id="ent0003"><rect fill="#F1F1F1" height="50" rx="12.5" ry="12.5" style="stroke:#181818;stroke-width:0.5;" width="85.4131" x="169.73" y="267.5938"/><line style="stroke:#181818;stroke-width:0.5;" x1="169.73" x2="255.1431" y1="293.8906" y2="293.8906"/><text fill="#000000" font-family="sans-serif" font-size="14" lengthAdjust="spacing" textLength="65.4131" x="179.73" y="285.5889">Equipado</text></g><g class="entity" data-qualified-name="Bloqueado" id="ent0004"><rect fill="#F1F1F1" height="50" rx="12.5" ry="12.5" style="stroke:#181818;stroke-width:0.5;" width="94.4639" x="278.21" y="394.5938"/><line style="stroke:#181818;stroke-width:0.5;" x1="278.21" x2="372.6739" y1="420.8906" y2="420.8906"/><text fill="#000000" font-family="sans-serif" font-size="14" lengthAdjust="spacing" textLength="74.4639" x="288.21" y="412.5889">Bloqueado</text></g><g class="start_entity" data-qualified-name=".start." data-source-line="3" id="ent0002"><ellipse cx="281.44" cy="69.5938" fill="#222222" rx="10" ry="10" style="stroke:#222222;stroke-width:1;"/></g><!--link *start* to Desequipado--><g class="link" data-entity-1="ent0002" data-entity-2="ent0002" data-link-type="dependency" data-source-line="3" id="lnk3"><path d="M281.44,79.9538 C281.44,93.8838 281.44,114.5437 281.44,134.2437" fill="none" id="*start*-to-Desequipado" style="stroke:#181818;stroke-width:1;"/><polygon fill="#181818" points="281.44,140.2437,285.44,131.2437,281.44,135.2437,277.44,131.2437,281.44,140.2437" style="stroke:#181818;stroke-width:1;"/></g><!--link Desequipado to Equipado--><g class="link" data-entity-1="ent0002" data-entity-2="ent0003" data-link-type="dependency" data-source-line="5" id="lnk4"><path d="M225.17,171.3338 C161.85,177.9738 64.88,192.5138 42.44,220.5938 C6,266.1938 101.9366,282.2997 163.4666,288.1097" fill="none" id="Desequipado-to-Equipado" style="stroke:#181818;stroke-width:1;"/><polygon fill="#181818" points="169.44,288.6738,160.8559,283.8454,164.4621,288.2037,160.1038,291.81,169.44,288.6738" style="stroke:#181818;stroke-width:1;"/><text fill="#000000" font-family="sans-serif" font-size="13" lengthAdjust="spacing" textLength="151.9946" x="43.44" y="233.6606">equip(item compat&#237;vel)</text></g><!--link Equipado to Desequipado--><g class="link" data-entity-1="ent0003" data-entity-2="ent0002" data-link-type="dependency" data-source-line="6" id="lnk5"><path d="M217.79,267.2838 C221.51,253.1038 227.29,235.1838 235.44,220.5938 C241.33,210.0538 245.4759,204.1689 253.2559,195.3689" fill="none" id="Equipado-to-Desequipado" style="stroke:#181818;stroke-width:1;"/><polygon fill="#181818" points="257.23,190.8738,248.2721,194.9671,253.9182,194.6197,254.2656,200.2659,257.23,190.8738" style="stroke:#181818;stroke-width:1;"/><text fill="#000000" font-family="sans-serif" font-size="13" lengthAdjust="spacing" textLength="62.9751" x="236.44" y="233.6606">unequip()</text></g><!--link Desequipado to Bloqueado--><g class="link" data-entity-1="ent0002" data-entity-2="ent0004" data-link-type="dependency" data-source-line="8" id="lnk6"><path d="M292.99,190.8438 C296.89,199.9838 300.9,210.5838 303.44,220.5938 C318.98,281.7738 323.3373,350.3575 324.6773,388.1375" fill="none" id="Desequipado-to-Bloqueado" style="stroke:#181818;stroke-width:1;"/><polygon fill="#181818" points="324.89,394.1338,328.5685,384.9976,324.7128,389.1369,320.5735,385.2812,324.89,394.1338" style="stroke:#181818;stroke-width:1;"/><text fill="#000000" font-family="sans-serif" font-size="13" lengthAdjust="spacing" textLength="79.7012" x="321.44" y="297.1606">slotLocked()</text></g><!--link Bloqueado to Desequipado--><g class="link" data-entity-1="ent0004" data-entity-2="ent0002" data-link-type="dependency" data-source-line="11" id="lnk8"><path d="M355.33,394.1938 C387.61,364.7138 431.62,313.3538 409.44,267.5938 C393.14,233.9738 364.7721,211.2388 336.1221,194.1388" fill="none" id="Bloqueado-to-Desequipado" style="stroke:#181818;stroke-width:1;"/><polygon fill="#181818" points="330.97,191.0638,336.6481,199.1111,335.2634,193.6263,340.7482,192.2416,330.97,191.0638" style="stroke:#181818;stroke-width:1;"/><text fill="#000000" font-family="sans-serif" font-size="13" lengthAdjust="spacing" textLength="93.8247" x="417.44" y="297.1606">slotUnlocked()</text></g><!--link Equipado to Bloqueado--><g class="link" data-entity-1="ent0003" data-entity-2="ent0004" data-link-type="dependency" data-source-line="9" id="lnk7"><path d="M208.87,317.9038 C207.99,332.6038 209.3,351.0638 218.44,364.5938 C232.24,385.0338 250.5732,396.0039 272.3232,404.1739" fill="none" id="Equipado-to-Bloqueado" style="stroke:#181818;stroke-width:1;"/><polygon fill="#181818" points="277.94,406.2838,270.9214,399.3744,273.2593,404.5255,268.1082,406.8635,277.94,406.2838" style="stroke:#181818;stroke-width:1;"/><text fill="#000000" font-family="sans-serif" font-size="13" lengthAdjust="spacing" textLength="79.7012" x="219.44" y="360.6606">slotLocked()</text></g><!--link Desequipado to Desequipado--><g class="link" data-entity-1="ent0002" data-entity-2="ent0002" data-link-type="dependency" data-source-line="13" id="lnk9"><path d="M337.83,155.1837 C356.98,155.1338 372.38,158.6038 372.38,165.5938 C372.38,172.5838 362.98,176.0694 343.83,176.0194" fill="none" id="Desequipado-to-Desequipado" style="stroke:#181818;stroke-width:1;"/><polygon fill="#181818" points="337.83,176.0038,346.8195,180.0272,342.83,176.0168,346.8404,172.0273,337.83,176.0038" style="stroke:#181818;stroke-width:1;"/><text fill="#000000" font-family="sans-serif" font-size="13" lengthAdjust="spacing" textLength="163.8457" x="378.38" y="162.6606">equip(item incompat&#237;vel)</text><text fill="#000000" font-family="sans-serif" font-size="13" lengthAdjust="spacing" textLength="75.7974" x="422.4042" y="177.7935">/ exibir erro</text></g><!--link Bloqueado to Bloqueado--><g class="link" data-entity-1="ent0004" data-entity-2="ent0004" data-link-type="dependency" data-source-line="14" id="lnk10"><path d="M372.76,407.7638 C391.74,407.0938 407.67,411.0338 407.67,419.5938 C407.67,428.1538 397.7363,432.3054 378.7563,431.6354" fill="none" id="Bloqueado-to-Bloqueado" style="stroke:#181818;stroke-width:1;"/><polygon fill="#181818" points="372.76,431.4238,381.6133,435.7388,377.7569,431.6001,381.8955,427.7437,372.76,431.4238" style="stroke:#181818;stroke-width:1;"/><text fill="#000000" font-family="sans-serif" font-size="13" lengthAdjust="spacing" textLength="46.4966" x="431.161" y="416.6606">equip()</text><text fill="#000000" font-family="sans-serif" font-size="13" lengthAdjust="spacing" textLength="81.4785" x="413.67" y="431.7935">/ negar a&#231;&#227;o</text></g><?plantuml-src TP4x3i8m38RtdC8ZHLG8CV0O6533n8QOW24q5ef8OqXJn7qOc3X5BqOVFD8Y9ilsz_kF7QUSHeYKE5YH2908F7L2KWeXB7Hs9P04_9ofaqZGEDgQzIeSZdfGXd4T9WLx6J2swUuW36SGOOgLGX9ZNb8r-JkPGbNlA8S9n9ISXCiV5zG1upxlwwUGcLeK_0wUQpfdM6Ef9hUa-8YoqnhtbsBVpgzjIQwD_h1jxoRjxQMClzdMz06lQgyieBNKilIVzjgo51Wy20iYl-Utufp5vpXiNBYky6RwcVK4?></g></svg>