<svg xmlns="http://www.w3.org/2000/svg" xmlns:xlink="http://www.w3.org/1999/xlink" contentStyleType="text/css" data-diagram-type="DESCRIPTION" height="586px" preserveAspectRatio="none" style="width:443px;height:586px;background:#FFFFFF;" version="1.1" viewBox="0 0 443 586" width="443px" zoomAndPan="magnify"><?plantuml 1.2026.3beta6?><defs/><g><g class="title" data-source-line="1"><text fill="#000000" font-family="sans-serif" font-size="14" font-weight="700" lengthAdjust="spacing" textLength="322.6494" x="57.1503" y="22.9951">Diagrama de Caso de Uso - Equipar Itens</text><text fill="#000000" font-family="sans-serif" font-size="14" font-weight="700" lengthAdjust="spacing" textLength="195.043" x="120.9535" y="39.292">US-37, US-38, US-39 - v1</text></g><!--cluster Sistema de Equipamentos--><g class="cluster" data-qualified-name="Sistema de Equipamentos" data-source-line="6" id="ent0003"><rect fill="none" height="512" rx="2.5" ry="2.5" style="stroke:#181818;stroke-width:1;" width="259.58" x="170.37" y="60.5938"/><text fill="#000000" font-family="sans-serif" font-size="14" font-weight="700" lengthAdjust="spacing" textLength="205.2148" x="197.5526" y="75.5889">Sistema de Equipamentos</text></g><!--entity UC1--><g class="entity" data-qualified-name="Sistema de Equipamentos.UC1" data-source-line="7" id="ent0004"><ellipse cx="300.1627" cy="398.5983" fill="#F1F1F1" rx="65.4727" ry="15.4945" style="stroke:#181818;stroke-width:0.5;"/><text fill="#000000" font-family="sans-serif" font-size="14" lengthAdjust="spacing" textLength="94.7188" x="252.8033" y="403.2467">Equipar arma</text></g><!--entity UC2--><g class="entity" data-qualified-name="Sistema de Equipamentos.UC2" data-source-line="8" id="ent0005"><ellipse cx="300.158" cy="467.5974" fill="#F1F1F1" rx="78.368" ry="18.0736" style="stroke:#181818;stroke-width:0.5;"/><text fill="#000000" font-family="sans-serif" font-size="14" lengthAdjust="spacing" textLength="126.8135" x="236.7513" y="472.2458">Equipar armadura</text></g><!--entity UC3--><g class="entity" data-qualified-name="Sistema de Equipamentos.UC3" data-source-line="9" id="ent0006"><ellipse cx="300.1644" cy="538.5966" fill="#F1F1F1" rx="77.3644" ry="17.8729" style="stroke:#181818;stroke-width:0.5;"/><text fill="#000000" font-family="sans-serif" font-size="14" lengthAdjust="spacing" textLength="124.4209" x="237.954" y="543.2451">Equipar acess&#243;rio</text></g><!--entity UC4--><g class="entity" data-qualified-name="Sistema de Equipamentos.UC4" data-source-line="10" id="ent0007"><ellipse cx="300.1625" cy="120.5923" fill="#F1F1F1" rx="113.7925" ry="25.1585" style="stroke:#181818;stroke-width:0.5;"/><text fill="#000000" font-family="sans-serif" font-size="14" lengthAdjust="spacing" textLength="165.874" x="217.2255" y="118.697">Validar compatibilidade</text><text fill="#000000" font-family="sans-serif" font-size="14" lengthAdjust="spacing" textLength="130.5869" x="234.869" y="134.9939">do item com o slot</text></g><!--entity UC5--><g class="entity" data-qualified-name="Sistema de Equipamentos.UC5" data-source-line="11" id="ent0008"><ellipse cx="300.1631" cy="307.597" fill="#F1F1F1" rx="87.1631" ry="24.2233" style="stroke:#181818;stroke-width:0.5;"/><text fill="#000000" font-family="sans-serif" font-size="14" lengthAdjust="spacing" textLength="129.2539" x="235.5362" y="306.7983">Atualizar atributos</text><text fill="#000000" font-family="sans-serif" font-size="14" lengthAdjust="spacing" textLength="75.0313" x="262.6475" y="323.0952">do jogador</text></g><!--entity UC6--><g class="entity" data-qualified-name="Sistema de Equipamentos.UC6" data-source-line="12" id="ent0009"><ellipse cx="300.1605" cy="222.5961" fill="#F1F1F1" rx="101.9905" ry="25.3924" style="stroke:#181818;stroke-width:0.5;"/><text fill="#000000" font-family="sans-serif" font-size="14" lengthAdjust="spacing" textLength="144.0879" x="228.1166" y="220.0362">Exibir mensagem de</text><text fill="#000000" font-family="sans-serif" font-size="14" lengthAdjust="spacing" textLength="126.376" x="236.9726" y="236.3331">item incompat&#237;vel</text></g><!--entity Jogador--><g class="entity" data-qualified-name="Jogador" data-source-line="4" id="ent0002"><ellipse cx="32.6841" cy="467.9438" fill="#F1F1F1" rx="8" ry="8" style="stroke:#181818;stroke-width:0.5;"/><path d="M32.6841,475.9438 L32.6841,502.9438 M19.6841,483.9438 L45.6841,483.9438 M32.6841,502.9438 L19.6841,517.9438 M32.6841,502.9438 L45.6841,517.9438" fill="none" style="stroke:#181818;stroke-width:0.5;"/><text fill="#000000" font-family="sans-serif" font-size="14" lengthAdjust="spacing" textLength="53.3682" x="6" y="532.4389">Jogador</text></g><!--link Jogador to UC1--><g class="link" data-entity-1="ent0002" data-entity-2="ent0004" data-link-type="dependency" data-source-line="15" id="lnk10"><path d="M42.6,459.0338 C50.48,434.5037 64.69,404.6337 89.37,389.5938 C142.6,357.1538 212.5785,370.3214 256.9985,383.8014" fill="none" id="Jogador-to-UC1" style="stroke:#181818;stroke-width:1;"/><polygon fill="#181818" points="262.74,385.5438,255.2894,379.1026,257.9555,384.0918,252.9663,386.7579,262.74,385.5438" style="stroke:#181818;stroke-width:1;"/></g><!--link Jogador to UC2--><g class="link" data-entity-1="ent0002" data-entity-2="ent0005" data-link-type="dependency" data-source-line="16" id="lnk11"><path d="M59.62,494.6638 C98.5,490.2738 167.308,482.498 223.018,476.198" fill="none" id="Jogador-to-UC2" style="stroke:#181818;stroke-width:1;"/><polygon fill="#181818" points="228.98,475.5238,219.5875,472.5604,224.0117,476.0856,220.4865,480.5097,228.98,475.5238" style="stroke:#181818;stroke-width:1;"/></g><!--link Jogador to UC3--><g class="link" data-entity-1="ent0002" data-entity-2="ent0006" data-link-type="dependency" data-source-line="17" id="lnk12"><path d="M59.62,501.6038 C99.87,507.8138 172.6503,519.0581 228.8603,527.7381" fill="none" id="Jogador-to-UC3" style="stroke:#181818;stroke-width:1;"/><polygon fill="#181818" points="234.79,528.6538,226.5059,523.3271,229.8486,527.8907,225.285,531.2334,234.79,528.6538" style="stroke:#181818;stroke-width:1;"/></g><!--link UC1 to UC4--><g class="link" data-entity-1="ent0004" data-entity-2="ent0007" data-link-type="dependency" data-source-line="19" id="lnk13"><path d="M245.47,389.7238 C217.76,382.8138 185.22,370.6938 162.37,349.5938 C122.7,312.9738 101.75,287.2238 119.08,236.0938 C135.55,187.5338 180.973,160.0113 224.673,142.9013" fill="none" id="UC1-to-UC4" style="stroke:#181818;stroke-width:1;stroke-dasharray:7,7;"/><polygon fill="#181818" points="230.26,140.7138,220.4211,140.2703,225.6041,142.5367,223.3378,147.7197,230.26,140.7138" style="stroke:#181818;stroke-width:1;"/><text fill="#000000" font-family="sans-serif" font-size="13" lengthAdjust="spacing" textLength="63.0068" x="90.37" y="249.1606">&#171;include&#187;</text></g><!--link UC2 to UC4--><g class="link" data-entity-1="ent0005" data-entity-2="ent0007" data-link-type="dependency" data-source-line="20" id="lnk14"><path d="M222.58,464.6538 C183.55,458.5438 140.15,443.5037 119.08,408.0938 C110.35,393.4138 66.28,297.4338 162.37,179.5938 C177.58,160.9337 194.2171,150.2869 216.3771,141.4469" fill="none" id="UC2-to-UC4" style="stroke:#181818;stroke-width:1;stroke-dasharray:7,7;"/><polygon fill="#181818" points="221.95,139.2238,212.1085,138.8432,217.3059,141.0764,215.0727,146.2738,221.95,139.2238" style="stroke:#181818;stroke-width:1;"/><text fill="#000000" font-family="sans-serif" font-size="13" lengthAdjust="spacing" textLength="63.0068" x="90.37" y="404.1606">&#171;include&#187;</text></g><!--link UC3 to UC4--><g class="link" data-entity-1="ent0006" data-entity-2="ent0007" data-link-type="dependency" data-source-line="21" id="lnk15"><path d="M224.59,534.6637 C184.32,527.9838 139.05,511.8538 119.08,474.0938 C114,464.4838 85.78,278.1838 162.37,179.5938 C177.06,160.6837 193.4084,149.9804 215.4784,141.1604" fill="none" id="UC3-to-UC4" style="stroke:#181818;stroke-width:1;stroke-dasharray:7,7;"/><polygon fill="#181818" points="221.05,138.9337,211.2083,138.5593,216.407,140.7893,214.1771,145.988,221.05,138.9337" style="stroke:#181818;stroke-width:1;"/><text fill="#000000" font-family="sans-serif" font-size="13" lengthAdjust="spacing" textLength="63.0068" x="90.37" y="470.1606">&#171;include&#187;</text></g><!--link UC1 to UC5--><g class="link" data-entity-1="ent0004" data-entity-2="ent0008" data-link-type="dependency" data-source-line="23" id="lnk16"><path d="M300.16,382.7438 C300.16,368.7938 300.16,354.2537 300.16,338.1638" fill="none" id="UC1-to-UC5" style="stroke:#181818;stroke-width:1;stroke-dasharray:7,7;"/><polygon fill="#181818" points="300.16,332.1638,296.16,341.1638,300.16,337.1638,304.16,341.1638,300.16,332.1638" style="stroke:#181818;stroke-width:1;"/><text fill="#000000" font-family="sans-serif" font-size="13" lengthAdjust="spacing" textLength="63.0068" x="257.16" y="362.0206">&#171;include&#187;</text></g><!--link UC2 to UC5--><g class="link" data-entity-1="ent0005" data-entity-2="ent0008" data-link-type="dependency" data-source-line="24" id="lnk17"><path d="M224.51,472.5438 C186.79,470.5738 144.01,460.7138 119.08,430.0938 C79.13,381.0137 162.2996,345.6062 229.1596,325.6962" fill="none" id="UC2-to-UC5" style="stroke:#181818;stroke-width:1;stroke-dasharray:7,7;"/><polygon fill="#181818" points="234.91,323.9838,225.1427,322.7187,230.118,325.4108,227.4259,330.386,234.91,323.9838" style="stroke:#181818;stroke-width:1;"/><text fill="#000000" font-family="sans-serif" font-size="13" lengthAdjust="spacing" textLength="63.0068" x="90.37" y="426.1606">&#171;include&#187;</text></g><!--link UC3 to UC5--><g class="link" data-entity-1="ent0006" data-entity-2="ent0008" data-link-type="dependency" data-source-line="25" id="lnk18"><path d="M231.61,529.9038 C208.36,524.7538 183.07,516.5838 162.37,503.5938 C137.04,487.7038 129.32,480.1838 119.08,452.0938 C96.26,389.4638 173.2519,349.3782 234.3519,327.4782" fill="none" id="UC3-to-UC5" style="stroke:#181818;stroke-width:1;stroke-dasharray:7,7;"/><polygon fill="#181818" points="240,325.4538,230.1781,324.725,235.2932,327.1408,232.8774,332.2559,240,325.4538" style="stroke:#181818;stroke-width:1;"/><text fill="#000000" font-family="sans-serif" font-size="13" lengthAdjust="spacing" textLength="63.0068" x="90.37" y="448.1606">&#171;include&#187;</text></g><!--link UC6 to UC4--><g class="link" data-entity-1="ent0009" data-entity-2="ent0007" data-link-type="dependency" data-source-line="27" id="lnk19"><path d="M300.16,196.8538 C300.16,181.2738 300.16,167.4838 300.16,151.9738" fill="none" id="UC6-to-UC4" style="stroke:#181818;stroke-width:1;stroke-dasharray:7,7;"/><polygon fill="#181818" points="300.16,145.9738,296.16,154.9738,300.16,150.9738,304.16,154.9738,300.16,145.9738" style="stroke:#181818;stroke-width:1;"/><text fill="#000000" font-family="sans-serif" font-size="13" lengthAdjust="spacing" textLength="61.1851" x="258.16" y="176.0406">&#171;extend&#187;</text></g><?plantuml-src TLBDJiCm3BxdAQoTAHBhEduqLKA30rodSTh5Qq8nQfEHkDC4uf4uyGXxCPor4nki9yVv_kmeJ5mPk2CiFTO8si0KWujrBYM1-xU6LkZXWOqD2pkV9Udb6SHorPPh8QqlL6MU6TY1f_A5GPCt1PEpIc71piEZAr4xhrIyHrjAvc16WKsRsQRKnh8B0_XG04qm1GPXxGT0N-C0CC1yUj67wyRlESEJdCA4iFtsv3fMUiXwmegqi0fNhv1fIR7LPc6r0v998m0EGkMuauyEvRVSYC5xZ65FoqPMsKbVszKxINOqrqPIFCZU0Ki9Y66x9BBj4DkljQawvLXzAjMz8oH9ldk8utxufq-L4XASn_C8Rc0o4UEgqIRF1HZs0UbfuDShw_FA-hoo_rxZmnIpaV-by_m7?></g></svg>