<svg xmlns="http://www.w3.org/2000/svg" xmlns:xlink="http://www.w3.org/1999/xlink" contentStyleType="text/css" data-diagram-type="CLASS" height="378px" preserveAspectRatio="none" style="width:627px;height:378px;background:#FFFFFF;" version="1.1" viewBox="0 0 627 378" width="627px" zoomAndPan="magnify"><?plantuml 1.2026.3beta6?><defs/><g><g class="title" data-source-line="1"><text fill="#000000" font-family="sans-serif" font-size="14" font-weight="700" lengthAdjust="spacing" textLength="328.1729" x="146.3132" y="22.9951">Diagrama de Classes - Vida / Cura / Morte</text><text fill="#000000" font-family="sans-serif" font-size="14" font-weight="700" lengthAdjust="spacing" textLength="194.3457" x="213.2268" y="39.292">US-18, US-19, US-20 | v1</text></g><!--class Health--><g class="entity" data-qualified-name="Health" data-source-line="5" id="ent0002"><rect fill="#F1F1F1" height="145.7813" rx="2.5" ry="2.5" style="stroke:#181818;stroke-width:0.5;" width="212.6758" x="95.59" y="218.1938"/><ellipse cx="174.6921" cy="234.1938" fill="#ADD1B2" rx="11" ry="11" style="stroke:#181818;stroke-width:1;"/><path d="M177.6608,239.8344 Q177.0827,240.1313 176.4421,240.2719 Q175.8014,240.4281 175.0983,240.4281 Q172.5983,240.4281 171.2702,238.7875 Q169.9577,237.1313 169.9577,234.0063 Q169.9577,230.8813 171.2702,229.225 Q172.5983,227.5688 175.0983,227.5688 Q175.8014,227.5688 176.4421,227.725 Q177.0983,227.8813 177.6608,228.1781 L177.6608,230.8969 Q177.0358,230.3188 176.4421,230.0531 Q175.8483,229.7719 175.2233,229.7719 Q173.8796,229.7719 173.1921,230.85 Q172.5046,231.9125 172.5046,234.0063 Q172.5046,236.1 173.1921,237.1781 Q173.8796,238.2406 175.2233,238.2406 Q175.8483,238.2406 176.4421,237.975 Q177.0358,237.6938 177.6608,237.1156 L177.6608,239.8344 Z " fill="#000000"/><text fill="#000000" font-family="sans-serif" font-size="14" lengthAdjust="spacing" textLength="45.9717" x="195.1921" y="239.0404">Health</text><line style="stroke:#181818;stroke-width:0.5;" x1="96.59" x2="307.2658" y1="250.1938" y2="250.1938"/><g data-visibility-modifier="PRIVATE_FIELD"><rect fill="none" height="6" style="stroke:#C82930;stroke-width:1;" width="6" x="103.59" y="260.8422"/></g><text fill="#000000" font-family="sans-serif" font-size="14" lengthAdjust="spacing" textLength="102.3408" x="115.59" y="267.1889">currentHp : int</text><g data-visibility-modifier="PRIVATE_FIELD"><rect fill="none" height="6" style="stroke:#C82930;stroke-width:1;" width="6" x="103.59" y="277.1391"/></g><text fill="#000000" font-family="sans-serif" font-size="14" lengthAdjust="spacing" textLength="81.7852" x="115.59" y="283.4857">maxHp : int</text><line style="stroke:#181818;stroke-width:0.5;" x1="96.59" x2="307.2658" y1="290.7875" y2="290.7875"/><g data-visibility-modifier="PUBLIC_METHOD"><ellipse cx="106.59" cy="304.4359" fill="#84BE84" rx="3" ry="3" style="stroke:#038048;stroke-width:1;"/></g><text fill="#000000" font-family="sans-serif" font-size="14" lengthAdjust="spacing" textLength="186.6758" x="115.59" y="307.7826">takeDamage(amount : int)</text><g data-visibility-modifier="PUBLIC_METHOD"><ellipse cx="106.59" cy="320.7328" fill="#84BE84" rx="3" ry="3" style="stroke:#038048;stroke-width:1;"/></g><text fill="#000000" font-family="sans-serif" font-size="14" lengthAdjust="spacing" textLength="126.7656" x="115.59" y="324.0795">heal(amount : int)</text><g data-visibility-modifier="PRIVATE_METHOD"><rect fill="#F24D5C" height="6" style="stroke:#C82930;stroke-width:1;" width="6" x="103.59" y="334.0297"/></g><text fill="#000000" font-family="sans-serif" font-size="14" lengthAdjust="spacing" textLength="94.2471" x="115.59" y="340.3764">checkDeath()</text><g data-visibility-modifier="PUBLIC_METHOD"><ellipse cx="106.59" cy="353.3266" fill="#84BE84" rx="3" ry="3" style="stroke:#038048;stroke-width:1;"/></g><text fill="#000000" font-family="sans-serif" font-size="14" lengthAdjust="spacing" textLength="32.3135" x="115.59" y="356.6732">die()</text></g><!--class HealingItem--><g class="entity" data-qualified-name="HealingItem" data-source-line="15" id="ent0003"><rect fill="#F1F1F1" height="80.5938" rx="2.5" ry="2.5" style="stroke:#181818;stroke-width:0.5;" width="177.8535" x="7" y="60.5938"/><ellipse cx="49.3265" cy="76.5938" fill="#ADD1B2" rx="11" ry="11" style="stroke:#181818;stroke-width:1;"/><path d="M52.2953,82.2344 Q51.7171,82.5313 51.0765,82.6719 Q50.4359,82.8281 49.7328,82.8281 Q47.2328,82.8281 45.9046,81.1875 Q44.5921,79.5313 44.5921,76.4063 Q44.5921,73.2813 45.9046,71.625 Q47.2328,69.9688 49.7328,69.9688 Q50.4359,69.9688 51.0765,70.125 Q51.7328,70.2813 52.2953,70.5781 L52.2953,73.2969 Q51.6703,72.7188 51.0765,72.4531 Q50.4828,72.1719 49.8578,72.1719 Q48.514,72.1719 47.8265,73.25 Q47.139,74.3125 47.139,76.4063 Q47.139,78.5 47.8265,79.5781 Q48.514,80.6406 49.8578,80.6406 Q50.4828,80.6406 51.0765,80.375 Q51.6703,80.0938 52.2953,79.5156 L52.2953,82.2344 Z " fill="#000000"/><text fill="#000000" font-family="sans-serif" font-size="14" lengthAdjust="spacing" textLength="85.1279" x="69.3991" y="81.4404">HealingItem</text><line style="stroke:#181818;stroke-width:0.5;" x1="8" x2="183.8535" y1="92.5938" y2="92.5938"/><g data-visibility-modifier="PRIVATE_FIELD"><rect fill="none" height="6" style="stroke:#C82930;stroke-width:1;" width="6" x="15" y="103.2422"/></g><text fill="#000000" font-family="sans-serif" font-size="14" lengthAdjust="spacing" textLength="116.8398" x="27" y="109.5889">healAmount : int</text><line style="stroke:#181818;stroke-width:0.5;" x1="8" x2="183.8535" y1="116.8906" y2="116.8906"/><g data-visibility-modifier="PUBLIC_METHOD"><ellipse cx="18" cy="130.5391" fill="#84BE84" rx="3" ry="3" style="stroke:#038048;stroke-width:1;"/></g><text fill="#000000" font-family="sans-serif" font-size="14" lengthAdjust="spacing" textLength="151.8535" x="27" y="133.8857">apply(target : Health)</text></g><!--class DamageEvent--><g class="entity" data-qualified-name="DamageEvent" data-source-line="20" id="ent0004"><rect fill="#F1F1F1" height="80.5938" rx="2.5" ry="2.5" style="stroke:#181818;stroke-width:0.5;" width="177.8535" x="220" y="60.5938"/><ellipse cx="256.0019" cy="76.5938" fill="#ADD1B2" rx="11" ry="11" style="stroke:#181818;stroke-width:1;"/><path d="M258.9707,82.2344 Q258.3925,82.5313 257.7519,82.6719 Q257.1113,82.8281 256.4082,82.8281 Q253.9082,82.8281 252.58,81.1875 Q251.2675,79.5313 251.2675,76.4063 Q251.2675,73.2813 252.58,71.625 Q253.9082,69.9688 256.4082,69.9688 Q257.1113,69.9688 257.7519,70.125 Q258.4082,70.2813 258.9707,70.5781 L258.9707,73.2969 Q258.3457,72.7188 257.7519,72.4531 Q257.1582,72.1719 256.5332,72.1719 Q255.1894,72.1719 254.5019,73.25 Q253.8144,74.3125 253.8144,76.4063 Q253.8144,78.5 254.5019,79.5781 Q255.1894,80.6406 256.5332,80.6406 Q257.1582,80.6406 257.7519,80.375 Q258.3457,80.0938 258.9707,79.5156 L258.9707,82.2344 Z " fill="#000000"/><text fill="#000000" font-family="sans-serif" font-size="14" lengthAdjust="spacing" textLength="99.1826" x="274.669" y="81.4404">DamageEvent</text><line style="stroke:#181818;stroke-width:0.5;" x1="221" x2="396.8535" y1="92.5938" y2="92.5938"/><g data-visibility-modifier="PRIVATE_FIELD"><rect fill="none" height="6" style="stroke:#C82930;stroke-width:1;" width="6" x="228" y="103.2422"/></g><text fill="#000000" font-family="sans-serif" font-size="14" lengthAdjust="spacing" textLength="144.0674" x="240" y="109.5889">damageAmount : int</text><line style="stroke:#181818;stroke-width:0.5;" x1="221" x2="396.8535" y1="116.8906" y2="116.8906"/><g data-visibility-modifier="PUBLIC_METHOD"><ellipse cx="231" cy="130.5391" fill="#84BE84" rx="3" ry="3" style="stroke:#038048;stroke-width:1;"/></g><text fill="#000000" font-family="sans-serif" font-size="14" lengthAdjust="spacing" textLength="151.8535" x="240" y="133.8857">apply(target : Health)</text></g><g class="entity" data-qualified-name="GMN7" data-source-line="29" id="ent0008"><path d="M343.06,270.9538 L343.06,287.0838 L308.66,291.0838 L343.06,295.0838 L343.06,311.2194 A0,0 0 0 0 343.06,311.2194 L612.7993,311.2194 A0,0 0 0 0 612.7993,311.2194 L612.7993,280.9538 L602.7993,270.9538 L343.06,270.9538 A0,0 0 0 0 343.06,270.9538" fill="#FEFFDD" style="stroke:#181818;stroke-width:0.5;"/><path d="M602.7993,270.9538 L602.7993,280.9538 L612.7993,280.9538 L602.7993,270.9538" fill="#FEFFDD" style="stroke:#181818;stroke-width:0.5;"/><text fill="#000000" font-family="sans-serif" font-size="13" lengthAdjust="spacing" textLength="233.3525" x="349.06" y="288.0206">takeDamage() chama checkDeath()</text><text fill="#000000" font-family="sans-serif" font-size="13" lengthAdjust="spacing" textLength="248.7393" x="349.06" y="303.1535">checkDeath() chama die() se HP &lt;= 0</text></g><!--link HealingItem to Health--><g class="link" data-entity-1="ent0003" data-entity-2="ent0002" data-link-type="dependency" data-source-line="25" id="lnk5"><path codeLine="25" d="M118.15,141.3438 C130.65,163.5438 143.7157,186.7359 158.3757,212.7659" fill="none" id="HealingItem-to-Health" style="stroke:#181818;stroke-width:1;"/><polygon fill="#181818" points="161.32,217.9938,160.3888,208.189,158.8664,213.6372,153.4182,212.1148,161.32,217.9938" style="stroke:#181818;stroke-width:1;"/><text fill="#000000" font-family="sans-serif" font-size="13" lengthAdjust="spacing" textLength="28.6978" x="143.93" y="184.2606">cura</text></g><!--link DamageEvent to Health--><g class="link" data-entity-1="ent0004" data-entity-2="ent0002" data-link-type="dependency" data-source-line="26" id="lnk6"><path codeLine="26" d="M286.5,141.3438 C273.87,163.5438 260.6871,186.7488 245.8771,212.7788" fill="none" id="DamageEvent-to-Health" style="stroke:#181818;stroke-width:1;"/><polygon fill="#181818" points="242.91,217.9938,250.8373,212.1493,245.3826,213.6479,243.884,208.1932,242.91,217.9938" style="stroke:#181818;stroke-width:1;"/><text fill="#000000" font-family="sans-serif" font-size="13" lengthAdjust="spacing" textLength="74.6357" x="268.93" y="184.2606">causa dano</text></g><?plantuml-src bP51IyGm48Nl-HLpt4MBkvvqKK6sGZq8mg8dBqCxfg5jMfBfugB-ToTfbIoUzZJ9c-IRbnSst1Ba1hN33g4YsBReFNd8uDLK21Um7LqeJxrZUhClksnzTGwXNCTokO8lsA-Lyesn0me61YmRrBJZWx0TbOnMjwHK6T1G4BPSmwS2cL6Epf7bOe0D6CjHw_3ZRo_26J0sb8izJGli-j7or5p6PYsuVxA0QogRd93hnNIkCYIhxzI5iVgHgPkj1D1zmectS1ZQmuBHQGhov3t1JBOUzlA66LD5vGHGwYJBxdxpsOHiKAK3ZhiuUlamjBrIjcS9skYQeN-VZwWajQN44RxtA9HqC_TZHk09YcUukOML8bj1WFy0?></g></svg>