<svg xmlns="http://www.w3.org/2000/svg" xmlns:xlink="http://www.w3.org/1999/xlink" contentStyleType="text/css" data-diagram-type="CLASS" height="346px" preserveAspectRatio="none" style="width:412px;height:346px;background:#FFFFFF;" version="1.1" viewBox="0 0 412 346" width="412px" zoomAndPan="magnify"><?plantuml 1.2026.3beta6?><defs/><g><g class="title" data-source-line="1"><text fill="#000000" font-family="sans-serif" font-size="14" font-weight="700" lengthAdjust="spacing" textLength="328.1729" x="38.8403" y="22.9951">Diagrama de Classes - Vida / Cura / Morte</text><text fill="#000000" font-family="sans-serif" font-size="14" font-weight="700" lengthAdjust="spacing" textLength="194.3457" x="105.7539" y="39.292">US-18, US-19, US-20 | v1</text></g><!--class Health--><g class="entity" data-qualified-name="Health" data-source-line="5" id="ent0002"><rect fill="#F1F1F1" height="113.1875" rx="2.5" ry="2.5" style="stroke:#181818;stroke-width:0.5;" width="212.6758" x="95.59" y="218.1837"/><ellipse cx="174.6921" cy="234.1837" fill="#ADD1B2" rx="11" ry="11" style="stroke:#181818;stroke-width:1;"/><path d="M177.6608,239.8244 Q177.0827,240.1212 176.4421,240.2619 Q175.8014,240.4181 175.0983,240.4181 Q172.5983,240.4181 171.2702,238.7775 Q169.9577,237.1212 169.9577,233.9962 Q169.9577,230.8712 171.2702,229.215 Q172.5983,227.5587 175.0983,227.5587 Q175.8014,227.5587 176.4421,227.715 Q177.0983,227.8712 177.6608,228.1681 L177.6608,230.8869 Q177.0358,230.3087 176.4421,230.0431 Q175.8483,229.7619 175.2233,229.7619 Q173.8796,229.7619 173.1921,230.84 Q172.5046,231.9025 172.5046,233.9962 Q172.5046,236.09 173.1921,237.1681 Q173.8796,238.2306 175.2233,238.2306 Q175.8483,238.2306 176.4421,237.965 Q177.0358,237.6837 177.6608,237.1056 L177.6608,239.8244 Z " fill="#000000"/><text fill="#000000" font-family="sans-serif" font-size="14" lengthAdjust="spacing" textLength="45.9717" x="195.1921" y="239.0304">Health</text><line style="stroke:#181818;stroke-width:0.5;" x1="96.59" x2="307.2658" y1="250.1837" y2="250.1837"/><g data-visibility-modifier="PRIVATE_FIELD"><rect fill="none" height="6" style="stroke:#C82930;stroke-width:1;" width="6" x="103.59" y="260.8322"/></g><text fill="#000000" font-family="sans-serif" font-size="14" lengthAdjust="spacing" textLength="102.3408" x="115.59" y="267.1789">currentHp : int</text><g data-visibility-modifier="PRIVATE_FIELD"><rect fill="none" height="6" style="stroke:#C82930;stroke-width:1;" width="6" x="103.59" y="277.1291"/></g><text fill="#000000" font-family="sans-serif" font-size="14" lengthAdjust="spacing" textLength="81.7852" x="115.59" y="283.4757">maxHp : int</text><line style="stroke:#181818;stroke-width:0.5;" x1="96.59" x2="307.2658" y1="290.7775" y2="290.7775"/><g data-visibility-modifier="PUBLIC_METHOD"><ellipse cx="106.59" cy="304.4259" fill="#84BE84" rx="3" ry="3" style="stroke:#038048;stroke-width:1;"/></g><text fill="#000000" font-family="sans-serif" font-size="14" lengthAdjust="spacing" textLength="186.6758" x="115.59" y="307.7726">takeDamage(amount : int)</text><g data-visibility-modifier="PUBLIC_METHOD"><ellipse cx="106.59" cy="320.7228" fill="#84BE84" rx="3" ry="3" style="stroke:#038048;stroke-width:1;"/></g><text fill="#000000" font-family="sans-serif" font-size="14" lengthAdjust="spacing" textLength="126.7656" x="115.59" y="324.0695">heal(amount : int)</text></g><!--class HealingItem--><g class="entity" data-qualified-name="HealingItem" data-source-line="13" id="ent0003"><rect fill="#F1F1F1" height="80.5938" rx="2.5" ry="2.5" style="stroke:#181818;stroke-width:0.5;" width="177.8535" x="7" y="60.5938"/><ellipse cx="49.3265" cy="76.5938" fill="#ADD1B2" rx="11" ry="11" style="stroke:#181818;stroke-width:1;"/><path d="M52.2953,82.2344 Q51.7171,82.5313 51.0765,82.6719 Q50.4359,82.8281 49.7328,82.8281 Q47.2328,82.8281 45.9046,81.1875 Q44.5921,79.5313 44.5921,76.4063 Q44.5921,73.2813 45.9046,71.625 Q47.2328,69.9688 49.7328,69.9688 Q50.4359,69.9688 51.0765,70.125 Q51.7328,70.2813 52.2953,70.5781 L52.2953,73.2969 Q51.6703,72.7188 51.0765,72.4531 Q50.4828,72.1719 49.8578,72.1719 Q48.514,72.1719 47.8265,73.25 Q47.139,74.3125 47.139,76.4063 Q47.139,78.5 47.8265,79.5781 Q48.514,80.6406 49.8578,80.6406 Q50.4828,80.6406 51.0765,80.375 Q51.6703,80.0938 52.2953,79.5156 L52.2953,82.2344 Z " fill="#000000"/><text fill="#000000" font-family="sans-serif" font-size="14" lengthAdjust="spacing" textLength="85.1279" x="69.3991" y="81.4404">HealingItem</text><line style="stroke:#181818;stroke-width:0.5;" x1="8" x2="183.8535" y1="92.5938" y2="92.5938"/><g data-visibility-modifier="PRIVATE_FIELD"><rect fill="none" height="6" style="stroke:#C82930;stroke-width:1;" width="6" x="15" y="103.2422"/></g><text fill="#000000" font-family="sans-serif" font-size="14" lengthAdjust="spacing" textLength="116.8398" x="27" y="109.5889">healAmount : int</text><line style="stroke:#181818;stroke-width:0.5;" x1="8" x2="183.8535" y1="116.8906" y2="116.8906"/><g data-visibility-modifier="PUBLIC_METHOD"><ellipse cx="18" cy="130.5391" fill="#84BE84" rx="3" ry="3" style="stroke:#038048;stroke-width:1;"/></g><text fill="#000000" font-family="sans-serif" font-size="14" lengthAdjust="spacing" textLength="151.8535" x="27" y="133.8857">apply(target : Health)</text></g><!--class DamageEvent--><g class="entity" data-qualified-name="DamageEvent" data-source-line="18" id="ent0004"><rect fill="#F1F1F1" height="80.5938" rx="2.5" ry="2.5" style="stroke:#181818;stroke-width:0.5;" width="177.8535" x="220" y="60.5938"/><ellipse cx="256.0019" cy="76.5938" fill="#ADD1B2" rx="11" ry="11" style="stroke:#181818;stroke-width:1;"/><path d="M258.9707,82.2344 Q258.3925,82.5313 257.7519,82.6719 Q257.1113,82.8281 256.4082,82.8281 Q253.9082,82.8281 252.58,81.1875 Q251.2675,79.5313 251.2675,76.4063 Q251.2675,73.2813 252.58,71.625 Q253.9082,69.9688 256.4082,69.9688 Q257.1113,69.9688 257.7519,70.125 Q258.4082,70.2813 258.9707,70.5781 L258.9707,73.2969 Q258.3457,72.7188 257.7519,72.4531 Q257.1582,72.1719 256.5332,72.1719 Q255.1894,72.1719 254.5019,73.25 Q253.8144,74.3125 253.8144,76.4063 Q253.8144,78.5 254.5019,79.5781 Q255.1894,80.6406 256.5332,80.6406 Q257.1582,80.6406 257.7519,80.375 Q258.3457,80.0938 258.9707,79.5156 L258.9707,82.2344 Z " fill="#000000"/><text fill="#000000" font-family="sans-serif" font-size="14" lengthAdjust="spacing" textLength="99.1826" x="274.669" y="81.4404">DamageEvent</text><line style="stroke:#181818;stroke-width:0.5;" x1="221" x2="396.8535" y1="92.5938" y2="92.5938"/><g data-visibility-modifier="PRIVATE_FIELD"><rect fill="none" height="6" style="stroke:#C82930;stroke-width:1;" width="6" x="228" y="103.2422"/></g><text fill="#000000" font-family="sans-serif" font-size="14" lengthAdjust="spacing" textLength="144.0674" x="240" y="109.5889">damageAmount : int</text><line style="stroke:#181818;stroke-width:0.5;" x1="221" x2="396.8535" y1="116.8906" y2="116.8906"/><g data-visibility-modifier="PUBLIC_METHOD"><ellipse cx="231" cy="130.5391" fill="#84BE84" rx="3" ry="3" style="stroke:#038048;stroke-width:1;"/></g><text fill="#000000" font-family="sans-serif" font-size="14" lengthAdjust="spacing" textLength="151.8535" x="240" y="133.8857">apply(target : Health)</text></g><!--link HealingItem to Health--><g class="link" data-entity-1="ent0003" data-entity-2="ent0002" data-link-type="dependency" data-source-line="23" id="lnk5"><path codeLine="23" d="M120.25,141.3237 C134.24,164.0237 148.9102,187.807 164.3302,212.807" fill="none" id="HealingItem-to-Health" style="stroke:#181818;stroke-width:1;"/><polygon fill="#181818" points="167.48,217.9138,166.1597,208.1538,164.8551,213.6581,159.3508,212.3536,167.48,217.9138" style="stroke:#181818;stroke-width:1;"/><text fill="#000000" font-family="sans-serif" font-size="13" lengthAdjust="spacing" textLength="28.6978" x="149.93" y="184.2506">cura</text></g><!--link DamageEvent to Health--><g class="link" data-entity-1="ent0004" data-entity-2="ent0002" data-link-type="dependency" data-source-line="24" id="lnk6"><path codeLine="24" d="M284.38,141.3237 C270.25,164.0237 255.4419,187.8207 239.8719,212.8207" fill="none" id="DamageEvent-to-Health" style="stroke:#181818;stroke-width:1;"/><polygon fill="#181818" points="236.7,217.9138,244.8532,212.3888,239.3433,213.6696,238.0626,208.1596,236.7,217.9138" style="stroke:#181818;stroke-width:1;"/><text fill="#000000" font-family="sans-serif" font-size="13" lengthAdjust="spacing" textLength="74.6357" x="265.93" y="184.2506">causa dano</text></g><?plantuml-src bP6nJWCn44HxVyMMGN22K44A99GWXO8gWefcTBTohFFvB7il8WB-7TiNaA6ZMdbczMQq5YEMQMEW0mPGnxIsY94ZDVHYEj0bhQUGnzCOX5_TywvPtbnG7hTbN5_H1nsMIiNUE8-48O-sX-QT71CxS2jmsh9IRKRJbc5bJ--AKaOxXS1EjfvMP9mKRS3Rppi9voJeUPFgQLvW62SditbMp7t2_P4_woZZzAFmSChBs_VLSa70UtjS28BcBCy5AyoS_N18HK-OhYZ_0DLDckRk-mYhV02eEk2tYoccNu4Rlm00?></g></svg>