<svg xmlns="http://www.w3.org/2000/svg" xmlns:xlink="http://www.w3.org/1999/xlink" contentStyleType="text/css" data-diagram-type="ACTIVITY" height="440px" preserveAspectRatio="none" style="width:428px;height:440px;background:#FFFFFF;" version="1.1" viewBox="0 0 428 440" width="428px" zoomAndPan="magnify"><?plantuml 1.2026.3beta6?><defs/><g><g class="title" data-source-line="1"><text fill="#000000" font-family="sans-serif" font-size="14" font-weight="700" lengthAdjust="spacing" textLength="386.6338" x="20" y="32.9951">Diagrama de Atividades - Fluxo Dano/Cura/Morte</text></g><ellipse cx="226.2324" cy="62.2969" fill="#222222" rx="10" ry="10" style="stroke:#222222;stroke-width:1;"/><rect fill="#F1F1F1" height="33.9688" rx="12.5" ry="12.5" style="stroke:#181818;stroke-width:0.5;" width="107.9492" x="172.2578" y="92.2969"/><text fill="#000000" font-family="sans-serif" font-size="12" lengthAdjust="spacing" textLength="87.9492" x="182.2578" y="113.4355">receberEvento</text><polygon fill="#F1F1F1" points="182.168,146.2656,270.2969,146.2656,282.2969,158.2656,270.2969,170.2656,182.168,170.2656,170.168,158.2656,182.168,146.2656" style="stroke:#181818;stroke-width:0.5;"/><text fill="#000000" font-family="sans-serif" font-size="11" lengthAdjust="spacing" textLength="88.1289" x="182.168" y="162.0737">Tipo de evento?</text><text fill="#000000" font-family="sans-serif" font-size="11" lengthAdjust="spacing" textLength="28.9126" x="141.2554" y="155.6714">Dano</text><text fill="#000000" font-family="sans-serif" font-size="11" lengthAdjust="spacing" textLength="25.9155" x="282.2969" y="155.6714">Cura</text><rect fill="#F1F1F1" height="33.9688" rx="12.5" ry="12.5" style="stroke:#181818;stroke-width:0.5;" width="95.1113" x="83.4966" y="180.2656"/><text fill="#000000" font-family="sans-serif" font-size="12" lengthAdjust="spacing" textLength="75.1113" x="93.4966" y="201.4043">Aplicar dano</text><polygon fill="#F1F1F1" points="104.468,234.2344,157.6365,234.2344,169.6365,246.2344,157.6365,258.2344,104.468,258.2344,92.468,246.2344,104.468,234.2344" style="stroke:#181818;stroke-width:0.5;"/><text fill="#000000" font-family="sans-serif" font-size="11" lengthAdjust="spacing" textLength="53.1685" x="104.468" y="250.0425">HP &lt;= 0?</text><text fill="#000000" font-family="sans-serif" font-size="11" lengthAdjust="spacing" textLength="20.7539" x="71.7141" y="243.6401">Sim</text><text fill="#000000" font-family="sans-serif" font-size="11" lengthAdjust="spacing" textLength="21.6992" x="169.6365" y="243.6401">N&#227;o</text><rect fill="#F1F1F1" height="33.9688" rx="12.5" ry="12.5" style="stroke:#181818;stroke-width:0.5;" width="59.8789" x="49.0649" y="268.2344"/><text fill="#000000" font-family="sans-serif" font-size="12" lengthAdjust="spacing" textLength="39.8789" x="59.0649" y="289.373">Morrer</text><ellipse cx="79.0044" cy="333.2031" fill="none" rx="11" ry="11" style="stroke:#222222;stroke-width:1;"/><ellipse cx="79.0044" cy="333.2031" fill="#222222" rx="6" ry="6" style="stroke:#222222;stroke-width:1;"/><rect fill="#F1F1F1" height="33.9688" rx="12.5" ry="12.5" style="stroke:#181818;stroke-width:0.5;" width="108.3125" x="128.9438" y="268.2344"/><text fill="#000000" font-family="sans-serif" font-size="12" lengthAdjust="spacing" textLength="88.3125" x="138.9438" y="289.373">Continuar jogo</text><rect fill="#F1F1F1" height="33.9688" rx="12.5" ry="12.5" style="stroke:#181818;stroke-width:0.5;" width="91.6836" x="275.5708" y="180.2656"/><text fill="#000000" font-family="sans-serif" font-size="12" lengthAdjust="spacing" textLength="71.6836" x="285.5708" y="201.4043">Aplicar cura</text><rect fill="#F1F1F1" height="33.9688" rx="12.5" ry="12.5" style="stroke:#181818;stroke-width:0.5;" width="108.3125" x="267.2563" y="234.2344"/><text fill="#000000" font-family="sans-serif" font-size="12" lengthAdjust="spacing" textLength="88.3125" x="277.2563" y="255.373">Continuar jogo</text><polygon fill="#F1F1F1" points="226.2324,354.2031,238.2324,366.2031,226.2324,378.2031,214.2324,366.2031,226.2324,354.2031" style="stroke:#181818;stroke-width:0.5;"/><ellipse cx="226.2324" cy="409.2031" fill="none" rx="11" ry="11" style="stroke:#222222;stroke-width:1;"/><ellipse cx="226.2324" cy="409.2031" fill="#222222" rx="6" ry="6" style="stroke:#222222;stroke-width:1;"/><line style="stroke:#181818;stroke-width:1;" x1="226.2324" x2="226.2324" y1="72.2969" y2="92.2969"/><polygon fill="#181818" points="222.2324,82.2969,226.2324,92.2969,230.2324,82.2969,226.2324,86.2969" style="stroke:#181818;stroke-width:1;"/><line style="stroke:#181818;stroke-width:1;" x1="79.0044" x2="79.0044" y1="302.2031" y2="322.2031"/><polygon fill="#181818" points="75.0044,312.2031,79.0044,322.2031,83.0044,312.2031,79.0044,316.2031" style="stroke:#181818;stroke-width:1;"/><line style="stroke:#181818;stroke-width:1;" x1="92.468" x2="79.0044" y1="246.2344" y2="246.2344"/><line style="stroke:#181818;stroke-width:1;" x1="79.0044" x2="79.0044" y1="246.2344" y2="268.2344"/><polygon fill="#181818" points="75.0044,258.2344,79.0044,268.2344,83.0044,258.2344,79.0044,262.2344" style="stroke:#181818;stroke-width:1;"/><line style="stroke:#181818;stroke-width:1;" x1="169.6365" x2="183.1001" y1="246.2344" y2="246.2344"/><line style="stroke:#181818;stroke-width:1;" x1="183.1001" x2="183.1001" y1="246.2344" y2="268.2344"/><polygon fill="#181818" points="179.1001,258.2344,183.1001,268.2344,187.1001,258.2344,183.1001,262.2344" style="stroke:#181818;stroke-width:1;"/><line style="stroke:#181818;stroke-width:1;" x1="183.1001" x2="183.1001" y1="302.2031" y2="366.2031"/><line style="stroke:#181818;stroke-width:1;" x1="183.1001" x2="214.2324" y1="366.2031" y2="366.2031"/><polygon fill="#181818" points="204.2324,362.2031,214.2324,366.2031,204.2324,370.2031,208.2324,366.2031" style="stroke:#181818;stroke-width:1;"/><line style="stroke:#181818;stroke-width:1;" x1="131.0522" x2="131.0522" y1="214.2344" y2="234.2344"/><polygon fill="#181818" points="127.0522,224.2344,131.0522,234.2344,135.0522,224.2344,131.0522,228.2344" style="stroke:#181818;stroke-width:1;"/><line style="stroke:#181818;stroke-width:1;" x1="321.4126" x2="321.4126" y1="214.2344" y2="234.2344"/><polygon fill="#181818" points="317.4126,224.2344,321.4126,234.2344,325.4126,224.2344,321.4126,228.2344" style="stroke:#181818;stroke-width:1;"/><line style="stroke:#181818;stroke-width:1;" x1="170.168" x2="131.0522" y1="158.2656" y2="158.2656"/><line style="stroke:#181818;stroke-width:1;" x1="131.0522" x2="131.0522" y1="158.2656" y2="180.2656"/><polygon fill="#181818" points="127.0522,170.2656,131.0522,180.2656,135.0522,170.2656,131.0522,174.2656" style="stroke:#181818;stroke-width:1;"/><line style="stroke:#181818;stroke-width:1;" x1="282.2969" x2="321.4126" y1="158.2656" y2="158.2656"/><line style="stroke:#181818;stroke-width:1;" x1="321.4126" x2="321.4126" y1="158.2656" y2="180.2656"/><polygon fill="#181818" points="317.4126,170.2656,321.4126,180.2656,325.4126,170.2656,321.4126,174.2656" style="stroke:#181818;stroke-width:1;"/><line style="stroke:#181818;stroke-width:1;" x1="321.4126" x2="321.4126" y1="268.2031" y2="366.2031"/><line style="stroke:#181818;stroke-width:1;" x1="321.4126" x2="238.2324" y1="366.2031" y2="366.2031"/><polygon fill="#181818" points="248.2324,362.2031,238.2324,366.2031,248.2324,370.2031,244.2324,366.2031" style="stroke:#181818;stroke-width:1;"/><line style="stroke:#181818;stroke-width:1;" x1="226.2324" x2="226.2324" y1="126.2656" y2="146.2656"/><polygon fill="#181818" points="222.2324,136.2656,226.2324,146.2656,230.2324,136.2656,226.2324,140.2656" style="stroke:#181818;stroke-width:1;"/><line style="stroke:#181818;stroke-width:1;" x1="226.2324" x2="226.2324" y1="378.2031" y2="398.2031"/><polygon fill="#181818" points="222.2324,388.2031,226.2324,398.2031,230.2324,388.2031,226.2324,392.2031" style="stroke:#181818;stroke-width:1;"/><?plantuml-src POvD2i9038NtEKMMTI6wjeg8FxXH1Bt0s8aQQISbJSNxU1GlvamLGTpDFBxtlHXRIRXWTrPNEVI4C-CRU-UfmJwkolOkk7111lDMtM0ZQWJGc5E3aL91HzBbZO993i0dp0vSIz9G5qvxQ1SAc2L53n17ixhamYdw6EGnI9tr3iSJ77xXFLU9ZNJSKzAy-pGcTNnGsH1cs-T3FinSWd5ee_Cgvyv9mVC9u4sckt-MYnWawgy8xrxQUG40?></g></svg>