<?plantuml 1.2026.2?><svg xmlns="http://www.w3.org/2000/svg" xmlns:xlink="http://www.w3.org/1999/xlink" contentStyleType="text/css" data-diagram-type="ACTIVITY" height="363px" preserveAspectRatio="none" style="width:371px;height:363px;background:#FFFFFF;" version="1.1" viewBox="0 0 371 363" width="371px" zoomAndPan="magnify"><title>Atividades - Selecionar -&gt; Validar -&gt; Aplicar
US-34, US-35, US-36 | v1</title><defs/><g><g class="title" data-source-line="2"><text fill="#000000" font-family="sans-serif" font-size="14" font-weight="bold" lengthAdjust="spacing" textLength="328.4941" x="20" y="33.5352">Atividades - Selecionar -&gt; Validar -&gt; Aplicar</text><text fill="#000000" font-family="sans-serif" font-size="14" font-weight="bold" lengthAdjust="spacing" textLength="185.4727" x="91.5107" y="50.0234">US-34, US-35, US-36 | v1</text></g><ellipse cx="170.6694" cy="73.9766" fill="#222222" rx="10" ry="10" style="stroke:#222222;stroke-width:1;"/><rect fill="#F1F1F1" height="34.1328" rx="12.5" ry="12.5" style="stroke:#181818;stroke-width:0.5;" width="108.916" x="116.2114" y="103.9766"/><text fill="#000000" font-family="sans-serif" font-size="12" lengthAdjust="spacing" textLength="88.916" x="126.2114" y="125.5781">Selecionar item</text><polygon fill="#F1F1F1" points="105.1206,158.1094,236.2183,158.1094,248.2183,170.1094,236.2183,182.1094,105.1206,182.1094,93.1206,170.1094,105.1206,158.1094" style="stroke:#181818;stroke-width:0.5;"/><text fill="#000000" font-family="sans-serif" font-size="11" lengthAdjust="spacing" textLength="131.0977" x="105.1206" y="174.2666">Item valido e disponivel?</text><text fill="#000000" font-family="sans-serif" font-size="11" lengthAdjust="spacing" textLength="19.3735" x="73.7471" y="167.7891">Sim</text><text fill="#000000" font-family="sans-serif" font-size="11" lengthAdjust="spacing" textLength="20.958" x="248.2183" y="167.7891">Nao</text><rect fill="#F1F1F1" height="34.1328" rx="12.5" ry="12.5" style="stroke:#181818;stroke-width:0.5;" width="105.9102" x="30.1655" y="192.1094"/><text fill="#000000" font-family="sans-serif" font-size="12" lengthAdjust="spacing" textLength="85.9102" x="40.1655" y="213.7109">Consumir item</text><rect fill="#F1F1F1" height="34.1328" rx="12.5" ry="12.5" style="stroke:#181818;stroke-width:0.5;" width="97.3613" x="34.4399" y="246.2422"/><text fill="#000000" font-family="sans-serif" font-size="12" lengthAdjust="spacing" textLength="77.3613" x="44.4399" y="267.8438">Aplicar efeito</text><rect fill="#F1F1F1" height="34.1328" rx="12.5" ry="12.5" style="stroke:#181818;stroke-width:0.5;" width="166.2207" x="175.1079" y="192.1094"/><text fill="#000000" font-family="sans-serif" font-size="12" lengthAdjust="spacing" textLength="146.2207" x="185.1079" y="213.7109">Exibir mensagem de erro</text><polygon fill="#F1F1F1" points="170.6694,286.375,182.6694,298.375,170.6694,310.375,158.6694,298.375,170.6694,286.375" style="stroke:#181818;stroke-width:0.5;"/><ellipse cx="170.6694" cy="341.375" fill="none" rx="11" ry="11" style="stroke:#222222;stroke-width:1;"/><ellipse cx="170.6694" cy="341.375" fill="#222222" rx="6" ry="6" style="stroke:#222222;stroke-width:1;"/><line style="stroke:#181818;stroke-width:1;" x1="170.6694" x2="170.6694" y1="83.9766" y2="103.9766"/><polygon fill="#181818" points="166.6694,93.9766,170.6694,103.9766,174.6694,93.9766,170.6694,97.9766" style="stroke:#181818;stroke-width:1;"/><line style="stroke:#181818;stroke-width:1;" x1="83.1206" x2="83.1206" y1="226.2422" y2="246.2422"/><polygon fill="#181818" points="79.1206,236.2422,83.1206,246.2422,87.1206,236.2422,83.1206,240.2422" style="stroke:#181818;stroke-width:1;"/><line style="stroke:#181818;stroke-width:1;" x1="93.1206" x2="83.1206" y1="170.1094" y2="170.1094"/><line style="stroke:#181818;stroke-width:1;" x1="83.1206" x2="83.1206" y1="170.1094" y2="192.1094"/><polygon fill="#181818" points="79.1206,182.1094,83.1206,192.1094,87.1206,182.1094,83.1206,186.1094" style="stroke:#181818;stroke-width:1;"/><line style="stroke:#181818;stroke-width:1;" x1="248.2183" x2="258.2183" y1="170.1094" y2="170.1094"/><line style="stroke:#181818;stroke-width:1;" x1="258.2183" x2="258.2183" y1="170.1094" y2="192.1094"/><polygon fill="#181818" points="254.2183,182.1094,258.2183,192.1094,262.2183,182.1094,258.2183,186.1094" style="stroke:#181818;stroke-width:1;"/><line style="stroke:#181818;stroke-width:1;" x1="83.1206" x2="83.1206" y1="280.375" y2="298.375"/><line style="stroke:#181818;stroke-width:1;" x1="83.1206" x2="158.6694" y1="298.375" y2="298.375"/><polygon fill="#181818" points="148.6694,294.375,158.6694,298.375,148.6694,302.375,152.6694,298.375" style="stroke:#181818;stroke-width:1;"/><line style="stroke:#181818;stroke-width:1;" x1="258.2183" x2="258.2183" y1="226.2422" y2="298.375"/><line style="stroke:#181818;stroke-width:1;" x1="258.2183" x2="182.6694" y1="298.375" y2="298.375"/><polygon fill="#181818" points="192.6694,294.375,182.6694,298.375,192.6694,302.375,188.6694,298.375" style="stroke:#181818;stroke-width:1;"/><line style="stroke:#181818;stroke-width:1;" x1="170.6694" x2="170.6694" y1="138.1094" y2="158.1094"/><polygon fill="#181818" points="166.6694,148.1094,170.6694,158.1094,174.6694,148.1094,170.6694,152.1094" style="stroke:#181818;stroke-width:1;"/><line style="stroke:#181818;stroke-width:1;" x1="170.6694" x2="170.6694" y1="310.375" y2="330.375"/><polygon fill="#181818" points="166.6694,320.375,170.6694,330.375,174.6694,320.375,170.6694,324.375" style="stroke:#181818;stroke-width:1;"/><?plantuml-src JOu_2y8m4CNtV8etjc07yS_GWbB4mSMbwEGIcwiUf4b9Od3mmvjM1QVtkFlTUnSuQ48TEBAIYZmADAIfPMkaGx71MUgqcMmzQ6wbkvXJKooMCuoo-iWQByIv43v85qJv5y61-afmX-oG7E8OPq5Gx0ThE9BUvWXtCiWQxdC1b3jh_AFdtssQV9j17N6mbI3j2TbHsedVF_cQw9wCbxVKeGZat8WPnLtwoGxY3G00?></g></svg>