<?plantuml 1.2026.2?><svg xmlns="http://www.w3.org/2000/svg" xmlns:xlink="http://www.w3.org/1999/xlink" contentStyleType="text/css" data-diagram-type="DESCRIPTION" height="682px" preserveAspectRatio="none" style="width:481px;height:682px;background:#FFFFFF;" version="1.1" viewBox="0 0 481 682" width="481px" zoomAndPan="magnify"><title>Componentes - InventoryService + ItemEffectEngine
US-34, US-35, US-36 | v1</title><defs/><g><g class="title" data-source-line="3"><text fill="#000000" font-family="sans-serif" font-size="14" font-weight="bold" lengthAdjust="spacing" textLength="379.6133" x="29.6934" y="33.5352">Componentes - InventoryService + ItemEffectEngine</text><text fill="#000000" font-family="sans-serif" font-size="14" font-weight="bold" lengthAdjust="spacing" textLength="185.4727" x="126.7637" y="50.0234">US-34, US-35, US-36 | v1</text></g><!--cluster C_IV--><g class="cluster" data-qualified-name="C_IV" data-source-line="10" id="ent0002"><rect fill="none" height="182" rx="4" ry="4" style="stroke:#181818;stroke-width:1;" width="202" x="14" y="77.9766"/><rect fill="none" height="10" style="stroke:#181818;stroke-width:1;" width="15" x="196" y="82.9766"/><rect fill="none" height="2" style="stroke:#181818;stroke-width:1;" width="4" x="194" y="84.9766"/><rect fill="none" height="2" style="stroke:#181818;stroke-width:1;" width="4" x="194" y="88.9766"/><text fill="#000000" font-family="sans-serif" font-size="14" font-weight="bold" lengthAdjust="spacing" textLength="97.6992" x="66.1504" y="114.5117">ItemValidator</text></g><!--cluster C_IE--><g class="cluster" data-qualified-name="C_IE" data-source-line="16" id="ent0006"><rect fill="none" height="182" rx="4" ry="4" style="stroke:#181818;stroke-width:1;" width="224" x="224" y="77.9766"/><rect fill="none" height="10" style="stroke:#181818;stroke-width:1;" width="15" x="428" y="82.9766"/><rect fill="none" height="2" style="stroke:#181818;stroke-width:1;" width="4" x="426" y="84.9766"/><rect fill="none" height="2" style="stroke:#181818;stroke-width:1;" width="4" x="426" y="88.9766"/><text fill="#000000" font-family="sans-serif" font-size="14" font-weight="bold" lengthAdjust="spacing" textLength="122.2266" x="274.8867" y="114.5117">ItemEffectEngine</text></g><!--cluster C_IS--><g class="cluster" data-qualified-name="C_IS" data-source-line="22" id="ent0010"><rect fill="none" height="182" rx="4" ry="4" style="stroke:#181818;stroke-width:1;" width="294" x="65" y="316.9766"/><rect fill="none" height="10" style="stroke:#181818;stroke-width:1;" width="15" x="339" y="321.9766"/><rect fill="none" height="2" style="stroke:#181818;stroke-width:1;" width="4" x="337" y="323.9766"/><rect fill="none" height="2" style="stroke:#181818;stroke-width:1;" width="4" x="337" y="327.9766"/><text fill="#000000" font-family="sans-serif" font-size="14" font-weight="bold" lengthAdjust="spacing" textLength="119.7588" x="152.1206" y="353.5117">InventoryService</text></g><!--cluster C_UI--><g class="cluster" data-qualified-name="C_UI" data-source-line="32" id="ent0019"><rect fill="none" height="121" rx="4" ry="4" style="stroke:#181818;stroke-width:1;" width="224" x="143" y="555.9766"/><rect fill="none" height="10" style="stroke:#181818;stroke-width:1;" width="15" x="347" y="560.9766"/><rect fill="none" height="2" style="stroke:#181818;stroke-width:1;" width="4" x="345" y="562.9766"/><rect fill="none" height="2" style="stroke:#181818;stroke-width:1;" width="4" x="345" y="566.9766"/><text fill="#000000" font-family="sans-serif" font-size="14" font-weight="bold" lengthAdjust="spacing" textLength="83.6309" x="213.1846" y="592.5117">InventoryUI</text></g><!--entity IV_IMPL--><g class="entity" data-qualified-name="C_IV.IV_IMPL" data-source-line="11" id="ent0003"><rect fill="#F1F1F1" height="66.4883" rx="4" ry="4" style="stroke:#181818;stroke-width:0.5;" width="151.2256" x="22.5" y="124.9766"/><rect fill="#F1F1F1" height="10" style="stroke:#181818;stroke-width:0.5;" width="15" x="153.7256" y="129.9766"/><rect fill="#F1F1F1" height="2" style="stroke:#181818;stroke-width:0.5;" width="4" x="151.7256" y="131.9766"/><rect fill="#F1F1F1" height="2" style="stroke:#181818;stroke-width:0.5;" width="4" x="151.7256" y="135.9766"/><text fill="#000000" font-family="sans-serif" font-size="14" lengthAdjust="spacing" textLength="91.2256" x="47.5" y="168.5117">ItemValidator</text></g><!--entity IF_VALID--><g class="entity" data-qualified-name="C_IV.IF_VALID" data-source-line="12" id="ent0004"><ellipse cx="86" cy="236.9766" fill="#F1F1F1" rx="8" ry="8" style="stroke:#181818;stroke-width:0.5;"/><text fill="#000000" font-family="sans-serif" font-size="14" lengthAdjust="spacing" textLength="68.0928" x="51.9536" y="277.5117">Validation</text></g><!--entity IE_IMPL--><g class="entity" data-qualified-name="C_IE.IE_IMPL" data-source-line="17" id="ent0007"><rect fill="#F1F1F1" height="66.4883" rx="4" ry="4" style="stroke:#181818;stroke-width:0.5;" width="173.7705" x="266" y="124.9766"/><rect fill="#F1F1F1" height="10" style="stroke:#181818;stroke-width:0.5;" width="15" x="419.7705" y="129.9766"/><rect fill="#F1F1F1" height="2" style="stroke:#181818;stroke-width:0.5;" width="4" x="417.7705" y="131.9766"/><rect fill="#F1F1F1" height="2" style="stroke:#181818;stroke-width:0.5;" width="4" x="417.7705" y="135.9766"/><text fill="#000000" font-family="sans-serif" font-size="14" lengthAdjust="spacing" textLength="113.7705" x="291" y="168.5117">ItemEffectEngine</text></g><!--entity IF_EFFECT_APP--><g class="entity" data-qualified-name="C_IE.IF_EFFECT_APP" data-source-line="18" id="ent0008"><ellipse cx="346" cy="236.9766" fill="#F1F1F1" rx="8" ry="8" style="stroke:#181818;stroke-width:0.5;"/><text fill="#000000" font-family="sans-serif" font-size="14" lengthAdjust="spacing" textLength="114.9395" x="288.5303" y="277.5117">EffectApplication</text></g><!--entity IS_IMPL--><g class="entity" data-qualified-name="C_IS.IS_IMPL" data-source-line="23" id="ent0011"><rect fill="#F1F1F1" height="66.4883" rx="4" ry="4" style="stroke:#181818;stroke-width:0.5;" width="170.667" x="109.5" y="363.9766"/><rect fill="#F1F1F1" height="10" style="stroke:#181818;stroke-width:0.5;" width="15" x="260.167" y="368.9766"/><rect fill="#F1F1F1" height="2" style="stroke:#181818;stroke-width:0.5;" width="4" x="258.167" y="370.9766"/><rect fill="#F1F1F1" height="2" style="stroke:#181818;stroke-width:0.5;" width="4" x="258.167" y="374.9766"/><text fill="#000000" font-family="sans-serif" font-size="14" lengthAdjust="spacing" textLength="110.667" x="134.5" y="407.5117">InventoryService</text></g><!--entity IF_ITEM_VALID--><g class="entity" data-qualified-name="C_IS.IF_ITEM_VALID" data-source-line="24" id="ent0012"><ellipse cx="82" cy="393.9766" fill="#F1F1F1" rx="8" ry="8" style="stroke:#181818;stroke-width:0.5;"/><text fill="#000000" font-family="sans-serif" font-size="14" lengthAdjust="spacing" textLength="98.2324" x="32.8838" y="434.5117">ItemValidation</text></g><!--entity IF_ITEM_EFFECT--><g class="entity" data-qualified-name="C_IS.IF_ITEM_EFFECT" data-source-line="25" id="ent0013"><ellipse cx="342" cy="393.9766" fill="#F1F1F1" rx="8" ry="8" style="stroke:#181818;stroke-width:0.5;"/><text fill="#000000" font-family="sans-serif" font-size="14" lengthAdjust="spacing" textLength="68.2295" x="307.8853" y="434.5117">ItemEffect</text></g><!--entity IF_ITEM_SELECTION--><g class="entity" data-qualified-name="C_IS.IF_ITEM_SELECTION" data-source-line="26" id="ent0014"><ellipse cx="172" cy="475.9766" fill="#F1F1F1" rx="8" ry="8" style="stroke:#181818;stroke-width:0.5;"/><text fill="#000000" font-family="sans-serif" font-size="14" lengthAdjust="spacing" textLength="91.0684" x="126.4658" y="516.5117">ItemSelection</text></g><!--entity UI_IMPL--><g class="entity" data-qualified-name="C_UI.UI_IMPL" data-source-line="33" id="ent0020"><rect fill="#F1F1F1" height="66.4883" rx="4" ry="4" style="stroke:#181818;stroke-width:0.5;" width="137.0684" x="187.5" y="602.9766"/><rect fill="#F1F1F1" height="10" style="stroke:#181818;stroke-width:0.5;" width="15" x="304.5684" y="607.9766"/><rect fill="#F1F1F1" height="2" style="stroke:#181818;stroke-width:0.5;" width="4" x="302.5684" y="609.9766"/><rect fill="#F1F1F1" height="2" style="stroke:#181818;stroke-width:0.5;" width="4" x="302.5684" y="613.9766"/><text fill="#000000" font-family="sans-serif" font-size="14" lengthAdjust="spacing" textLength="77.0684" x="212.5" y="646.5117">InventoryUI</text></g><!--entity IF_ITEM_USAGE--><g class="entity" data-qualified-name="C_UI.IF_ITEM_USAGE" data-source-line="34" id="ent0021"><ellipse cx="160" cy="632.9766" fill="#F1F1F1" rx="8" ry="8" style="stroke:#181818;stroke-width:0.5;"/><text fill="#000000" font-family="sans-serif" font-size="14" lengthAdjust="spacing" textLength="71.2373" x="124.3813" y="673.5117">ItemUsage</text></g><g class="link" data-entity-1="ent0003" data-entity-2="ent0004" data-link-type="association" id="lnk5"><path d="M93.1883,191.0547 C91.2321,204.0957 89.1004,218.3069 87.6705,227.8398" fill="none" style="stroke:#181818;stroke-width:1;"/></g><g class="link" data-entity-1="ent0007" data-entity-2="ent0008" data-link-type="association" id="lnk9"><path d="M350.1932,191.0547 C349.0521,204.0957 347.8086,218.3069 346.9745,227.8398" fill="none" style="stroke:#181818;stroke-width:1;"/></g><g class="link" data-entity-1="ent0012" data-entity-2="ent0011" data-link-type="association" id="lnk16"><path d="M91.2695,396.9766 C97.2124,396.9766 103.1553,396.9766 109.0982,396.9766" fill="none" style="stroke:#181818;stroke-width:1;"/></g><g class="link" data-entity-1="ent0011" data-entity-2="ent0013" data-link-type="association" id="lnk17"><path d="M210.7744,363.9607 C232.8872,322.2069 274.9025,259.0896 315,288.4766 C345.374,310.7373 345.2179,361.5684 343.3608,384.8841" fill="none" style="stroke:#181818;stroke-width:1;"/></g><g class="link" data-entity-1="ent0011" data-entity-2="ent0014" data-link-type="association" id="lnk18"><path d="M185.7775,430.0547 C182.0283,443.0957 177.9425,457.3069 175.2018,466.8398" fill="none" style="stroke:#181818;stroke-width:1;"/></g><g class="link" data-entity-1="ent0021" data-entity-2="ent0020" data-link-type="association" id="lnk22"><path d="M169.375,635.9766 C175.353,635.9766 181.3311,635.9766 187.3091,635.9766" fill="none" style="stroke:#181818;stroke-width:1;"/></g><g class="link" data-entity-1="ent0004" data-entity-2="ent0012" data-link-type="dependency" id="lnk24"><polygon fill="#181818" points="84.5819,252.2498,79.5905,260.7401,84.0169,257.2178,87.5392,261.6442,84.5819,252.2498" style="stroke:#181818;stroke-width:1;"/><path d="M83.9039,258.2114 C83.2942,263.5718 83.3258,264.1142 83,269.9766 C80.6455,312.35 81.2852,362.8605 81.7332,384.841" fill="none" style="stroke:#181818;stroke-width:1;"/><text fill="#000000" font-family="sans-serif" font-size="13" lengthAdjust="spacing" textLength="85.3442" x="95" y="294.5449">validate(item)</text></g><g class="link" data-entity-1="ent0008" data-entity-2="ent0013" data-link-type="dependency" id="lnk26"><polygon fill="#181818" points="345.7123,252.1238,341.4815,261.0176,345.5833,257.1221,349.4788,261.224,345.7123,252.1238" style="stroke:#181818;stroke-width:1;"/><path d="M345.5575,258.1218 C344.8195,286.7205 343.0202,356.443 342.2851,384.9303" fill="none" style="stroke:#181818;stroke-width:1;"/><text fill="#000000" font-family="sans-serif" font-size="13" lengthAdjust="spacing" textLength="105.917" x="357" y="294.5449">applyEffect(item)</text></g><g class="link" data-entity-1="ent0014" data-entity-2="ent0021" data-link-type="dependency" id="lnk27"><polygon fill="#181818" points="160.8552,623.9303,165.538,615.266,161.2411,618.9453,157.5618,614.6484,160.8552,623.9303" style="stroke:#181818;stroke-width:1;"/><path d="M171.137,491.1238 C168.9229,519.7225 163.5238,589.4609 161.3183,617.9483" fill="none" style="stroke:#181818;stroke-width:1;"/><text fill="#000000" font-family="sans-serif" font-size="13" lengthAdjust="spacing" textLength="63.6353" x="182" y="533.5449">usarItem()</text></g><?plantuml-src TPHFZvim4CNFyQUOvj9TjLJT_bFLmqfHIYfBsJOIIoxRLMI50QmrDZ8c5ThskzV4G0oq9oUyySplFHjUb9fb1GF16bKRg0eqJ39233S2OQsAKacK1Yi8WCgJ_Qbq4w4-yIF2Aw06Yp1DyMX2cN69FsKS1Uy_l8Ps-UYMJ_0RJZU4L4zSbaop0evzsyWqTafTY7UUMkKiKR-up21bea9FALcIjCzltdeFjQfbibPQeeRFX0ozOTd2xPdW2RFGIs0Lh0zq3yzayJ2I7bk9xW_qRhSb2sxTwfHPUykkWYjvtaqtX_rgIx-IHLSCWGMLmKNuCvllXzCZX0E2hpgAS4xXYbPbAVXn11DkDk7w_h3QxInHE2Nor0dMv1XxhCXXJLI75Ssnl0Wz9deVtlKfJOgTZr6XOvnLHYXivRHh56vjCVtntRgDEhS2KnDCvmwgvbdkoVsqGH-oclJ_JrunxQAAwJYgc9vJYkc_Kuehbk78IXojleKMnFyxuFPjBCN860Hr6TmEbms-mCd5ZrVSJhacOv-NyijDi7kOlKUDEuh9ji5_5ypj6DVkhIkcMqDNruIyXAtxPEJMRGL6mHDYQTTI2PKrKF622wPRmUG86bFKA6qalB1fl27dLp5uo7cIe7pihBSlnqHnPzHUJtA-epCXfkGl?></g></svg>