<?plantuml 1.2026.2?><svg xmlns="http://www.w3.org/2000/svg" xmlns:xlink="http://www.w3.org/1999/xlink" contentStyleType="text/css" data-diagram-type="DESCRIPTION" height="472px" preserveAspectRatio="none" style="width:637px;height:472px;background:#FFFFFF;" version="1.1" viewBox="0 0 637 472" width="637px" zoomAndPan="magnify"><title>Casos de Uso - Uso de consumiveis
US-34, US-35, US-36 | v1</title><defs/><g><g class="title" data-source-line="2"><text fill="#000000" font-family="sans-serif" font-size="14" font-weight="bold" lengthAdjust="spacing" textLength="258.6992" x="182.5704" y="23.5352">Casos de Uso - Uso de consumiveis</text><text fill="#000000" font-family="sans-serif" font-size="14" font-weight="bold" lengthAdjust="spacing" textLength="185.4727" x="219.1837" y="40.0234">US-34, US-35, US-36 | v1</text></g><!--cluster Sistema de Consumiveis--><g class="cluster" data-qualified-name="Sistema de Consumiveis" data-source-line="10" id="ent0003"><rect fill="none" height="217" rx="2.5" ry="2.5" style="stroke:#181818;stroke-width:1;" width="452.99" x="178.85" y="192.2866"/><text fill="#000000" font-family="sans-serif" font-size="14" font-weight="bold" lengthAdjust="spacing" textLength="175.1846" x="317.7527" y="207.8217">Sistema de Consumiveis</text></g><!--entity UC1--><g class="entity" data-qualified-name="Sistema de Consumiveis.UC1" data-source-line="11" id="ent0004"><ellipse cx="255.6467" cy="370.2855" fill="#F1F1F1" rx="60.8067" ry="14.659" style="stroke:#181818;stroke-width:0.5;"/><text fill="#000000" font-family="sans-serif" font-size="14" lengthAdjust="spacing" textLength="81.751" x="214.7712" y="375.0297">Usar bomba</text></g><!--entity UC2--><g class="entity" data-qualified-name="Sistema de Consumiveis.UC2" data-source-line="12" id="ent0005"><ellipse cx="255.6457" cy="306.2855" fill="#F1F1F1" rx="54.8757" ry="14.659" style="stroke:#181818;stroke-width:0.5;"/><text fill="#000000" font-family="sans-serif" font-size="14" lengthAdjust="spacing" textLength="73.3633" x="218.964" y="311.0297">Usar chave</text></g><!--entity UC3--><g class="entity" data-qualified-name="Sistema de Consumiveis.UC3" data-source-line="13" id="ent0006"><ellipse cx="255.6453" cy="242.2855" fill="#F1F1F1" rx="56.4853" ry="14.659" style="stroke:#181818;stroke-width:0.5;"/><text fill="#000000" font-family="sans-serif" font-size="14" lengthAdjust="spacing" textLength="75.6396" x="217.8255" y="247.0297">Usar pocao</text></g><!--entity UC4--><g class="entity" data-qualified-name="Sistema de Consumiveis.UC4" data-source-line="14" id="ent0007"><ellipse cx="550.8189" cy="301.2899" fill="#F1F1F1" rx="65.0189" ry="25.8433" style="stroke:#181818;stroke-width:0.5;"/><text fill="#000000" font-family="sans-serif" font-size="14" lengthAdjust="spacing" textLength="81.833" x="509.9024" y="297.1116">Validar item</text><text fill="#000000" font-family="sans-serif" font-size="14" lengthAdjust="spacing" textLength="89.5303" x="506.0538" y="313.5999">no inventario</text></g><!--entity jogador--><g class="entity" data-qualified-name="jogador" data-source-line="8" id="ent0002"><ellipse cx="33" cy="284.0466" fill="#F1F1F1" rx="16" ry="16" style="stroke:#181818;stroke-width:0.5;"/><path d="M33,304.0466 C37,304.0466 40,304.0466 44,300.0466 C52,300.0466 60,308.0466 60,316.0466 L60,320.0466 C60,324.0466 56,328.0466 52,328.0466 L14,328.0466 C10,328.0466 6,324.0466 6,320.0466 L6,316.0466 C6,308.0466 14,300.0466 22,300.0466 C26,304.0466 29,304.0466 33,304.0466" fill="#F1F1F1" style="stroke:#181818;stroke-width:0.5;"/><text fill="#000000" font-family="sans-serif" font-size="14" lengthAdjust="spacing" textLength="52.5547" x="6.7227" y="342.0817">Jogador</text></g><g class="entity" data-qualified-name="GMN14" data-source-line="26" id="ent0015"><path d="M149.34,424.9766 L149.34,465.5977 L361.9694,465.5977 L361.9694,434.9766 L351.9694,424.9766 L149.34,424.9766" fill="#FEFFDD" style="stroke:#181818;stroke-width:0.5;"/><path d="M351.9694,424.9766 L351.9694,434.9766 L361.9694,434.9766 L351.9694,424.9766" fill="#FEFFDD" style="stroke:#181818;stroke-width:1;"/><text fill="#000000" font-family="sans-serif" font-size="13" lengthAdjust="spacing" textLength="191.6294" x="155.34" y="442.5449">Pre-cond: pocao no inventario</text><text fill="#000000" font-family="sans-serif" font-size="13" lengthAdjust="spacing" textLength="68.4404" x="155.34" y="457.8555">Ref: US-36</text></g><g class="entity" data-qualified-name="GMN17" data-source-line="31" id="ent0018"><path d="M150.39,135.9766 L150.39,176.5977 L360.9056,176.5977 L360.9056,145.9766 L350.9056,135.9766 L150.39,135.9766" fill="#FEFFDD" style="stroke:#181818;stroke-width:0.5;"/><path d="M350.9056,135.9766 L350.9056,145.9766 L360.9056,145.9766 L350.9056,135.9766" fill="#FEFFDD" style="stroke:#181818;stroke-width:1;"/><text fill="#000000" font-family="sans-serif" font-size="13" lengthAdjust="spacing" textLength="189.5156" x="156.39" y="153.5449">Pre-cond: chave no inventario</text><text fill="#000000" font-family="sans-serif" font-size="13" lengthAdjust="spacing" textLength="68.4404" x="156.39" y="168.8555">Ref: US-35</text></g><g class="entity" data-qualified-name="GMN20" data-source-line="36" id="ent0021"><path d="M146.5,59.9766 L146.5,100.5977 L364.8042,100.5977 L364.8042,69.9766 L354.8042,59.9766 L146.5,59.9766" fill="#FEFFDD" style="stroke:#181818;stroke-width:0.5;"/><path d="M354.8042,59.9766 L354.8042,69.9766 L364.8042,69.9766 L354.8042,59.9766" fill="#FEFFDD" style="stroke:#181818;stroke-width:1;"/><text fill="#000000" font-family="sans-serif" font-size="13" lengthAdjust="spacing" textLength="197.3042" x="152.5" y="77.5449">Pre-cond: bomba no inventario</text><text fill="#000000" font-family="sans-serif" font-size="13" lengthAdjust="spacing" textLength="68.4404" x="152.5" y="92.8555">Ref: US-34</text></g><!--link jogador to UC1--><g class="link" data-entity-1="ent0002" data-entity-2="ent0004" data-link-type="dependency" data-source-line="17" id="lnk8"><path d="M60.93,331.3266 C69.76,338.2266 80.01,344.9866 90.5,349.2866 C123.33,362.7366 156.7011,367.731 188.6511,369.681" fill="none" id="jogador-to-UC1" style="stroke:#181818;stroke-width:1;"/><polygon fill="#181818" points="194.64,370.0466,185.9004,365.5057,189.6493,369.742,185.413,373.4909,194.64,370.0466" style="stroke:#181818;stroke-width:1;"/><text fill="#000000" font-family="sans-serif" font-size="13" lengthAdjust="spacing" textLength="21.874" x="92.8965" y="330.8549">usa</text><text fill="#000000" font-family="sans-serif" font-size="13" lengthAdjust="spacing" textLength="24.667" x="91.5" y="346.1655">1..1</text></g><!--link jogador to UC2--><g class="link" data-entity-1="ent0002" data-entity-2="ent0005" data-link-type="dependency" data-source-line="18" id="lnk9"><path d="M60.72,307.9966 C70.13,308.5166 80.78,309.0266 90.5,309.2866 C127.4,310.2666 162.973,309.6754 195.053,308.6654" fill="none" id="jogador-to-UC2" style="stroke:#181818;stroke-width:1;"/><polygon fill="#181818" points="201.05,308.4766,191.9286,304.7618,196.0525,308.6339,192.1803,312.7578,201.05,308.4766" style="stroke:#181818;stroke-width:1;"/><text fill="#000000" font-family="sans-serif" font-size="13" lengthAdjust="spacing" textLength="21.874" x="92.8965" y="290.8549">usa</text><text fill="#000000" font-family="sans-serif" font-size="13" lengthAdjust="spacing" textLength="24.667" x="91.5" y="306.1655">1..1</text></g><!--link jogador to UC3--><g class="link" data-entity-1="ent0002" data-entity-2="ent0006" data-link-type="dependency" data-source-line="19" id="lnk10"><path d="M60.94,288.0266 C70,282.5866 80.39,277.0666 90.5,273.2866 C126.63,259.7866 163.5835,252.7459 196.4635,248.3259" fill="none" id="jogador-to-UC3" style="stroke:#181818;stroke-width:1;"/><polygon fill="#181818" points="202.41,247.5266,192.9573,244.7613,197.4546,248.1927,194.0232,252.69,202.41,247.5266" style="stroke:#181818;stroke-width:1;"/><text fill="#000000" font-family="sans-serif" font-size="13" lengthAdjust="spacing" textLength="21.874" x="92.8965" y="246.3749">usa</text><text fill="#000000" font-family="sans-serif" font-size="13" lengthAdjust="spacing" textLength="24.667" x="91.5" y="261.6855">1..1</text></g><!--link UC1 to UC4--><g class="link" data-entity-1="ent0004" data-entity-2="ent0007" data-link-type="dependency" data-source-line="21" id="lnk11"><path d="M306.07,361.7966 C346.56,354.4966 405.22,343.1366 455.8,330.2866 C470.21,326.6266 479.9472,323.8771 494.0972,319.5071" fill="none" id="UC1-to-UC4" style="stroke:#181818;stroke-width:1;stroke-dasharray:7,7;"/><polygon fill="#181818" points="499.83,317.7366,490.0504,316.5704,495.0526,319.212,492.4111,324.2142,499.83,317.7366" style="stroke:#181818;stroke-width:1;"/><text fill="#000000" font-family="sans-serif" font-size="13" lengthAdjust="spacing" textLength="59.3569" x="395.8" y="326.8549">&#171;include&#187;</text></g><!--link UC2 to UC4--><g class="link" data-entity-1="ent0005" data-entity-2="ent0007" data-link-type="dependency" data-source-line="22" id="lnk12"><path d="M310.75,306.0666 C350.81,305.8166 406.72,305.3166 455.8,304.2866 C465.44,304.0866 469.6225,303.9908 479.6025,303.7008" fill="none" id="UC2-to-UC4" style="stroke:#181818;stroke-width:1;stroke-dasharray:7,7;"/><polygon fill="#181818" points="485.6,303.5266,476.4876,299.7897,480.6021,303.6718,476.72,307.7863,485.6,303.5266" style="stroke:#181818;stroke-width:1;"/><text fill="#000000" font-family="sans-serif" font-size="13" lengthAdjust="spacing" textLength="59.3569" x="395.8" y="300.8549">&#171;include&#187;</text></g><!--link UC3 to UC4--><g class="link" data-entity-1="ent0006" data-entity-2="ent0007" data-link-type="dependency" data-source-line="23" id="lnk13"><path d="M301.18,251.2466 C352.28,261.5266 430.3378,277.2434 486.3678,288.5134" fill="none" id="UC3-to-UC4" style="stroke:#181818;stroke-width:1;stroke-dasharray:7,7;"/><polygon fill="#181818" points="492.25,289.6966,484.2155,284.0004,487.3482,288.7106,482.6379,291.8433,492.25,289.6966" style="stroke:#181818;stroke-width:1;"/><text fill="#000000" font-family="sans-serif" font-size="13" lengthAdjust="spacing" textLength="59.3569" x="395.8" y="268.3549">&#171;include&#187;</text></g><!--link GMN14 to UC3--><g class="link" data-entity-1="ent0015" data-entity-2="ent0006" data-link-type="association" data-source-line="26" id="lnk16"><path d="M149.12,427.5266 C131.01,419.5766 114.52,408.1666 103.5,391.7866 C78.69,354.9066 78.69,328.6666 103.5,291.7866 C124.35,260.7866 165.29,248.6966 199.46,244.2066" fill="none" id="GMN14-UC3" style="stroke:#181818;stroke-width:1;stroke-dasharray:7,7;"/></g><!--link GMN17 to UC2--><g class="link" data-entity-1="ent0018" data-entity-2="ent0005" data-link-type="association" data-source-line="31" id="lnk19"><path d="M174.49,177.0166 C126.25,193.5966 78.85,220.1466 103.5,256.7866 C124.66,288.2466 166.52,300.2266 200.98,304.5666" fill="none" id="GMN17-UC2" style="stroke:#181818;stroke-width:1;stroke-dasharray:7,7;"/></g><!--link GMN20 to UC1--><g class="link" data-entity-1="ent0021" data-entity-2="ent0004" data-link-type="association" data-source-line="36" id="lnk22"><path d="M146.12,100.9966 C129.22,109.0766 113.94,120.2666 103.5,135.7866 C57.61,204.0066 57.61,252.5666 103.5,320.7866 C123.5,350.5166 161.98,362.8566 195.23,367.7766" fill="none" id="GMN20-UC1" style="stroke:#181818;stroke-width:1;stroke-dasharray:7,7;"/></g><?plantuml-src VP8zRy8m441t_ufJvYPIIEY040jRfweedLWEvm2Nn1VP9bNLzh_NJj92GEdY3xtpkplRJhcAO8sMBPG4XMM8kz5l96jxhbLBocvriOcp_072DE-dH_Y2DXMYehq3ns3KuUYWL8QaKwo5FIdTeC4QK3es6_VXC-4xMQxf2ZOeJtYW7eUpg0yL2T4TWkY93rYoYG0jlFLh8Vx28DeewwZ6KE_wKcy4dmBWR4cYzK65HGCxhdVOUOfrUaVb4LiQwEoEDYoH1vfTqrUiLEa3b2zYgpM3qYrfXqRzXkVYMuYXSeZZLSWE2s_0hKwJ9BrXitzODc8YY98aWDo3vL9fMPrBMgr4q4oHR888pOxyEpR0-w7BPqEn_mJbekyVHkrv_aBxHVyL1EaIWk1MCnjfkakUrimdDUb8qxtaj2Q_Q7u0?></g></svg>